DungeonChunkRegular.ufo
<glyph name="exclam" format="2">
  <advance width="256"/>
  <unicode hex="0021"/>
  <outline>
    <contour>
      <point x="192" y="0" type="curve"/>
      <point x="0" y="0" type="line"/>
      <point x="-0" y="42.6667"/>
      <point x="0" y="85.3333"/>
      <point x="0" y="128" type="curve"/>
      <point x="192" y="128" type="line"/>
      <point x="192" y="85.3333"/>
      <point x="192" y="42.6667"/>
    </contour>
    <contour>
      <point x="192" y="192" type="line"/>
      <point x="0" y="192" type="line"/>
      <point x="0" y="512" type="line"/>
      <point x="192" y="512" type="line"/>
    </contour>
  </outline>
</glyph>
<glyph name="quotedbl" format="2">
  <advance width="384"/>
  <unicode hex="0022"/>
  <outline>
    <contour>
      <point x="192" y="320" type="line"/>
      <point x="192" y="512" type="line"/>
      <point x="234.667" y="512"/>
      <point x="277.333" y="512"/>
      <point x="320" y="512" type="curve"/>
      <point x="320" y="469.333"/>
      <point x="320" y="426.667"/>
      <point x="320" y="384" type="curve"/>
      <point x="256" y="384" type="line"/>
      <point x="256" y="320" type="line"/>
    </contour>
    <contour>
      <point x="0" y="320" type="line"/>
      <point x="0" y="512" type="line"/>
      <point x="42.6667" y="512"/>
      <point x="85.3333" y="512"/>
      <point x="128" y="512" type="curve"/>
      <point x="128" y="469.333"/>
      <point x="128" y="426.667"/>
      <point x="128" y="384" type="curve"/>
      <point x="64" y="384" type="line"/>
      <point x="64" y="320" type="line"/>
    </contour>
  </outline>
</glyph>
<glyph name="numbersign" format="2">
  <advance width="576"/>
  <unicode hex="0023"/>
  <outline>
    <contour>
      <point x="448" y="64" type="line"/>
      <point x="405.333" y="64"/>
      <point x="362.667" y="64"/>
      <point x="320" y="64" type="curve"/>
      <point x="320" y="128" type="line"/>
      <point x="277.333" y="128"/>
      <point x="234.667" y="128"/>
      <point x="192" y="128" type="curve"/>
      <point x="192" y="64" type="line"/>
      <point x="149.333" y="64"/>
      <point x="106.667" y="64"/>
      <point x="64" y="64" type="curve"/>
      <point x="64" y="128" type="line"/>
      <point x="0" y="128" type="line"/>
      <point x="0" y="192" type="line"/>
      <point x="64" y="192" type="line"/>
      <point x="64" y="234.667"/>
      <point x="64" y="277.333"/>
      <point x="64" y="320" type="curve"/>
      <point x="0" y="320" type="line"/>
      <point x="0" y="384" type="line"/>
      <point x="64" y="384" type="line"/>
      <point x="64" y="448" type="line"/>
      <point x="106.667" y="448"/>
      <point x="149.333" y="448"/>
      <point x="192" y="448" type="curve"/>
      <point x="192" y="384" type="line"/>
      <point x="234.667" y="384"/>
      <point x="277.333" y="384"/>
      <point x="320" y="384" type="curve"/>
      <point x="320" y="448" type="line"/>
      <point x="362.667" y="448"/>
      <point x="405.333" y="448"/>
      <point x="448" y="448" type="curve"/>
      <point x="448" y="384" type="line"/>
      <point x="512" y="384" type="line"/>
      <point x="512" y="320" type="line"/>
      <point x="448" y="320" type="line"/>
      <point x="448" y="277.333"/>
      <point x="448" y="234.667"/>
      <point x="448" y="192" type="curve"/>
      <point x="512" y="192" type="line"/>
      <point x="512" y="128" type="line"/>
      <point x="448" y="128" type="line"/>
    </contour>
    <contour>
      <point x="192" y="192" type="curve"/>
      <point x="234.667" y="192"/>
      <point x="277.333" y="192"/>
      <point x="320" y="192" type="curve"/>
      <point x="320" y="234.667"/>
      <point x="320" y="277.333"/>
      <point x="320" y="320" type="curve"/>
      <point x="277.333" y="320"/>
      <point x="234.667" y="320"/>
      <point x="192" y="320" type="curve"/>
      <point x="192" y="277.333"/>
      <point x="192" y="234.667"/>
    </contour>
  </outline>
</glyph>
<glyph name="dollar" format="2">
  <advance width="512"/>
  <unicode hex="0024"/>
  <outline>
    <contour>
      <point x="192" y="-64" type="line"/>
      <point x="192" y="0" type="line"/>
      <point x="0" y="0" type="line"/>
      <point x="-0" y="42.6667"/>
      <point x="0" y="85.3333"/>
      <point x="0" y="128" type="curve"/>
      <point x="192" y="128" type="line"/>
      <point x="192" y="192" type="line"/>
      <point x="149.333" y="192"/>
      <point x="106.667" y="192"/>
      <point x="64" y="192" type="curve"/>
      <point x="64" y="256" type="line"/>
      <point x="0" y="256" type="line"/>
      <point x="0" y="448" type="line"/>
      <point x="64" y="448" type="line"/>
      <point x="64" y="512" type="line"/>
      <point x="106.667" y="512"/>
      <point x="149.333" y="512"/>
      <point x="192" y="512" type="curve"/>
      <point x="192" y="576" type="line"/>
      <point x="256" y="576" type="line"/>
      <point x="256" y="512" type="line"/>
      <point x="298.667" y="512"/>
      <point x="341.333" y="512"/>
      <point x="384" y="512" type="curve"/>
      <point x="384" y="469.333"/>
      <point x="384" y="426.667"/>
      <point x="384" y="384" type="curve"/>
      <point x="341.333" y="384"/>
      <point x="298.667" y="384"/>
      <point x="256" y="384" type="curve"/>
      <point x="256" y="320" type="line"/>
      <point x="298.667" y="320"/>
      <point x="341.333" y="320"/>
      <point x="384" y="320" type="curve"/>
      <point x="384" y="256" type="line"/>
      <point x="448" y="256" type="line"/>
      <point x="448" y="64" type="line"/>
      <point x="384" y="64" type="line"/>
      <point x="384" y="0" type="line"/>
      <point x="341.333" y="-0"/>
      <point x="298.667" y="0"/>
      <point x="256" y="0" type="curve"/>
      <point x="256" y="-64" type="line"/>
    </contour>
    <contour>
      <point x="320" y="128" type="line"/>
      <point x="320" y="192" type="line"/>
      <point x="256" y="192" type="line"/>
      <point x="256" y="128" type="line"/>
    </contour>
    <contour>
      <point x="192" y="320" type="line"/>
      <point x="192" y="384" type="line"/>
      <point x="128" y="384" type="line"/>
      <point x="128" y="320" type="line"/>
    </contour>
  </outline>
</glyph>
<glyph name="percent" format="2">
  <advance width="576"/>
  <unicode hex="0025"/>
  <outline>
    <contour>
      <point x="512" y="0" type="line"/>
      <point x="320" y="0" type="line"/>
      <point x="320" y="192" type="line"/>
      <point x="512" y="192" type="line"/>
    </contour>
    <contour>
      <point x="256" y="0" type="line"/>
      <point x="213.333" y="-0"/>
      <point x="170.667" y="0"/>
      <point x="128" y="0" type="curve"/>
      <point x="128" y="192" type="line"/>
      <point x="192" y="192" type="line"/>
      <point x="192" y="234.667"/>
      <point x="192" y="277.333"/>
      <point x="192" y="320" type="curve"/>
      <point x="256" y="320" type="line"/>
      <point x="256" y="512" type="line"/>
      <point x="298.667" y="512"/>
      <point x="341.333" y="512"/>
      <point x="384" y="512" type="curve"/>
      <point x="384" y="320" type="line"/>
      <point x="320" y="320" type="line"/>
      <point x="320" y="277.333"/>
      <point x="320" y="234.667"/>
      <point x="320" y="192" type="curve"/>
      <point x="256" y="192" type="line"/>
    </contour>
    <contour>
      <point x="448" y="64" type="line"/>
      <point x="448" y="128" type="line"/>
      <point x="384" y="128" type="line"/>
      <point x="384" y="64" type="line"/>
    </contour>
    <contour>
      <point x="192" y="320" type="line"/>
      <point x="0" y="320" type="line"/>
      <point x="0" y="512" type="line"/>
      <point x="192" y="512" type="line"/>
    </contour>
    <contour>
      <point x="128" y="384" type="line"/>
      <point x="128" y="448" type="line"/>
      <point x="64" y="448" type="line"/>
      <point x="64" y="384" type="line"/>
    </contour>
  </outline>
</glyph>
<glyph name="ampersand" format="2">
  <advance width="576"/>
  <unicode hex="0026"/>
  <outline>
    <contour>
      <point x="512" y="0" type="line"/>
      <point x="320" y="0" type="line"/>
      <point x="320" y="64" type="line"/>
      <point x="256" y="64" type="line"/>
      <point x="256" y="0" type="line"/>
      <point x="64" y="0" type="line"/>
      <point x="64" y="64" type="line"/>
      <point x="0" y="64" type="line"/>
      <point x="0" y="256" type="line"/>
      <point x="64" y="256" type="line"/>
      <point x="64" y="320" type="line"/>
      <point x="0" y="320" type="line"/>
      <point x="-0" y="362.667"/>
      <point x="0" y="405.333"/>
      <point x="0" y="448" type="curve"/>
      <point x="64" y="448" type="line"/>
      <point x="64" y="512" type="line"/>
      <point x="149.333" y="512"/>
      <point x="234.667" y="512"/>
      <point x="320" y="512" type="curve"/>
      <point x="320" y="448" type="line"/>
      <point x="384" y="448" type="line"/>
      <point x="384" y="405.333"/>
      <point x="384" y="362.667"/>
      <point x="384" y="320" type="curve"/>
      <point x="320" y="320" type="line"/>
      <point x="320" y="277.333"/>
      <point x="320" y="234.667"/>
      <point x="320" y="192" type="curve"/>
      <point x="384" y="192" type="line"/>
      <point x="384" y="128" type="line"/>
      <point x="448" y="128" type="line"/>
      <point x="448" y="64" type="line"/>
      <point x="512" y="64" type="line"/>
    </contour>
    <contour>
      <point x="128" y="128" type="curve"/>
      <point x="170.667" y="128"/>
      <point x="213.333" y="128"/>
      <point x="256" y="128" type="curve"/>
      <point x="256" y="192" type="line"/>
      <point x="192" y="192" type="line"/>
      <point x="192" y="256" type="line"/>
      <point x="128" y="256" type="line"/>
      <point x="128" y="213.333"/>
      <point x="128" y="170.667"/>
    </contour>
    <contour>
      <point x="256" y="320" type="line"/>
      <point x="256" y="362.667"/>
      <point x="256" y="405.333"/>
      <point x="256" y="448" type="curve"/>
      <point x="213.333" y="448"/>
      <point x="170.667" y="448"/>
      <point x="128" y="448" type="curve"/>
      <point x="128" y="384" type="line"/>
      <point x="192" y="384" type="line"/>
      <point x="192" y="320" type="line"/>
    </contour>
  </outline>
</glyph>
<glyph name="quotesingle" format="2">
  <advance width="192"/>
  <unicode hex="0027"/>
  <outline>
    <contour>
      <point x="0" y="320" type="line"/>
      <point x="0" y="512" type="line"/>
      <point x="42.6667" y="512"/>
      <point x="85.3333" y="512"/>
      <point x="128" y="512" type="curve"/>
      <point x="128" y="469.333"/>
      <point x="128" y="426.667"/>
      <point x="128" y="384" type="curve"/>
      <point x="64" y="384" type="line"/>
      <point x="64" y="320" type="line"/>
    </contour>
  </outline>
</glyph>
<glyph name="parenright" format="2">
  <advance width="320"/>
  <unicode hex="0029"/>
  <outline>
    <contour>
      <point x="192" y="0" type="line"/>
      <point x="0" y="0" type="line"/>
      <point x="0" y="64" type="line"/>
      <point x="64" y="64" type="line"/>
      <point x="64" y="192"/>
      <point x="64" y="320"/>
      <point x="64" y="448" type="curve"/>
      <point x="0" y="448" type="line"/>
      <point x="0" y="512" type="line"/>
      <point x="192" y="512" type="line"/>
      <point x="192" y="448" type="line"/>
      <point x="256" y="448" type="line"/>
      <point x="256" y="320"/>
      <point x="256" y="192"/>
      <point x="256" y="64" type="curve"/>
      <point x="192" y="64" type="line"/>
    </contour>
  </outline>
</glyph>
<glyph name="asterisk" format="2">
  <advance width="320"/>
  <unicode hex="002A"/>
  <outline>
    <contour>
      <point x="192" y="320" type="line"/>
      <point x="192" y="384" type="line"/>
      <point x="256" y="384" type="line"/>
      <point x="256" y="320" type="line"/>
    </contour>
    <contour>
      <point x="0" y="320" type="line"/>
      <point x="0" y="384" type="line"/>
      <point x="64" y="384" type="line"/>
      <point x="64" y="320" type="line"/>
    </contour>
    <contour>
      <point x="192" y="384" type="line"/>
      <point x="149.333" y="384"/>
      <point x="106.667" y="384"/>
      <point x="64" y="384" type="curve"/>
      <point x="64" y="448" type="line"/>
      <point x="0" y="448" type="line"/>
      <point x="0" y="512" type="line"/>
      <point x="64" y="512" type="line"/>
      <point x="64" y="576" type="line"/>
      <point x="106.667" y="576"/>
      <point x="149.333" y="576"/>
      <point x="192" y="576" type="curve"/>
      <point x="192" y="512" type="line"/>
      <point x="256" y="512" type="line"/>
      <point x="256" y="448" type="line"/>
      <point x="192" y="448" type="line"/>
    </contour>
  </outline>
</glyph>
<glyph name="plus" format="2">
  <advance width="512"/>
  <unicode hex="002B"/>
  <outline>
    <contour>
      <point x="320" y="64" type="curve"/>
      <point x="277.333" y="64"/>
      <point x="234.667" y="64"/>
      <point x="192" y="64" type="curve"/>
      <point x="192" y="106.667"/>
      <point x="192" y="149.333"/>
      <point x="192" y="192" type="curve"/>
      <point x="149.333" y="192"/>
      <point x="106.667" y="192"/>
      <point x="64" y="192" type="curve"/>
      <point x="64" y="234.667"/>
      <point x="64" y="277.333"/>
      <point x="64" y="320" type="curve"/>
      <point x="106.667" y="320"/>
      <point x="149.333" y="320"/>
      <point x="192" y="320" type="curve"/>
      <point x="192" y="362.667"/>
      <point x="192" y="405.333"/>
      <point x="192" y="448" type="curve"/>
      <point x="234.667" y="448"/>
      <point x="277.333" y="448"/>
      <point x="320" y="448" type="curve"/>
      <point x="320" y="405.333"/>
      <point x="320" y="362.667"/>
      <point x="320" y="320" type="curve"/>
      <point x="362.667" y="320"/>
      <point x="405.333" y="320"/>
      <point x="448" y="320" type="curve"/>
      <point x="448" y="277.333"/>
      <point x="448" y="234.667"/>
      <point x="448" y="192" type="curve"/>
      <point x="405.333" y="192"/>
      <point x="362.667" y="192"/>
      <point x="320" y="192" type="curve"/>
      <point x="320" y="149.333"/>
      <point x="320" y="106.667"/>
    </contour>
  </outline>
</glyph>
<glyph name="comma" format="2">
  <advance width="192"/>
  <unicode hex="002C"/>
  <outline>
    <contour>
      <point x="0" y="0" type="line"/>
      <point x="0" y="192" type="line"/>
      <point x="42.6667" y="192"/>
      <point x="85.3333" y="192"/>
      <point x="128" y="192" type="curve"/>
      <point x="128" y="149.333"/>
      <point x="128" y="106.667"/>
      <point x="128" y="64" type="curve"/>
      <point x="64" y="64" type="line"/>
      <point x="64" y="0" type="line"/>
    </contour>
  </outline>
</glyph>
<glyph name="hyphen" format="2">
  <advance width="512"/>
  <unicode hex="002D"/>
  <outline>
    <contour>
      <point x="448" y="192" type="curve"/>
      <point x="320" y="192"/>
      <point x="192" y="192"/>
      <point x="64" y="192" type="curve"/>
      <point x="64" y="234.667"/>
      <point x="64" y="277.333"/>
      <point x="64" y="320" type="curve"/>
      <point x="192" y="320"/>
      <point x="320" y="320"/>
      <point x="448" y="320" type="curve"/>
      <point x="448" y="277.333"/>
      <point x="448" y="234.667"/>
    </contour>
  </outline>
</glyph>
<glyph name="period" format="2">
  <advance width="192"/>
  <unicode hex="002E"/>
  <outline>
    <contour>
      <point x="128" y="0" type="curve"/>
      <point x="85.3333" y="-0"/>
      <point x="42.6667" y="0"/>
      <point x="0" y="0" type="curve"/>
      <point x="-0" y="42.6667"/>
      <point x="0" y="85.3333"/>
      <point x="0" y="128" type="curve"/>
      <point x="42.6667" y="128"/>
      <point x="85.3333" y="128"/>
      <point x="128" y="128" type="curve"/>
      <point x="128" y="85.3333"/>
      <point x="128" y="42.6667"/>
    </contour>
  </outline>
</glyph>
<glyph name="zero" format="2">
  <advance width="448"/>
  <unicode hex="0030"/>
  <outline>
    <contour>
      <point x="320" y="0" type="line"/>
      <point x="234.667" y="-0"/>
      <point x="149.333" y="0"/>
      <point x="64" y="0" type="curve"/>
      <point x="64" y="64" type="line"/>
      <point x="0" y="64" type="line"/>
      <point x="-0" y="192"/>
      <point x="0" y="320"/>
      <point x="0" y="448" type="curve"/>
      <point x="64" y="448" type="line"/>
      <point x="64" y="512" type="line"/>
      <point x="149.333" y="512"/>
      <point x="234.667" y="512"/>
      <point x="320" y="512" type="curve"/>
      <point x="320" y="448" type="line"/>
      <point x="384" y="448" type="line"/>
      <point x="384" y="320"/>
      <point x="384" y="192"/>
      <point x="384" y="64" type="curve"/>
      <point x="320" y="64" type="line"/>
    </contour>
    <contour>
      <point x="128" y="128" type="line"/>
      <point x="170.667" y="128"/>
      <point x="213.333" y="128"/>
      <point x="256" y="128" type="curve"/>
      <point x="256" y="170.667"/>
      <point x="256" y="213.333"/>
      <point x="256" y="256" type="curve"/>
      <point x="192" y="256" type="line"/>
      <point x="192" y="320" type="line"/>
      <point x="256" y="320" type="line"/>
      <point x="256" y="384" type="line"/>
      <point x="213.333" y="384"/>
      <point x="170.667" y="384"/>
      <point x="128" y="384" type="curve"/>
      <point x="128" y="341.333"/>
      <point x="128" y="298.667"/>
      <point x="128" y="256" type="curve"/>
      <point x="192" y="256" type="line"/>
      <point x="192" y="192" type="line"/>
      <point x="128" y="192" type="line"/>
    </contour>
  </outline>
</glyph>
<glyph name="one" format="2">
  <advance width="384"/>
  <unicode hex="0031"/>
  <outline>
    <contour>
      <point x="320" y="0" type="curve"/>
      <point x="128" y="0" type="line"/>
      <point x="128" y="85.3333"/>
      <point x="128" y="170.667"/>
      <point x="128" y="256" type="curve"/>
      <point x="85.3333" y="256"/>
      <point x="42.6667" y="256"/>
      <point x="0" y="256" type="curve"/>
      <point x="-0" y="298.667"/>
      <point x="0" y="341.333"/>
      <point x="0" y="384" type="curve"/>
      <point x="64" y="384" type="line"/>
      <point x="64" y="448" type="line"/>
      <point x="128" y="448" type="line"/>
      <point x="128" y="512" type="line"/>
      <point x="320" y="512" type="line"/>
      <point x="320" y="341.333"/>
      <point x="320" y="170.667"/>
    </contour>
  </outline>
</glyph>
<glyph name="two" format="2">
  <advance width="512"/>
  <unicode hex="0032"/>
  <outline>
    <contour>
      <point x="448" y="0" type="curve"/>
      <point x="0" y="0" type="line"/>
      <point x="-0" y="42.6667"/>
      <point x="0" y="85.3333"/>
      <point x="0" y="128" type="curve"/>
      <point x="64" y="128" type="line"/>
      <point x="64" y="192" type="line"/>
      <point x="128" y="192" type="line"/>
      <point x="128" y="256" type="line"/>
      <point x="192" y="256" type="line"/>
      <point x="192" y="320" type="line"/>
      <point x="256" y="320" type="line"/>
      <point x="256" y="384" type="line"/>
      <point x="213.333" y="384"/>
      <point x="170.667" y="384"/>
      <point x="128" y="384" type="curve"/>
      <point x="128" y="320" type="line"/>
      <point x="85.3333" y="320"/>
      <point x="42.6667" y="320"/>
      <point x="0" y="320" type="curve"/>
      <point x="-0" y="362.667"/>
      <point x="0" y="405.333"/>
      <point x="0" y="448" type="curve"/>
      <point x="64" y="448" type="line"/>
      <point x="64" y="512" type="line"/>
      <point x="384" y="512" type="line"/>
      <point x="384" y="448" type="line"/>
      <point x="448" y="448" type="line"/>
      <point x="448" y="405.333"/>
      <point x="448" y="362.667"/>
      <point x="448" y="320" type="curve"/>
      <point x="384" y="320" type="line"/>
      <point x="384" y="256" type="line"/>
      <point x="320" y="256" type="line"/>
      <point x="320" y="192" type="line"/>
      <point x="256" y="192" type="line"/>
      <point x="256" y="128" type="line"/>
      <point x="448" y="128" type="line"/>
      <point x="448" y="85.3333"/>
      <point x="448" y="42.6667"/>
    </contour>
  </outline>
</glyph>
<glyph name="three" format="2">
  <advance width="512"/>
  <unicode hex="0033"/>
  <outline>
    <contour>
      <point x="384" y="0" type="line"/>
      <point x="64" y="0" type="line"/>
      <point x="64" y="64" type="line"/>
      <point x="0" y="64" type="line"/>
      <point x="-0" y="106.667"/>
      <point x="0" y="149.333"/>
      <point x="0" y="192" type="curve"/>
      <point x="42.6667" y="192"/>
      <point x="85.3333" y="192"/>
      <point x="128" y="192" type="curve"/>
      <point x="128" y="128" type="line"/>
      <point x="170.667" y="128"/>
      <point x="213.333" y="128"/>
      <point x="256" y="128" type="curve"/>
      <point x="256" y="170.667"/>
      <point x="256" y="213.333"/>
      <point x="256" y="256" type="curve"/>
      <point x="213.333" y="256"/>
      <point x="170.667" y="256"/>
      <point x="128" y="256" type="curve"/>
      <point x="128" y="320" type="line"/>
      <point x="192" y="320" type="line"/>
      <point x="192" y="384" type="line"/>
      <point x="149.333" y="384"/>
      <point x="106.667" y="384"/>
      <point x="64" y="384" type="curve"/>
      <point x="64" y="426.667"/>
      <point x="64" y="469.333"/>
      <point x="64" y="512" type="curve"/>
      <point x="192" y="512"/>
      <point x="320" y="512"/>
      <point x="448" y="512" type="curve"/>
      <point x="448" y="469.333"/>
      <point x="448" y="426.667"/>
      <point x="448" y="384" type="curve"/>
      <point x="384" y="384" type="line"/>
      <point x="384" y="320" type="line"/>
      <point x="320" y="320" type="line"/>
      <point x="320" y="256" type="line"/>
      <point x="362.667" y="256"/>
      <point x="405.333" y="256"/>
      <point x="448" y="256" type="curve"/>
      <point x="448" y="64" type="line"/>
      <point x="384" y="64" type="line"/>
    </contour>
  </outline>
</glyph>
<glyph name="four" format="2">
  <advance width="512"/>
  <unicode hex="0034"/>
  <outline>
    <contour>
      <point x="448" y="0" type="curve"/>
      <point x="256" y="0" type="line"/>
      <point x="256" y="85.3333"/>
      <point x="256" y="170.667"/>
      <point x="256" y="256" type="curve"/>
      <point x="170.667" y="256"/>
      <point x="85.3333" y="256"/>
      <point x="0" y="256" type="curve"/>
      <point x="-0" y="341.333"/>
      <point x="0" y="426.667"/>
      <point x="0" y="512" type="curve"/>
      <point x="192" y="512" type="line"/>
      <point x="192" y="469.333"/>
      <point x="192" y="426.667"/>
      <point x="192" y="384" type="curve"/>
      <point x="256" y="384" type="line"/>
      <point x="256" y="426.667"/>
      <point x="256" y="469.333"/>
      <point x="256" y="512" type="curve"/>
      <point x="448" y="512" type="line"/>
      <point x="448" y="341.333"/>
      <point x="448" y="170.667"/>
    </contour>
  </outline>
</glyph>
<glyph name="five" format="2">
  <advance width="512"/>
  <unicode hex="0035"/>
  <outline>
    <contour>
      <point x="384" y="0" type="line"/>
      <point x="64" y="0" type="line"/>
      <point x="64" y="64" type="line"/>
      <point x="0" y="64" type="line"/>
      <point x="-0" y="106.667"/>
      <point x="0" y="149.333"/>
      <point x="0" y="192" type="curve"/>
      <point x="42.6667" y="192"/>
      <point x="85.3333" y="192"/>
      <point x="128" y="192" type="curve"/>
      <point x="128" y="128" type="line"/>
      <point x="170.667" y="128"/>
      <point x="213.333" y="128"/>
      <point x="256" y="128" type="curve"/>
      <point x="256" y="170.667"/>
      <point x="256" y="213.333"/>
      <point x="256" y="256" type="curve"/>
      <point x="170.667" y="256"/>
      <point x="85.3333" y="256"/>
      <point x="0" y="256" type="curve"/>
      <point x="-0" y="341.333"/>
      <point x="0" y="426.667"/>
      <point x="0" y="512" type="curve"/>
      <point x="128" y="512"/>
      <point x="256" y="512"/>
      <point x="384" y="512" type="curve"/>
      <point x="384" y="469.333"/>
      <point x="384" y="426.667"/>
      <point x="384" y="384" type="curve"/>
      <point x="192" y="384" type="line"/>
      <point x="192" y="320" type="line"/>
      <point x="384" y="320" type="line"/>
      <point x="384" y="256" type="line"/>
      <point x="448" y="256" type="line"/>
      <point x="448" y="64" type="line"/>
      <point x="384" y="64" type="line"/>
    </contour>
  </outline>
</glyph>
<glyph name="seven" format="2">
  <advance width="448"/>
  <unicode hex="0037"/>
  <outline>
    <contour>
      <point x="256" y="0" type="line"/>
      <point x="64" y="0" type="line"/>
      <point x="64" y="85.3333"/>
      <point x="64" y="170.667"/>
      <point x="64" y="256" type="curve"/>
      <point x="128" y="256" type="line"/>
      <point x="128" y="298.667"/>
      <point x="128" y="341.333"/>
      <point x="128" y="384" type="curve"/>
      <point x="85.3333" y="384"/>
      <point x="42.6667" y="384"/>
      <point x="0" y="384" type="curve"/>
      <point x="-0" y="426.667"/>
      <point x="0" y="469.333"/>
      <point x="0" y="512" type="curve"/>
      <point x="128" y="512"/>
      <point x="256" y="512"/>
      <point x="384" y="512" type="curve"/>
      <point x="384" y="320" type="line"/>
      <point x="320" y="320" type="line"/>
      <point x="320" y="277.333"/>
      <point x="320" y="234.667"/>
      <point x="320" y="192" type="curve"/>
      <point x="256" y="192" type="line"/>
    </contour>
  </outline>
</glyph>
<glyph name="nine" format="2">
  <advance width="512"/>
  <unicode hex="0039"/>
  <outline>
    <contour>
      <point x="448" y="0" type="line"/>
      <point x="256" y="0" type="line"/>
      <point x="256" y="42.6667"/>
      <point x="256" y="85.3333"/>
      <point x="256" y="128" type="curve"/>
      <point x="64" y="128" type="line"/>
      <point x="64" y="192" type="line"/>
      <point x="0" y="192" type="line"/>
      <point x="-0" y="277.333"/>
      <point x="0" y="362.667"/>
      <point x="0" y="448" type="curve"/>
      <point x="64" y="448" type="line"/>
      <point x="64" y="512" type="line"/>
      <point x="384" y="512" type="line"/>
      <point x="384" y="448" type="line"/>
      <point x="448" y="448" type="line"/>
    </contour>
    <contour>
      <point x="256" y="256" type="line"/>
      <point x="256" y="298.667"/>
      <point x="256" y="341.333"/>
      <point x="256" y="384" type="curve"/>
      <point x="192" y="384" type="line"/>
      <point x="192" y="341.333"/>
      <point x="192" y="298.667"/>
      <point x="192" y="256" type="curve"/>
    </contour>
  </outline>
</glyph>
<glyph name="colon" format="2">
  <advance width="192"/>
  <unicode hex="003A"/>
  <outline>
    <contour>
      <point x="128" y="64" type="curve"/>
      <point x="85.3333" y="64"/>
      <point x="42.6667" y="64"/>
      <point x="0" y="64" type="curve"/>
      <point x="-0" y="106.667"/>
      <point x="0" y="149.333"/>
      <point x="0" y="192" type="curve"/>
      <point x="42.6667" y="192"/>
      <point x="85.3333" y="192"/>
      <point x="128" y="192" type="curve"/>
      <point x="128" y="149.333"/>
      <point x="128" y="106.667"/>
    </contour>
    <contour>
      <point x="128" y="256" type="curve"/>
      <point x="85.3333" y="256"/>
      <point x="42.6667" y="256"/>
      <point x="0" y="256" type="curve"/>
      <point x="-0" y="298.667"/>
      <point x="0" y="341.333"/>
      <point x="0" y="384" type="curve"/>
      <point x="42.6667" y="384"/>
      <point x="85.3333" y="384"/>
      <point x="128" y="384" type="curve"/>
      <point x="128" y="341.333"/>
      <point x="128" y="298.667"/>
    </contour>
  </outline>
</glyph>
<glyph name="semicolon" format="2">
  <advance width="192"/>
  <unicode hex="003B"/>
  <outline>
    <contour>
      <point x="0" y="0" type="line"/>
      <point x="0" y="192" type="line"/>
      <point x="42.6667" y="192"/>
      <point x="85.3333" y="192"/>
      <point x="128" y="192" type="curve"/>
      <point x="128" y="149.333"/>
      <point x="128" y="106.667"/>
      <point x="128" y="64" type="curve"/>
      <point x="64" y="64" type="line"/>
      <point x="64" y="0" type="line"/>
    </contour>
    <contour>
      <point x="128" y="256" type="curve"/>
      <point x="85.3333" y="256"/>
      <point x="42.6667" y="256"/>
      <point x="0" y="256" type="curve"/>
      <point x="-0" y="298.667"/>
      <point x="0" y="341.333"/>
      <point x="0" y="384" type="curve"/>
      <point x="42.6667" y="384"/>
      <point x="85.3333" y="384"/>
      <point x="128" y="384" type="curve"/>
      <point x="128" y="341.333"/>
      <point x="128" y="298.667"/>
    </contour>
  </outline>
</glyph>
<glyph name="equal" format="2">
  <advance width="512"/>
  <unicode hex="003D"/>
  <outline>
    <contour>
      <point x="448" y="64" type="line"/>
      <point x="64" y="64" type="line"/>
      <point x="64" y="192" type="line"/>
      <point x="448" y="192" type="line"/>
    </contour>
    <contour>
      <point x="448" y="256" type="line"/>
      <point x="64" y="256" type="line"/>
      <point x="64" y="384" type="line"/>
      <point x="448" y="384" type="line"/>
    </contour>
  </outline>
</glyph>
<glyph name="at" format="2">
  <advance width="448"/>
  <unicode hex="0040"/>
  <outline>
    <contour>
      <point x="320" y="0" type="line"/>
      <point x="234.667" y="-0"/>
      <point x="149.333" y="0"/>
      <point x="64" y="0" type="curve"/>
      <point x="64" y="64" type="line"/>
      <point x="0" y="64" type="line"/>
      <point x="-0" y="192"/>
      <point x="0" y="320"/>
      <point x="0" y="448" type="curve"/>
      <point x="64" y="448" type="line"/>
      <point x="64" y="512" type="line"/>
      <point x="149.333" y="512"/>
      <point x="234.667" y="512"/>
      <point x="320" y="512" type="curve"/>
      <point x="320" y="448" type="line"/>
      <point x="384" y="448" type="line"/>
      <point x="384" y="362.667"/>
      <point x="384" y="277.333"/>
      <point x="384" y="192" type="curve"/>
      <point x="192" y="192" type="line"/>
      <point x="192" y="234.667"/>
      <point x="192" y="277.333"/>
      <point x="192" y="320" type="curve"/>
      <point x="256" y="320" type="line"/>
      <point x="256" y="384" type="line"/>
      <point x="213.333" y="384"/>
      <point x="170.667" y="384"/>
      <point x="128" y="384" type="curve"/>
      <point x="128" y="298.667"/>
      <point x="128" y="213.333"/>
      <point x="128" y="128" type="curve"/>
      <point x="213.333" y="128"/>
      <point x="298.667" y="128"/>
      <point x="384" y="128" type="curve"/>
      <point x="384" y="64" type="line"/>
      <point x="320" y="64" type="line"/>
    </contour>
  </outline>
</glyph>
<glyph name="D" format="2">
  <advance width="512"/>
  <unicode hex="0044"/>
  <outline>
    <contour>
      <point x="384" y="0" type="line"/>
      <point x="256" y="-0"/>
      <point x="128" y="0"/>
      <point x="0" y="0" type="curve"/>
      <point x="-0" y="170.667"/>
      <point x="0" y="341.333"/>
      <point x="0" y="512" type="curve"/>
      <point x="128" y="512"/>
      <point x="256" y="512"/>
      <point x="384" y="512" type="curve"/>
      <point x="384" y="448" type="line"/>
      <point x="448" y="448" type="line"/>
      <point x="448" y="320"/>
      <point x="448" y="192"/>
      <point x="448" y="64" type="curve"/>
      <point x="384" y="64" type="line"/>
    </contour>
    <contour>
      <point x="256" y="128" type="line"/>
      <point x="256" y="213.333"/>
      <point x="256" y="298.667"/>
      <point x="256" y="384" type="curve"/>
      <point x="192" y="384" type="line"/>
      <point x="192" y="298.667"/>
      <point x="192" y="213.333"/>
      <point x="192" y="128" type="curve"/>
    </contour>
  </outline>
</glyph>
<glyph name="F" format="2">
  <advance width="448"/>
  <unicode hex="0046"/>
  <outline>
    <contour>
      <point x="192" y="0" type="line"/>
      <point x="0" y="0" type="line"/>
      <point x="-0" y="170.667"/>
      <point x="0" y="341.333"/>
      <point x="0" y="512" type="curve"/>
      <point x="128" y="512"/>
      <point x="256" y="512"/>
      <point x="384" y="512" type="curve"/>
      <point x="384" y="469.333"/>
      <point x="384" y="426.667"/>
      <point x="384" y="384" type="curve"/>
      <point x="192" y="384" type="line"/>
      <point x="192" y="320" type="line"/>
      <point x="256" y="320" type="line"/>
      <point x="256" y="277.333"/>
      <point x="256" y="234.667"/>
      <point x="256" y="192" type="curve"/>
      <point x="192" y="192" type="line"/>
    </contour>
  </outline>
</glyph>
<glyph name="H" format="2">
  <advance width="448"/>
  <unicode hex="0048"/>
  <outline>
    <contour>
      <point x="384" y="0" type="curve"/>
      <point x="341.333" y="-0"/>
      <point x="298.667" y="0"/>
      <point x="256" y="0" type="curve"/>
      <point x="256" y="192" type="line"/>
      <point x="192" y="192" type="line"/>
      <point x="192" y="0" type="line"/>
      <point x="0" y="0" type="line"/>
      <point x="-0" y="170.667"/>
      <point x="0" y="341.333"/>
      <point x="0" y="512" type="curve"/>
      <point x="192" y="512" type="line"/>
      <point x="192" y="320" type="line"/>
      <point x="256" y="320" type="line"/>
      <point x="256" y="512" type="line"/>
      <point x="298.667" y="512"/>
      <point x="341.333" y="512"/>
      <point x="384" y="512" type="curve"/>
      <point x="384" y="341.333"/>
      <point x="384" y="170.667"/>
    </contour>
  </outline>
</glyph>
<glyph name="I" format="2">
  <advance width="256"/>
  <unicode hex="0049"/>
  <outline>
    <contour>
      <point x="192" y="0" type="curve"/>
      <point x="0" y="0" type="line"/>
      <point x="-0" y="170.667"/>
      <point x="0" y="341.333"/>
      <point x="0" y="512" type="curve"/>
      <point x="192" y="512" type="line"/>
      <point x="192" y="341.333"/>
      <point x="192" y="170.667"/>
    </contour>
  </outline>
</glyph>
<glyph name="J" format="2">
  <advance width="512"/>
  <unicode hex="004A"/>
  <outline>
    <contour>
      <point x="384" y="0" type="line"/>
      <point x="64" y="0" type="line"/>
      <point x="64" y="64" type="line"/>
      <point x="0" y="64" type="line"/>
      <point x="-0" y="106.667"/>
      <point x="0" y="149.333"/>
      <point x="0" y="192" type="curve"/>
      <point x="192" y="192" type="line"/>
      <point x="192" y="149.333"/>
      <point x="192" y="106.667"/>
      <point x="192" y="64" type="curve"/>
      <point x="256" y="64" type="line"/>
      <point x="256" y="512" type="line"/>
      <point x="448" y="512" type="line"/>
      <point x="448" y="64" type="line"/>
      <point x="384" y="64" type="line"/>
    </contour>
  </outline>
</glyph>
<glyph name="K" format="2">
  <advance width="512"/>
  <unicode hex="004B"/>
  <outline>
    <contour>
      <point x="448" y="0" type="curve"/>
      <point x="256" y="0" type="line"/>
      <point x="256" y="42.6667"/>
      <point x="256" y="85.3333"/>
      <point x="256" y="128" type="curve"/>
      <point x="192" y="128" type="line"/>
      <point x="192" y="85.3333"/>
      <point x="192" y="42.6667"/>
      <point x="192" y="0" type="curve"/>
      <point x="0" y="0" type="line"/>
      <point x="-0" y="170.667"/>
      <point x="0" y="341.333"/>
      <point x="0" y="512" type="curve"/>
      <point x="192" y="512" type="line"/>
      <point x="192" y="469.333"/>
      <point x="192" y="426.667"/>
      <point x="192" y="384" type="curve"/>
      <point x="256" y="384" type="line"/>
      <point x="256" y="426.667"/>
      <point x="256" y="469.333"/>
      <point x="256" y="512" type="curve"/>
      <point x="448" y="512" type="line"/>
      <point x="448" y="469.333"/>
      <point x="448" y="426.667"/>
      <point x="448" y="384" type="curve"/>
      <point x="384" y="384" type="line"/>
      <point x="384" y="320" type="line"/>
      <point x="320" y="320" type="line"/>
      <point x="320" y="277.333"/>
      <point x="320" y="234.667"/>
      <point x="320" y="192" type="curve"/>
      <point x="384" y="192" type="line"/>
      <point x="384" y="128" type="line"/>
      <point x="448" y="128" type="line"/>
      <point x="448" y="85.3333"/>
      <point x="448" y="42.6667"/>
    </contour>
  </outline>
</glyph>
<glyph name="L" format="2">
  <advance width="448"/>
  <unicode hex="004C"/>
  <outline>
    <contour>
      <point x="384" y="0" type="curve"/>
      <point x="256" y="-0"/>
      <point x="128" y="0"/>
      <point x="0" y="0" type="curve"/>
      <point x="-0" y="170.667"/>
      <point x="0" y="341.333"/>
      <point x="0" y="512" type="curve"/>
      <point x="192" y="512" type="line"/>
      <point x="192" y="384"/>
      <point x="192" y="256"/>
      <point x="192" y="128" type="curve"/>
      <point x="384" y="128" type="line"/>
      <point x="384" y="85.3333"/>
      <point x="384" y="42.6667"/>
    </contour>
  </outline>
</glyph>
<glyph name="P" format="2">
  <advance width="448"/>
  <unicode hex="0050"/>
  <outline>
    <contour>
      <point x="192" y="0" type="curve"/>
      <point x="0" y="0" type="line"/>
      <point x="-0" y="170.667"/>
      <point x="0" y="341.333"/>
      <point x="0" y="512" type="curve"/>
      <point x="320" y="512" type="line"/>
      <point x="320" y="448" type="line"/>
      <point x="384" y="448" type="line"/>
      <point x="384" y="362.667"/>
      <point x="384" y="277.333"/>
      <point x="384" y="192" type="curve"/>
      <point x="320" y="192" type="line"/>
      <point x="320" y="128" type="line"/>
      <point x="277.333" y="128"/>
      <point x="234.667" y="128"/>
      <point x="192" y="128" type="curve"/>
      <point x="192" y="85.3333"/>
      <point x="192" y="42.6667"/>
    </contour>
    <contour>
      <point x="256" y="256" type="line"/>
      <point x="256" y="298.667"/>
      <point x="256" y="341.333"/>
      <point x="256" y="384" type="curve"/>
      <point x="192" y="384" type="line"/>
      <point x="192" y="341.333"/>
      <point x="192" y="298.667"/>
      <point x="192" y="256" type="curve"/>
    </contour>
  </outline>
</glyph>
<glyph name="Q" format="2">
  <advance width="512"/>
  <unicode hex="0051"/>
  <outline>
    <contour>
      <point x="448" y="0" type="line"/>
      <point x="320" y="-0"/>
      <point x="192" y="0"/>
      <point x="64" y="0" type="curve"/>
      <point x="64" y="64" type="line"/>
      <point x="0" y="64" type="line"/>
      <point x="-0" y="192"/>
      <point x="0" y="320"/>
      <point x="0" y="448" type="curve"/>
      <point x="64" y="448" type="line"/>
      <point x="64" y="512" type="line"/>
      <point x="149.333" y="512"/>
      <point x="234.667" y="512"/>
      <point x="320" y="512" type="curve"/>
      <point x="320" y="448" type="line"/>
      <point x="384" y="448" type="line"/>
      <point x="384" y="320"/>
      <point x="384" y="192"/>
      <point x="384" y="64" type="curve"/>
      <point x="448" y="64" type="line"/>
    </contour>
    <contour>
      <point x="256" y="128" type="line"/>
      <point x="256" y="213.333"/>
      <point x="256" y="298.667"/>
      <point x="256" y="384" type="curve"/>
      <point x="192" y="384" type="line"/>
      <point x="192" y="298.667"/>
      <point x="192" y="213.333"/>
      <point x="192" y="128" type="curve"/>
    </contour>
  </outline>
</glyph>
<glyph name="T" format="2">
  <advance width="512"/>
  <unicode hex="0054"/>
  <outline>
    <contour>
      <point x="320" y="0" type="curve"/>
      <point x="128" y="0" type="line"/>
      <point x="128" y="128"/>
      <point x="128" y="256"/>
      <point x="128" y="384" type="curve"/>
      <point x="85.3333" y="384"/>
      <point x="42.6667" y="384"/>
      <point x="0" y="384" type="curve"/>
      <point x="-0" y="426.667"/>
      <point x="0" y="469.333"/>
      <point x="0" y="512" type="curve"/>
      <point x="448" y="512" type="line"/>
      <point x="448" y="469.333"/>
      <point x="448" y="426.667"/>
      <point x="448" y="384" type="curve"/>
      <point x="405.333" y="384"/>
      <point x="362.667" y="384"/>
      <point x="320" y="384" type="curve"/>
      <point x="320" y="256"/>
      <point x="320" y="128"/>
    </contour>
  </outline>
</glyph>
<glyph name="U" format="2">
  <advance width="448"/>
  <unicode hex="0055"/>
  <outline>
    <contour>
      <point x="320" y="0" type="line"/>
      <point x="234.667" y="-0"/>
      <point x="149.333" y="0"/>
      <point x="64" y="0" type="curve"/>
      <point x="64" y="64" type="line"/>
      <point x="0" y="64" type="line"/>
      <point x="0" y="512" type="line"/>
      <point x="192" y="512" type="line"/>
      <point x="192" y="192" type="line"/>
      <point x="256" y="192" type="line"/>
      <point x="256" y="512" type="line"/>
      <point x="298.667" y="512"/>
      <point x="341.333" y="512"/>
      <point x="384" y="512" type="curve"/>
      <point x="384" y="64" type="line"/>
      <point x="320" y="64" type="line"/>
    </contour>
  </outline>
</glyph>
<glyph name="V" format="2">
  <advance width="512"/>
  <unicode hex="0056"/>
  <outline>
    <contour>
      <point x="192" y="0" type="line"/>
      <point x="192" y="64" type="line"/>
      <point x="128" y="64" type="line"/>
      <point x="128" y="128" type="line"/>
      <point x="64" y="128" type="line"/>
      <point x="64" y="170.667"/>
      <point x="64" y="213.333"/>
      <point x="64" y="256" type="curve"/>
      <point x="0" y="256" type="line"/>
      <point x="-0" y="341.333"/>
      <point x="0" y="426.667"/>
      <point x="0" y="512" type="curve"/>
      <point x="42.6667" y="512"/>
      <point x="85.3333" y="512"/>
      <point x="128" y="512" type="curve"/>
      <point x="128" y="320" type="line"/>
      <point x="192" y="320" type="line"/>
      <point x="192" y="256" type="line"/>
      <point x="256" y="256" type="line"/>
      <point x="256" y="320" type="line"/>
      <point x="320" y="320" type="line"/>
      <point x="320" y="512" type="line"/>
      <point x="362.667" y="512"/>
      <point x="405.333" y="512"/>
      <point x="448" y="512" type="curve"/>
      <point x="448" y="426.667"/>
      <point x="448" y="341.333"/>
      <point x="448" y="256" type="curve"/>
      <point x="384" y="256" type="line"/>
      <point x="384" y="213.333"/>
      <point x="384" y="170.667"/>
      <point x="384" y="128" type="curve"/>
      <point x="320" y="128" type="line"/>
      <point x="320" y="64" type="line"/>
      <point x="256" y="64" type="line"/>
      <point x="256" y="0" type="line"/>
    </contour>
  </outline>
</glyph>
<glyph name="X" format="2">
  <advance width="512"/>
  <unicode hex="0058"/>
  <outline>
    <contour>
      <point x="448" y="0" type="line"/>
      <point x="405.333" y="-0"/>
      <point x="362.667" y="0"/>
      <point x="320" y="0" type="curve"/>
      <point x="320" y="42.6667"/>
      <point x="320" y="85.3333"/>
      <point x="320" y="128" type="curve"/>
      <point x="256" y="128" type="line"/>
      <point x="256" y="192" type="line"/>
      <point x="192" y="192" type="line"/>
      <point x="192" y="128" type="line"/>
      <point x="128" y="128" type="line"/>
      <point x="128" y="85.3333"/>
      <point x="128" y="42.6667"/>
      <point x="128" y="0" type="curve"/>
      <point x="85.3333" y="-0"/>
      <point x="42.6667" y="0"/>
      <point x="0" y="0" type="curve"/>
      <point x="0" y="192" type="line"/>
      <point x="64" y="192" type="line"/>
      <point x="64" y="234.667"/>
      <point x="64" y="277.333"/>
      <point x="64" y="320" type="curve"/>
      <point x="0" y="320" type="line"/>
      <point x="0" y="512" type="line"/>
      <point x="42.6667" y="512"/>
      <point x="85.3333" y="512"/>
      <point x="128" y="512" type="curve"/>
      <point x="128" y="469.333"/>
      <point x="128" y="426.667"/>
      <point x="128" y="384" type="curve"/>
      <point x="192" y="384" type="line"/>
      <point x="192" y="320" type="line"/>
      <point x="256" y="320" type="line"/>
      <point x="256" y="384" type="line"/>
      <point x="320" y="384" type="line"/>
      <point x="320" y="426.667"/>
      <point x="320" y="469.333"/>
      <point x="320" y="512" type="curve"/>
      <point x="362.667" y="512"/>
      <point x="405.333" y="512"/>
      <point x="448" y="512" type="curve"/>
      <point x="448" y="320" type="line"/>
      <point x="384" y="320" type="line"/>
      <point x="384" y="277.333"/>
      <point x="384" y="234.667"/>
      <point x="384" y="192" type="curve"/>
      <point x="448" y="192" type="line"/>
    </contour>
  </outline>
</glyph>
<glyph name="Y" format="2">
  <advance width="512"/>
  <unicode hex="0059"/>
  <outline>
    <contour>
      <point x="320" y="0" type="curve"/>
      <point x="128" y="0" type="line"/>
      <point x="128" y="85.3333"/>
      <point x="128" y="170.667"/>
      <point x="128" y="256" type="curve"/>
      <point x="64" y="256" type="line"/>
      <point x="64" y="298.667"/>
      <point x="64" y="341.333"/>
      <point x="64" y="384" type="curve"/>
      <point x="0" y="384" type="line"/>
      <point x="-0" y="426.667"/>
      <point x="0" y="469.333"/>
      <point x="0" y="512" type="curve"/>
      <point x="192" y="512" type="line"/>
      <point x="192" y="469.333"/>
      <point x="192" y="426.667"/>
      <point x="192" y="384" type="curve"/>
      <point x="234.667" y="384"/>
      <point x="277.333" y="384"/>
      <point x="320" y="384" type="curve"/>
      <point x="320" y="426.667"/>
      <point x="320" y="469.333"/>
      <point x="320" y="512" type="curve"/>
      <point x="362.667" y="512"/>
      <point x="405.333" y="512"/>
      <point x="448" y="512" type="curve"/>
      <point x="448" y="469.333"/>
      <point x="448" y="426.667"/>
      <point x="448" y="384" type="curve"/>
      <point x="384" y="384" type="line"/>
      <point x="384" y="341.333"/>
      <point x="384" y="298.667"/>
      <point x="384" y="256" type="curve"/>
      <point x="320" y="256" type="line"/>
      <point x="320" y="170.667"/>
      <point x="320" y="85.3333"/>
    </contour>
  </outline>
</glyph>
<glyph name="Z" format="2">
  <advance width="512"/>
  <unicode hex="005A"/>
  <outline>
    <contour>
      <point x="448" y="0" type="curve"/>
      <point x="0" y="0" type="line"/>
      <point x="-0" y="42.6667"/>
      <point x="0" y="85.3333"/>
      <point x="0" y="128" type="curve"/>
      <point x="64" y="128" type="line"/>
      <point x="64" y="192" type="line"/>
      <point x="128" y="192" type="line"/>
      <point x="128" y="256" type="line"/>
      <point x="192" y="256" type="line"/>
      <point x="192" y="320" type="line"/>
      <point x="256" y="320" type="line"/>
      <point x="256" y="384" type="line"/>
      <point x="64" y="384" type="line"/>
      <point x="64" y="426.667"/>
      <point x="64" y="469.333"/>
      <point x="64" y="512" type="curve"/>
      <point x="192" y="512"/>
      <point x="320" y="512"/>
      <point x="448" y="512" type="curve"/>
      <point x="448" y="320" type="line"/>
      <point x="384" y="320" type="line"/>
      <point x="384" y="256" type="line"/>
      <point x="320" y="256" type="line"/>
      <point x="320" y="192" type="line"/>
      <point x="256" y="192" type="line"/>
      <point x="256" y="128" type="line"/>
      <point x="448" y="128" type="line"/>
      <point x="448" y="85.3333"/>
      <point x="448" y="42.6667"/>
    </contour>
  </outline>
</glyph>
<glyph name="bracketleft" format="2">
  <advance width="320"/>
  <unicode hex="005B"/>
  <outline>
    <contour>
      <point x="256" y="0" type="line"/>
      <point x="170.667" y="-0"/>
      <point x="85.3333" y="0"/>
      <point x="0" y="0" type="curve"/>
      <point x="-0" y="170.667"/>
      <point x="0" y="341.333"/>
      <point x="0" y="512" type="curve"/>
      <point x="85.3333" y="512"/>
      <point x="170.667" y="512"/>
      <point x="256" y="512" type="curve"/>
      <point x="256" y="448" type="line"/>
      <point x="192" y="448" type="line"/>
      <point x="192" y="320"/>
      <point x="192" y="192"/>
      <point x="192" y="64" type="curve"/>
      <point x="256" y="64" type="line"/>
    </contour>
  </outline>
</glyph>
<glyph name="backslash" format="2">
  <advance width="384"/>
  <unicode hex="005C"/>
  <outline>
    <contour>
      <point x="320" y="0" type="line"/>
      <point x="128" y="0" type="line"/>
      <point x="128" y="192" type="line"/>
      <point x="64" y="192" type="line"/>
      <point x="64" y="234.667"/>
      <point x="64" y="277.333"/>
      <point x="64" y="320" type="curve"/>
      <point x="0" y="320" type="line"/>
      <point x="0" y="512" type="line"/>
      <point x="192" y="512" type="line"/>
      <point x="192" y="320" type="line"/>
      <point x="256" y="320" type="line"/>
      <point x="256" y="277.333"/>
      <point x="256" y="234.667"/>
      <point x="256" y="192" type="curve"/>
      <point x="320" y="192" type="line"/>
    </contour>
  </outline>
</glyph>
<glyph name="bracketright" format="2">
  <advance width="320"/>
  <unicode hex="005D"/>
  <outline>
    <contour>
      <point x="256" y="0" type="curve"/>
      <point x="170.667" y="-0"/>
      <point x="85.3333" y="0"/>
      <point x="0" y="0" type="curve"/>
      <point x="0" y="64" type="line"/>
      <point x="64" y="64" type="line"/>
      <point x="64" y="192"/>
      <point x="64" y="320"/>
      <point x="64" y="448" type="curve"/>
      <point x="0" y="448" type="line"/>
      <point x="0" y="512" type="line"/>
      <point x="85.3333" y="512"/>
      <point x="170.667" y="512"/>
      <point x="256" y="512" type="curve"/>
      <point x="256" y="341.333"/>
      <point x="256" y="170.667"/>
    </contour>
  </outline>
</glyph>
<glyph name="asciicircum" format="2">
  <advance width="448"/>
  <unicode hex="005E"/>
  <outline>
    <contour>
      <point x="384" y="320" type="line"/>
      <point x="341.333" y="320"/>
      <point x="298.667" y="320"/>
      <point x="256" y="320" type="curve"/>
      <point x="256" y="384" type="line"/>
      <point x="192" y="384" type="line"/>
      <point x="192" y="320" type="line"/>
      <point x="149.333" y="320"/>
      <point x="106.667" y="320"/>
      <point x="64" y="320" type="curve"/>
      <point x="64" y="384" type="line"/>
      <point x="128" y="384" type="line"/>
      <point x="128" y="448" type="line"/>
      <point x="192" y="448" type="line"/>
      <point x="192" y="512" type="line"/>
      <point x="256" y="512" type="line"/>
      <point x="256" y="448" type="line"/>
      <point x="320" y="448" type="line"/>
      <point x="320" y="384" type="line"/>
      <point x="384" y="384" type="line"/>
    </contour>
  </outline>
</glyph>
<glyph name="underscore" format="2">
  <advance width="512"/>
  <unicode hex="005F"/>
  <outline>
    <contour>
      <point x="448" y="0" type="curve"/>
      <point x="320" y="-0"/>
      <point x="192" y="0"/>
      <point x="64" y="0" type="curve"/>
      <point x="64" y="42.6667"/>
      <point x="64" y="85.3333"/>
      <point x="64" y="128" type="curve"/>
      <point x="192" y="128"/>
      <point x="320" y="128"/>
      <point x="448" y="128" type="curve"/>
      <point x="448" y="85.3333"/>
      <point x="448" y="42.6667"/>
    </contour>
  </outline>
</glyph>
<glyph name="grave" format="2">
  <advance width="384"/>
  <unicode hex="0060"/>
  <outline>
    <contour>
      <point x="320" y="320" type="line"/>
      <point x="277.333" y="320"/>
      <point x="234.667" y="320"/>
      <point x="192" y="320" type="curve"/>
      <point x="192" y="384" type="line"/>
      <point x="128" y="384" type="line"/>
      <point x="128" y="448" type="line"/>
      <point x="64" y="448" type="line"/>
      <point x="64" y="512" type="line"/>
      <point x="256" y="512" type="line"/>
      <point x="256" y="469.333"/>
      <point x="256" y="426.667"/>
      <point x="256" y="384" type="curve"/>
      <point x="320" y="384" type="line"/>
    </contour>
  </outline>
</glyph>
<glyph name="d" format="2">
  <advance width="448"/>
  <unicode hex="0064"/>
  <outline>
    <contour>
      <point x="384" y="0" type="line"/>
      <point x="64" y="0" type="line"/>
      <point x="64" y="64" type="line"/>
      <point x="0" y="64" type="line"/>
      <point x="0" y="256" type="line"/>
      <point x="64" y="256" type="line"/>
      <point x="64" y="320" type="line"/>
      <point x="106.667" y="320"/>
      <point x="149.333" y="320"/>
      <point x="192" y="320" type="curve"/>
      <point x="192" y="362.667"/>
      <point x="192" y="405.333"/>
      <point x="192" y="448" type="curve"/>
      <point x="384" y="448" type="line"/>
    </contour>
    <contour>
      <point x="192" y="64" type="line"/>
      <point x="192" y="256" type="line"/>
      <point x="128" y="256" type="line"/>
      <point x="128" y="64" type="line"/>
    </contour>
  </outline>
</glyph>
<glyph name="f" format="2">
  <advance width="448"/>
  <unicode hex="0066"/>
  <outline>
    <contour>
      <point x="256" y="0" type="line"/>
      <point x="64" y="0" type="line"/>
      <point x="64" y="192" type="line"/>
      <point x="0" y="192" type="line"/>
      <point x="0" y="256" type="line"/>
      <point x="64" y="256" type="line"/>
      <point x="64" y="298.667"/>
      <point x="64" y="341.333"/>
      <point x="64" y="384" type="curve"/>
      <point x="128" y="384" type="line"/>
      <point x="128" y="448" type="line"/>
      <point x="213.333" y="448"/>
      <point x="298.667" y="448"/>
      <point x="384" y="448" type="curve"/>
      <point x="384" y="384" type="line"/>
      <point x="341.333" y="384"/>
      <point x="298.667" y="384"/>
      <point x="256" y="384" type="curve"/>
      <point x="256" y="341.333"/>
      <point x="256" y="298.667"/>
      <point x="256" y="256" type="curve"/>
      <point x="320" y="256" type="line"/>
      <point x="320" y="192" type="line"/>
      <point x="256" y="192" type="line"/>
    </contour>
  </outline>
</glyph>
<glyph name="h" format="2">
  <advance width="448"/>
  <unicode hex="0068"/>
  <outline>
    <contour>
      <point x="384" y="0" type="line"/>
      <point x="256" y="0" type="line"/>
      <point x="256" y="256" type="line"/>
      <point x="192" y="256" type="line"/>
      <point x="192" y="0" type="line"/>
      <point x="0" y="0" type="line"/>
      <point x="0" y="448" type="line"/>
      <point x="192" y="448" type="line"/>
      <point x="192" y="320" type="line"/>
      <point x="320" y="320" type="line"/>
      <point x="320" y="256" type="line"/>
      <point x="384" y="256" type="line"/>
    </contour>
  </outline>
</glyph>
<glyph name="j" format="2">
  <advance width="384"/>
  <unicode hex="006A"/>
  <outline>
    <contour>
      <point x="256" y="0" type="line"/>
      <point x="170.667" y="-0"/>
      <point x="85.3333" y="0"/>
      <point x="0" y="0" type="curve"/>
      <point x="0" y="64" type="line"/>
      <point x="42.6667" y="64"/>
      <point x="85.3333" y="64"/>
      <point x="128" y="64" type="curve"/>
      <point x="128" y="256" type="line"/>
      <point x="320" y="256" type="line"/>
      <point x="320" y="64" type="line"/>
      <point x="256" y="64" type="line"/>
    </contour>
    <contour>
      <point x="128" y="384" type="line"/>
      <point x="320" y="384" type="line"/>
      <point x="320" y="320" type="line"/>
      <point x="128" y="320" type="line"/>
    </contour>
  </outline>
</glyph>
<glyph name="k" format="2">
  <advance width="512"/>
  <unicode hex="006B"/>
  <outline>
    <contour>
      <point x="448" y="0" type="line"/>
      <point x="320" y="0" type="line"/>
      <point x="320" y="64" type="line"/>
      <point x="256" y="64" type="line"/>
      <point x="256" y="128" type="line"/>
      <point x="192" y="128" type="line"/>
      <point x="192" y="0" type="line"/>
      <point x="0" y="0" type="line"/>
      <point x="0" y="448" type="line"/>
      <point x="192" y="448" type="line"/>
      <point x="192" y="192" type="line"/>
      <point x="256" y="192" type="line"/>
      <point x="256" y="256" type="line"/>
      <point x="320" y="256" type="line"/>
      <point x="320" y="320" type="line"/>
      <point x="448" y="320" type="line"/>
      <point x="448" y="256" type="line"/>
      <point x="384" y="256" type="line"/>
      <point x="384" y="192" type="line"/>
      <point x="320" y="192" type="line"/>
      <point x="320" y="128" type="line"/>
      <point x="448" y="128" type="line"/>
    </contour>
  </outline>
</glyph>
<glyph name="l" format="2">
  <advance width="384"/>
  <unicode hex="006C"/>
  <outline>
    <contour>
      <point x="192" y="64" type="curve"/>
      <point x="234.667" y="64"/>
      <point x="277.333" y="64"/>
      <point x="320" y="64" type="curve"/>
      <point x="320" y="0" type="line"/>
      <point x="234.667" y="-0"/>
      <point x="149.333" y="0"/>
      <point x="64" y="0" type="curve"/>
      <point x="64" y="64" type="line"/>
      <point x="0" y="64" type="line"/>
      <point x="-0" y="192"/>
      <point x="0" y="320"/>
      <point x="0" y="448" type="curve"/>
      <point x="192" y="448" type="line"/>
      <point x="192" y="320"/>
      <point x="192" y="192"/>
    </contour>
  </outline>
</glyph>
<glyph name="m" format="2">
  <advance width="512"/>
  <unicode hex="006D"/>
  <outline>
    <contour>
      <point x="192" y="192" type="line"/>
      <point x="192" y="256" type="line"/>
      <point x="128" y="256" type="line"/>
      <point x="128" y="170.667"/>
      <point x="128" y="85.3333"/>
      <point x="128" y="0" type="curve"/>
      <point x="85.3333" y="-0"/>
      <point x="42.6667" y="0"/>
      <point x="0" y="0" type="curve"/>
      <point x="-0" y="128"/>
      <point x="0" y="256"/>
      <point x="0" y="384" type="curve"/>
      <point x="192" y="384" type="line"/>
      <point x="192" y="320" type="line"/>
      <point x="256" y="320" type="line"/>
      <point x="256" y="384" type="line"/>
      <point x="298.667" y="384"/>
      <point x="341.333" y="384"/>
      <point x="384" y="384" type="curve"/>
      <point x="384" y="320" type="line"/>
      <point x="448" y="320" type="line"/>
      <point x="448" y="0" type="line"/>
      <point x="405.333" y="-0"/>
      <point x="362.667" y="0"/>
      <point x="320" y="0" type="curve"/>
      <point x="320" y="85.3333"/>
      <point x="320" y="170.667"/>
      <point x="320" y="256" type="curve"/>
      <point x="256" y="256" type="line"/>
      <point x="256" y="192" type="line"/>
    </contour>
  </outline>
</glyph>
<glyph name="p" format="2">
  <advance width="448"/>
  <unicode hex="0070"/>
  <outline>
    <contour>
      <point x="192" y="0" type="curve"/>
      <point x="0" y="0" type="line"/>
      <point x="-0" y="128"/>
      <point x="0" y="256"/>
      <point x="0" y="384" type="curve"/>
      <point x="320" y="384" type="line"/>
      <point x="320" y="320" type="line"/>
      <point x="384" y="320" type="line"/>
      <point x="384" y="277.333"/>
      <point x="384" y="234.667"/>
      <point x="384" y="192" type="curve"/>
      <point x="320" y="192" type="line"/>
      <point x="320" y="128" type="line"/>
      <point x="277.333" y="128"/>
      <point x="234.667" y="128"/>
      <point x="192" y="128" type="curve"/>
      <point x="192" y="85.3333"/>
      <point x="192" y="42.6667"/>
    </contour>
    <contour>
      <point x="256" y="192" type="line"/>
      <point x="256" y="234.667"/>
      <point x="256" y="277.333"/>
      <point x="256" y="320" type="curve"/>
      <point x="192" y="320" type="line"/>
      <point x="192" y="277.333"/>
      <point x="192" y="234.667"/>
      <point x="192" y="192" type="curve"/>
    </contour>
  </outline>
</glyph>
<glyph name="q" format="2">
  <advance width="448"/>
  <unicode hex="0071"/>
  <outline>
    <contour>
      <point x="384" y="0" type="curve"/>
      <point x="192" y="0" type="line"/>
      <point x="192" y="42.6667"/>
      <point x="192" y="85.3333"/>
      <point x="192" y="128" type="curve"/>
      <point x="149.333" y="128"/>
      <point x="106.667" y="128"/>
      <point x="64" y="128" type="curve"/>
      <point x="64" y="192" type="line"/>
      <point x="0" y="192" type="line"/>
      <point x="-0" y="234.667"/>
      <point x="0" y="277.333"/>
      <point x="0" y="320" type="curve"/>
      <point x="64" y="320" type="line"/>
      <point x="64" y="384" type="line"/>
      <point x="384" y="384" type="line"/>
      <point x="384" y="256"/>
      <point x="384" y="128"/>
    </contour>
    <contour>
      <point x="192" y="192" type="line"/>
      <point x="192" y="234.667"/>
      <point x="192" y="277.333"/>
      <point x="192" y="320" type="curve"/>
      <point x="128" y="320" type="line"/>
      <point x="128" y="277.333"/>
      <point x="128" y="234.667"/>
      <point x="128" y="192" type="curve"/>
    </contour>
  </outline>
</glyph>
<glyph name="r" format="2">
  <advance width="448"/>
  <unicode hex="0072"/>
  <outline>
    <contour>
      <point x="192" y="0" type="line"/>
      <point x="0" y="0" type="line"/>
      <point x="0" y="384" type="line"/>
      <point x="320" y="384" type="line"/>
      <point x="320" y="320" type="line"/>
      <point x="384" y="320" type="line"/>
      <point x="384" y="256" type="line"/>
      <point x="256" y="256" type="line"/>
      <point x="256" y="320" type="line"/>
      <point x="192" y="320" type="line"/>
    </contour>
  </outline>
</glyph>
<glyph name="s" format="2">
  <advance width="448"/>
  <unicode hex="0073"/>
  <outline>
    <contour>
      <point x="320" y="0" type="line"/>
      <point x="0" y="0" type="line"/>
      <point x="0" y="64" type="line"/>
      <point x="192" y="64" type="line"/>
      <point x="192" y="128" type="line"/>
      <point x="149.333" y="128"/>
      <point x="106.667" y="128"/>
      <point x="64" y="128" type="curve"/>
      <point x="64" y="192" type="line"/>
      <point x="0" y="192" type="line"/>
      <point x="-0" y="234.667"/>
      <point x="0" y="277.333"/>
      <point x="0" y="320" type="curve"/>
      <point x="64" y="320" type="line"/>
      <point x="64" y="384" type="line"/>
      <point x="149.333" y="384"/>
      <point x="234.667" y="384"/>
      <point x="320" y="384" type="curve"/>
      <point x="320" y="320" type="line"/>
      <point x="277.333" y="320"/>
      <point x="234.667" y="320"/>
      <point x="192" y="320" type="curve"/>
      <point x="192" y="256" type="line"/>
      <point x="234.667" y="256"/>
      <point x="277.333" y="256"/>
      <point x="320" y="256" type="curve"/>
      <point x="320" y="192" type="line"/>
      <point x="384" y="192" type="line"/>
      <point x="384" y="149.333"/>
      <point x="384" y="106.667"/>
      <point x="384" y="64" type="curve"/>
      <point x="320" y="64" type="line"/>
    </contour>
  </outline>
</glyph>
<glyph name="u" format="2">
  <advance width="448"/>
  <unicode hex="0075"/>
  <outline>
    <contour>
      <point x="384" y="0" type="curve"/>
      <point x="64" y="0" type="line"/>
      <point x="64" y="64" type="line"/>
      <point x="0" y="64" type="line"/>
      <point x="0" y="384" type="line"/>
      <point x="192" y="384" type="line"/>
      <point x="192" y="64" type="line"/>
      <point x="256" y="64" type="line"/>
      <point x="256" y="384" type="line"/>
      <point x="298.667" y="384"/>
      <point x="341.333" y="384"/>
      <point x="384" y="384" type="curve"/>
      <point x="384" y="256"/>
      <point x="384" y="128"/>
    </contour>
  </outline>
</glyph>
<glyph name="v" format="2">
  <advance width="448"/>
  <unicode hex="0076"/>
  <outline>
    <contour>
      <point x="256" y="0" type="line"/>
      <point x="213.333" y="-0"/>
      <point x="170.667" y="0"/>
      <point x="128" y="0" type="curve"/>
      <point x="128" y="64" type="line"/>
      <point x="64" y="64" type="line"/>
      <point x="64" y="106.667"/>
      <point x="64" y="149.333"/>
      <point x="64" y="192" type="curve"/>
      <point x="0" y="192" type="line"/>
      <point x="0" y="384" type="line"/>
      <point x="192" y="384" type="line"/>
      <point x="192" y="192" type="line"/>
      <point x="256" y="192" type="line"/>
      <point x="256" y="384" type="line"/>
      <point x="298.667" y="384"/>
      <point x="341.333" y="384"/>
      <point x="384" y="384" type="curve"/>
      <point x="384" y="192" type="line"/>
      <point x="320" y="192" type="line"/>
      <point x="320" y="149.333"/>
      <point x="320" y="106.667"/>
      <point x="320" y="64" type="curve"/>
      <point x="256" y="64" type="line"/>
    </contour>
  </outline>
</glyph>
<glyph name="x" format="2">
  <advance width="512"/>
  <unicode hex="0078"/>
  <outline>
    <contour>
      <point x="448" y="0" type="line"/>
      <point x="405.333" y="-0"/>
      <point x="362.667" y="0"/>
      <point x="320" y="0" type="curve"/>
      <point x="320" y="64" type="line"/>
      <point x="256" y="64" type="line"/>
      <point x="256" y="128" type="line"/>
      <point x="192" y="128" type="line"/>
      <point x="192" y="64" type="line"/>
      <point x="128" y="64" type="line"/>
      <point x="128" y="0" type="line"/>
      <point x="85.3333" y="-0"/>
      <point x="42.6667" y="0"/>
      <point x="0" y="0" type="curve"/>
      <point x="0" y="64" type="line"/>
      <point x="64" y="64" type="line"/>
      <point x="64" y="128" type="line"/>
      <point x="128" y="128" type="line"/>
      <point x="128" y="170.667"/>
      <point x="128" y="213.333"/>
      <point x="128" y="256" type="curve"/>
      <point x="64" y="256" type="line"/>
      <point x="64" y="320" type="line"/>
      <point x="0" y="320" type="line"/>
      <point x="0" y="384" type="line"/>
      <point x="42.6667" y="384"/>
      <point x="85.3333" y="384"/>
      <point x="128" y="384" type="curve"/>
      <point x="128" y="320" type="line"/>
      <point x="192" y="320" type="line"/>
      <point x="192" y="256" type="line"/>
      <point x="256" y="256" type="line"/>
      <point x="256" y="320" type="line"/>
      <point x="320" y="320" type="line"/>
      <point x="320" y="384" type="line"/>
      <point x="362.667" y="384"/>
      <point x="405.333" y="384"/>
      <point x="448" y="384" type="curve"/>
      <point x="448" y="320" type="line"/>
      <point x="384" y="320" type="line"/>
      <point x="384" y="256" type="line"/>
      <point x="320" y="256" type="line"/>
      <point x="320" y="213.333"/>
      <point x="320" y="170.667"/>
      <point x="320" y="128" type="curve"/>
      <point x="384" y="128" type="line"/>
      <point x="384" y="64" type="line"/>
      <point x="448" y="64" type="line"/>
    </contour>
  </outline>
</glyph>
<glyph name="bar" format="2">
  <advance width="384"/>
  <unicode hex="007C"/>
  <outline>
    <contour>
      <point x="320" y="0" type="curve"/>
      <point x="128" y="0" type="line"/>
      <point x="128" y="170.667"/>
      <point x="128" y="341.333"/>
      <point x="128" y="512" type="curve"/>
      <point x="320" y="512" type="line"/>
      <point x="320" y="341.333"/>
      <point x="320" y="170.667"/>
    </contour>
  </outline>
</glyph>
<glyph name="asciitilde" format="2">
  <advance width="512"/>
  <unicode hex="007E"/>
  <outline>
    <contour>
      <point x="384" y="192" type="line"/>
      <point x="192" y="192" type="line"/>
      <point x="192" y="256" type="line"/>
      <point x="128" y="256" type="line"/>
      <point x="128" y="192" type="line"/>
      <point x="85.3333" y="192"/>
      <point x="42.6667" y="192"/>
      <point x="0" y="192" type="curve"/>
      <point x="0" y="256" type="line"/>
      <point x="64" y="256" type="line"/>
      <point x="64" y="320" type="line"/>
      <point x="256" y="320" type="line"/>
      <point x="256" y="256" type="line"/>
      <point x="320" y="256" type="line"/>
      <point x="320" y="320" type="line"/>
      <point x="362.667" y="320"/>
      <point x="405.333" y="320"/>
      <point x="448" y="320" type="curve"/>
      <point x="448" y="256" type="line"/>
      <point x="384" y="256" type="line"/>
    </contour>
  </outline>
</glyph>
<glyph name="exclamdown" format="2">
  <advance width="256"/>
  <unicode hex="00A1"/>
  <outline>
    <contour>
      <point x="192" y="0" type="line"/>
      <point x="0" y="0" type="line"/>
      <point x="0" y="320" type="line"/>
      <point x="192" y="320" type="line"/>
    </contour>
    <contour>
      <point x="192" y="384" type="curve"/>
      <point x="0" y="384" type="line"/>
      <point x="-0" y="426.667"/>
      <point x="0" y="469.333"/>
      <point x="0" y="512" type="curve"/>
      <point x="192" y="512" type="line"/>
      <point x="192" y="469.333"/>
      <point x="192" y="426.667"/>
    </contour>
  </outline>
</glyph>
<glyph name="acute" format="2">
  <advance width="320"/>
  <unicode hex="00B4"/>
  <outline>
    <contour>
      <point x="128" y="320" type="line"/>
      <point x="85.3333" y="320"/>
      <point x="42.6667" y="320"/>
      <point x="0" y="320" type="curve"/>
      <point x="0" y="384" type="line"/>
      <point x="64" y="384" type="line"/>
      <point x="64" y="426.667"/>
      <point x="64" y="469.333"/>
      <point x="64" y="512" type="curve"/>
      <point x="256" y="512" type="line"/>
      <point x="256" y="448" type="line"/>
      <point x="192" y="448" type="line"/>
      <point x="192" y="384" type="line"/>
      <point x="128" y="384" type="line"/>
    </contour>
  </outline>
</glyph>
<glyph name="periodcentered" format="2">
  <advance width="320"/>
  <unicode hex="00B7"/>
  <outline>
    <contour>
      <point x="256" y="128" type="curve"/>
      <point x="213.333" y="128"/>
      <point x="170.667" y="128"/>
      <point x="128" y="128" type="curve"/>
      <point x="128" y="170.667"/>
      <point x="128" y="213.333"/>
      <point x="128" y="256" type="curve"/>
      <point x="170.667" y="256"/>
      <point x="213.333" y="256"/>
      <point x="256" y="256" type="curve"/>
      <point x="256" y="213.333"/>
      <point x="256" y="170.667"/>
    </contour>
  </outline>
</glyph>
<glyph name="Adieresis" format="2">
  <advance width="512"/>
  <unicode hex="00C4"/>
  <outline>
    <contour>
      <point x="448" y="0" type="curve"/>
      <point x="405.333" y="-0"/>
      <point x="362.667" y="0"/>
      <point x="320" y="0" type="curve"/>
      <point x="320" y="42.6667"/>
      <point x="320" y="85.3333"/>
      <point x="320" y="128" type="curve"/>
      <point x="128" y="128" type="line"/>
      <point x="128" y="85.3333"/>
      <point x="128" y="42.6667"/>
      <point x="128" y="0" type="curve"/>
      <point x="85.3333" y="-0"/>
      <point x="42.6667" y="0"/>
      <point x="0" y="0" type="curve"/>
      <point x="-0" y="85.3333"/>
      <point x="0" y="170.667"/>
      <point x="0" y="256" type="curve"/>
      <point x="64" y="256" type="line"/>
      <point x="64" y="298.667"/>
      <point x="64" y="341.333"/>
      <point x="64" y="384" type="curve"/>
      <point x="128" y="384" type="line"/>
      <point x="128" y="426.667"/>
      <point x="128" y="469.333"/>
      <point x="128" y="512" type="curve"/>
      <point x="320" y="512" type="line"/>
      <point x="320" y="469.333"/>
      <point x="320" y="426.667"/>
      <point x="320" y="384" type="curve"/>
      <point x="384" y="384" type="line"/>
      <point x="384" y="341.333"/>
      <point x="384" y="298.667"/>
      <point x="384" y="256" type="curve"/>
      <point x="448" y="256" type="line"/>
      <point x="448" y="170.667"/>
      <point x="448" y="85.3333"/>
    </contour>
    <contour>
      <point x="256" y="256" type="line"/>
      <point x="256" y="298.667"/>
      <point x="256" y="341.333"/>
      <point x="256" y="384" type="curve"/>
      <point x="192" y="384" type="line"/>
      <point x="192" y="341.333"/>
      <point x="192" y="298.667"/>
      <point x="192" y="256" type="curve"/>
    </contour>
    <contour>
      <point x="384" y="576" type="curve"/>
      <point x="341.333" y="576"/>
      <point x="298.667" y="576"/>
      <point x="256" y="576" type="curve"/>
      <point x="256" y="618.667"/>
      <point x="256" y="661.333"/>
      <point x="256" y="704" type="curve"/>
      <point x="298.667" y="704"/>
      <point x="341.333" y="704"/>
      <point x="384" y="704" type="curve"/>
      <point x="384" y="661.333"/>
      <point x="384" y="618.667"/>
    </contour>
    <contour>
      <point x="192" y="576" type="curve"/>
      <point x="149.333" y="576"/>
      <point x="106.667" y="576"/>
      <point x="64" y="576" type="curve"/>
      <point x="64" y="618.667"/>
      <point x="64" y="661.333"/>
      <point x="64" y="704" type="curve"/>
      <point x="106.667" y="704"/>
      <point x="149.333" y="704"/>
      <point x="192" y="704" type="curve"/>
      <point x="192" y="661.333"/>
      <point x="192" y="618.667"/>
    </contour>
  </outline>
</glyph>
<glyph name="Aring" format="2">
  <advance width="512"/>
  <unicode hex="00C5"/>
  <outline>
    <contour>
      <point x="448" y="0" type="curve"/>
      <point x="405.333" y="-0"/>
      <point x="362.667" y="0"/>
      <point x="320" y="0" type="curve"/>
      <point x="320" y="42.6667"/>
      <point x="320" y="85.3333"/>
      <point x="320" y="128" type="curve"/>
      <point x="128" y="128" type="line"/>
      <point x="128" y="85.3333"/>
      <point x="128" y="42.6667"/>
      <point x="128" y="0" type="curve"/>
      <point x="85.3333" y="-0"/>
      <point x="42.6667" y="0"/>
      <point x="0" y="0" type="curve"/>
      <point x="-0" y="85.3333"/>
      <point x="0" y="170.667"/>
      <point x="0" y="256" type="curve"/>
      <point x="64" y="256" type="line"/>
      <point x="64" y="298.667"/>
      <point x="64" y="341.333"/>
      <point x="64" y="384" type="curve"/>
      <point x="128" y="384" type="line"/>
      <point x="128" y="469.333"/>
      <point x="128" y="554.667"/>
      <point x="128" y="640" type="curve"/>
      <point x="320" y="640" type="line"/>
      <point x="320" y="554.667"/>
      <point x="320" y="469.333"/>
      <point x="320" y="384" type="curve"/>
      <point x="384" y="384" type="line"/>
      <point x="384" y="341.333"/>
      <point x="384" y="298.667"/>
      <point x="384" y="256" type="curve"/>
      <point x="448" y="256" type="line"/>
      <point x="448" y="170.667"/>
      <point x="448" y="85.3333"/>
    </contour>
    <contour>
      <point x="256" y="256" type="line"/>
      <point x="256" y="298.667"/>
      <point x="256" y="341.333"/>
      <point x="256" y="384" type="curve"/>
      <point x="192" y="384" type="line"/>
      <point x="192" y="341.333"/>
      <point x="192" y="298.667"/>
      <point x="192" y="256" type="curve"/>
    </contour>
    <contour>
      <point x="256" y="512" type="line"/>
      <point x="256" y="576" type="line"/>
      <point x="192" y="576" type="line"/>
      <point x="192" y="512" type="line"/>
    </contour>
  </outline>
</glyph>
<glyph name="AE" format="2">
  <advance width="576"/>
  <unicode hex="00C6"/>
  <outline>
    <contour>
      <point x="512" y="0" type="curve"/>
      <point x="426.667" y="-0"/>
      <point x="341.333" y="0"/>
      <point x="256" y="0" type="curve"/>
      <point x="256" y="42.6667"/>
      <point x="256" y="85.3333"/>
      <point x="256" y="128" type="curve"/>
      <point x="213.333" y="128"/>
      <point x="170.667" y="128"/>
      <point x="128" y="128" type="curve"/>
      <point x="128" y="85.3333"/>
      <point x="128" y="42.6667"/>
      <point x="128" y="0" type="curve"/>
      <point x="85.3333" y="-0"/>
      <point x="42.6667" y="0"/>
      <point x="0" y="0" type="curve"/>
      <point x="-0" y="85.3333"/>
      <point x="0" y="170.667"/>
      <point x="0" y="256" type="curve"/>
      <point x="64" y="256" type="line"/>
      <point x="64" y="298.667"/>
      <point x="64" y="341.333"/>
      <point x="64" y="384" type="curve"/>
      <point x="128" y="384" type="line"/>
      <point x="128" y="426.667"/>
      <point x="128" y="469.333"/>
      <point x="128" y="512" type="curve"/>
      <point x="256" y="512"/>
      <point x="384" y="512"/>
      <point x="512" y="512" type="curve"/>
      <point x="512" y="469.333"/>
      <point x="512" y="426.667"/>
      <point x="512" y="384" type="curve"/>
      <point x="469.333" y="384"/>
      <point x="426.667" y="384"/>
      <point x="384" y="384" type="curve"/>
      <point x="384" y="320" type="line"/>
      <point x="448" y="320" type="line"/>
      <point x="448" y="277.333"/>
      <point x="448" y="234.667"/>
      <point x="448" y="192" type="curve"/>
      <point x="384" y="192" type="line"/>
      <point x="384" y="128" type="line"/>
      <point x="426.667" y="128"/>
      <point x="469.333" y="128"/>
      <point x="512" y="128" type="curve"/>
      <point x="512" y="85.3333"/>
      <point x="512" y="42.6667"/>
    </contour>
    <contour>
      <point x="256" y="256" type="line"/>
      <point x="256" y="298.667"/>
      <point x="256" y="341.333"/>
      <point x="256" y="384" type="curve"/>
      <point x="192" y="384" type="line"/>
      <point x="192" y="341.333"/>
      <point x="192" y="298.667"/>
      <point x="192" y="256" type="curve"/>
    </contour>
  </outline>
</glyph>
<glyph name="Ccedilla" format="2">
  <advance width="448"/>
  <unicode hex="00C7"/>
  <outline>
    <contour>
      <point x="320" y="-192" type="curve"/>
      <point x="128" y="-192" type="line"/>
      <point x="128" y="-128" type="line"/>
      <point x="170.667" y="-128"/>
      <point x="213.333" y="-128"/>
      <point x="256" y="-128" type="curve"/>
      <point x="256" y="-64" type="line"/>
      <point x="320" y="-64" type="line"/>
      <point x="320" y="-106.667"/>
      <point x="320" y="-149.333"/>
    </contour>
    <contour>
      <point x="128" y="-128" type="line"/>
      <point x="64" y="-128" type="line"/>
      <point x="64" y="-64" type="line"/>
      <point x="128" y="-64" type="line"/>
    </contour>
    <contour>
      <point x="256" y="-64" type="line"/>
      <point x="192" y="-64" type="line"/>
      <point x="192" y="0" type="line"/>
      <point x="149.333" y="-0"/>
      <point x="106.667" y="0"/>
      <point x="64" y="0" type="curve"/>
      <point x="64" y="64" type="line"/>
      <point x="0" y="64" type="line"/>
      <point x="-0" y="192"/>
      <point x="0" y="320"/>
      <point x="0" y="448" type="curve"/>
      <point x="64" y="448" type="line"/>
      <point x="64" y="512" type="line"/>
      <point x="149.333" y="512"/>
      <point x="234.667" y="512"/>
      <point x="320" y="512" type="curve"/>
      <point x="320" y="448" type="line"/>
      <point x="384" y="448" type="line"/>
      <point x="384" y="405.333"/>
      <point x="384" y="362.667"/>
      <point x="384" y="320" type="curve"/>
      <point x="341.333" y="320"/>
      <point x="298.667" y="320"/>
      <point x="256" y="320" type="curve"/>
      <point x="256" y="384" type="line"/>
      <point x="192" y="384" type="line"/>
      <point x="192" y="298.667"/>
      <point x="192" y="213.333"/>
      <point x="192" y="128" type="curve"/>
      <point x="256" y="128" type="line"/>
      <point x="256" y="192" type="line"/>
      <point x="298.667" y="192"/>
      <point x="341.333" y="192"/>
      <point x="384" y="192" type="curve"/>
      <point x="384" y="149.333"/>
      <point x="384" y="106.667"/>
      <point x="384" y="64" type="curve"/>
      <point x="320" y="64" type="line"/>
      <point x="320" y="0" type="line"/>
      <point x="256" y="0" type="line"/>
    </contour>
  </outline>
</glyph>
<glyph name="Ecircumflex" format="2">
  <advance width="448"/>
  <unicode hex="00CA"/>
  <outline>
    <contour>
      <point x="384" y="0" type="curve"/>
      <point x="256" y="-0"/>
      <point x="128" y="0"/>
      <point x="0" y="0" type="curve"/>
      <point x="-0" y="170.667"/>
      <point x="0" y="341.333"/>
      <point x="0" y="512" type="curve"/>
      <point x="128" y="512"/>
      <point x="256" y="512"/>
      <point x="384" y="512" type="curve"/>
      <point x="384" y="469.333"/>
      <point x="384" y="426.667"/>
      <point x="384" y="384" type="curve"/>
      <point x="192" y="384" type="line"/>
      <point x="192" y="320" type="line"/>
      <point x="256" y="320" type="line"/>
      <point x="256" y="277.333"/>
      <point x="256" y="234.667"/>
      <point x="256" y="192" type="curve"/>
      <point x="192" y="192" type="line"/>
      <point x="192" y="128" type="line"/>
      <point x="384" y="128" type="line"/>
      <point x="384" y="85.3333"/>
      <point x="384" y="42.6667"/>
    </contour>
    <contour>
      <point x="384" y="576" type="line"/>
      <point x="341.333" y="576"/>
      <point x="298.667" y="576"/>
      <point x="256" y="576" type="curve"/>
      <point x="256" y="640" type="line"/>
      <point x="192" y="640" type="line"/>
      <point x="192" y="576" type="line"/>
      <point x="149.333" y="576"/>
      <point x="106.667" y="576"/>
      <point x="64" y="576" type="curve"/>
      <point x="64" y="640" type="line"/>
      <point x="128" y="640" type="line"/>
      <point x="128" y="704" type="line"/>
      <point x="192" y="704" type="line"/>
      <point x="192" y="768" type="line"/>
      <point x="256" y="768" type="line"/>
      <point x="256" y="704" type="line"/>
      <point x="320" y="704" type="line"/>
      <point x="320" y="640" type="line"/>
      <point x="384" y="640" type="line"/>
    </contour>
  </outline>
</glyph>
<glyph name="Edieresis" format="2">
  <advance width="448"/>
  <unicode hex="00CB"/>
  <outline>
    <contour>
      <point x="384" y="0" type="curve"/>
      <point x="256" y="-0"/>
      <point x="128" y="0"/>
      <point x="0" y="0" type="curve"/>
      <point x="-0" y="170.667"/>
      <point x="0" y="341.333"/>
      <point x="0" y="512" type="curve"/>
      <point x="128" y="512"/>
      <point x="256" y="512"/>
      <point x="384" y="512" type="curve"/>
      <point x="384" y="469.333"/>
      <point x="384" y="426.667"/>
      <point x="384" y="384" type="curve"/>
      <point x="192" y="384" type="line"/>
      <point x="192" y="320" type="line"/>
      <point x="256" y="320" type="line"/>
      <point x="256" y="277.333"/>
      <point x="256" y="234.667"/>
      <point x="256" y="192" type="curve"/>
      <point x="192" y="192" type="line"/>
      <point x="192" y="128" type="line"/>
      <point x="384" y="128" type="line"/>
      <point x="384" y="85.3333"/>
      <point x="384" y="42.6667"/>
    </contour>
    <contour>
      <point x="384" y="576" type="curve"/>
      <point x="341.333" y="576"/>
      <point x="298.667" y="576"/>
      <point x="256" y="576" type="curve"/>
      <point x="256" y="618.667"/>
      <point x="256" y="661.333"/>
      <point x="256" y="704" type="curve"/>
      <point x="298.667" y="704"/>
      <point x="341.333" y="704"/>
      <point x="384" y="704" type="curve"/>
      <point x="384" y="661.333"/>
      <point x="384" y="618.667"/>
    </contour>
    <contour>
      <point x="192" y="576" type="curve"/>
      <point x="149.333" y="576"/>
      <point x="106.667" y="576"/>
      <point x="64" y="576" type="curve"/>
      <point x="64" y="618.667"/>
      <point x="64" y="661.333"/>
      <point x="64" y="704" type="curve"/>
      <point x="106.667" y="704"/>
      <point x="149.333" y="704"/>
      <point x="192" y="704" type="curve"/>
      <point x="192" y="661.333"/>
      <point x="192" y="618.667"/>
    </contour>
  </outline>
</glyph>
<glyph name="Igrave" format="2">
  <advance width="256"/>
  <unicode hex="00CC"/>
  <outline>
    <contour>
      <point x="192" y="0" type="curve"/>
      <point x="0" y="0" type="line"/>
      <point x="-0" y="170.667"/>
      <point x="0" y="341.333"/>
      <point x="0" y="512" type="curve"/>
      <point x="192" y="512" type="line"/>
      <point x="192" y="341.333"/>
      <point x="192" y="170.667"/>
    </contour>
    <contour>
      <point x="192" y="576" type="line"/>
      <point x="149.333" y="576"/>
      <point x="106.667" y="576"/>
      <point x="64" y="576" type="curve"/>
      <point x="64" y="640" type="line"/>
      <point x="0" y="640" type="line"/>
      <point x="0" y="704" type="line"/>
      <point x="-64" y="704" type="line"/>
      <point x="-64" y="768" type="line"/>
      <point x="128" y="768" type="line"/>
      <point x="128" y="725.333"/>
      <point x="128" y="682.667"/>
      <point x="128" y="640" type="curve"/>
      <point x="192" y="640" type="line"/>
    </contour>
  </outline>
</glyph>
<glyph name="Icircumflex" format="2">
  <advance width="320"/>
  <unicode hex="00CE"/>
  <outline>
    <contour>
      <point x="192" y="0" type="curve"/>
      <point x="0" y="0" type="line"/>
      <point x="-0" y="170.667"/>
      <point x="0" y="341.333"/>
      <point x="0" y="512" type="curve"/>
      <point x="192" y="512" type="line"/>
      <point x="192" y="341.333"/>
      <point x="192" y="170.667"/>
    </contour>
    <contour>
      <point x="256" y="576" type="line"/>
      <point x="213.333" y="576"/>
      <point x="170.667" y="576"/>
      <point x="128" y="576" type="curve"/>
      <point x="128" y="640" type="line"/>
      <point x="64" y="640" type="line"/>
      <point x="64" y="576" type="line"/>
      <point x="21.3333" y="576"/>
      <point x="-21.3333" y="576"/>
      <point x="-64" y="576" type="curve"/>
      <point x="-64" y="640" type="line"/>
      <point x="0" y="640" type="line"/>
      <point x="0" y="704" type="line"/>
      <point x="64" y="704" type="line"/>
      <point x="64" y="768" type="line"/>
      <point x="128" y="768" type="line"/>
      <point x="128" y="704" type="line"/>
      <point x="192" y="704" type="line"/>
      <point x="192" y="640" type="line"/>
      <point x="256" y="640" type="line"/>
    </contour>
  </outline>
</glyph>
<glyph name="Idieresis" format="2">
  <advance width="320"/>
  <unicode hex="00CF"/>
  <outline>
    <contour>
      <point x="192" y="0" type="curve"/>
      <point x="0" y="0" type="line"/>
      <point x="-0" y="170.667"/>
      <point x="0" y="341.333"/>
      <point x="0" y="512" type="curve"/>
      <point x="192" y="512" type="line"/>
      <point x="192" y="341.333"/>
      <point x="192" y="170.667"/>
    </contour>
    <contour>
      <point x="256" y="576" type="curve"/>
      <point x="213.333" y="576"/>
      <point x="170.667" y="576"/>
      <point x="128" y="576" type="curve"/>
      <point x="128" y="618.667"/>
      <point x="128" y="661.333"/>
      <point x="128" y="704" type="curve"/>
      <point x="170.667" y="704"/>
      <point x="213.333" y="704"/>
      <point x="256" y="704" type="curve"/>
      <point x="256" y="661.333"/>
      <point x="256" y="618.667"/>
    </contour>
    <contour>
      <point x="64" y="576" type="curve"/>
      <point x="21.3333" y="576"/>
      <point x="-21.3333" y="576"/>
      <point x="-64" y="576" type="curve"/>
      <point x="-64" y="618.667"/>
      <point x="-64" y="661.333"/>
      <point x="-64" y="704" type="curve"/>
      <point x="-21.3333" y="704"/>
      <point x="21.3333" y="704"/>
      <point x="64" y="704" type="curve"/>
      <point x="64" y="661.333"/>
      <point x="64" y="618.667"/>
    </contour>
  </outline>
</glyph>
<glyph name="Eth" format="2">
  <advance width="576"/>
  <unicode hex="00D0"/>
  <outline>
    <contour>
      <point x="448" y="0" type="line"/>
      <point x="0" y="0" type="line"/>
      <point x="0" y="192" type="line"/>
      <point x="-64" y="192" type="line"/>
      <point x="-64" y="234.667"/>
      <point x="-64" y="277.333"/>
      <point x="-64" y="320" type="curve"/>
      <point x="0" y="320" type="line"/>
      <point x="0" y="512" type="line"/>
      <point x="448" y="512" type="line"/>
      <point x="448" y="448" type="line"/>
      <point x="512" y="448" type="line"/>
      <point x="512" y="320"/>
      <point x="512" y="192"/>
      <point x="512" y="64" type="curve"/>
      <point x="448" y="64" type="line"/>
    </contour>
    <contour>
      <point x="192" y="128" type="line"/>
      <point x="234.667" y="128"/>
      <point x="277.333" y="128"/>
      <point x="320" y="128" type="curve"/>
      <point x="320" y="213.333"/>
      <point x="320" y="298.667"/>
      <point x="320" y="384" type="curve"/>
      <point x="277.333" y="384"/>
      <point x="234.667" y="384"/>
      <point x="192" y="384" type="curve"/>
      <point x="192" y="320" type="line"/>
      <point x="256" y="320" type="line"/>
      <point x="256" y="277.333"/>
      <point x="256" y="234.667"/>
      <point x="256" y="192" type="curve"/>
      <point x="192" y="192" type="line"/>
    </contour>
  </outline>
</glyph>
<glyph name="Ntilde" format="2">
  <advance width="512"/>
  <unicode hex="00D1"/>
  <outline>
    <contour>
      <point x="64" y="576" type="line"/>
      <point x="64" y="618.667"/>
      <point x="64" y="661.333"/>
      <point x="64" y="704" type="curve"/>
      <point x="256" y="704" type="line"/>
      <point x="256" y="640" type="line"/>
      <point x="320" y="640" type="line"/>
      <point x="320" y="704" type="line"/>
      <point x="384" y="704" type="line"/>
      <point x="384" y="661.333"/>
      <point x="384" y="618.667"/>
      <point x="384" y="576" type="curve"/>
      <point x="192" y="576" type="line"/>
      <point x="192" y="640" type="line"/>
      <point x="128" y="640" type="line"/>
      <point x="128" y="576" type="line"/>
    </contour>
    <contour>
      <point x="448" y="0" type="curve"/>
      <point x="405.333" y="-0"/>
      <point x="362.667" y="0"/>
      <point x="320" y="0" type="curve"/>
      <point x="320" y="64" type="line"/>
      <point x="256" y="64" type="line"/>
      <point x="256" y="128" type="line"/>
      <point x="192" y="128" type="line"/>
      <point x="192" y="192" type="line"/>
      <point x="128" y="192" type="line"/>
      <point x="128" y="0" type="line"/>
      <point x="85.3333" y="-0"/>
      <point x="42.6667" y="0"/>
      <point x="0" y="0" type="curve"/>
      <point x="-0" y="170.667"/>
      <point x="0" y="341.333"/>
      <point x="0" y="512" type="curve"/>
      <point x="42.6667" y="512"/>
      <point x="85.3333" y="512"/>
      <point x="128" y="512" type="curve"/>
      <point x="128" y="448" type="line"/>
      <point x="192" y="448" type="line"/>
      <point x="192" y="384" type="line"/>
      <point x="256" y="384" type="line"/>
      <point x="256" y="320" type="line"/>
      <point x="320" y="320" type="line"/>
      <point x="320" y="512" type="line"/>
      <point x="362.667" y="512"/>
      <point x="405.333" y="512"/>
      <point x="448" y="512" type="curve"/>
      <point x="448" y="341.333"/>
      <point x="448" y="170.667"/>
    </contour>
  </outline>
</glyph>
<glyph name="Oacute" format="2">
  <advance width="448"/>
  <unicode hex="00D3"/>
  <outline>
    <contour>
      <point x="320" y="0" type="line"/>
      <point x="234.667" y="-0"/>
      <point x="149.333" y="0"/>
      <point x="64" y="0" type="curve"/>
      <point x="64" y="64" type="line"/>
      <point x="0" y="64" type="line"/>
      <point x="-0" y="192"/>
      <point x="0" y="320"/>
      <point x="0" y="448" type="curve"/>
      <point x="64" y="448" type="line"/>
      <point x="64" y="512" type="line"/>
      <point x="149.333" y="512"/>
      <point x="234.667" y="512"/>
      <point x="320" y="512" type="curve"/>
      <point x="320" y="448" type="line"/>
      <point x="384" y="448" type="line"/>
      <point x="384" y="320"/>
      <point x="384" y="192"/>
      <point x="384" y="64" type="curve"/>
      <point x="320" y="64" type="line"/>
    </contour>
    <contour>
      <point x="256" y="128" type="line"/>
      <point x="256" y="213.333"/>
      <point x="256" y="298.667"/>
      <point x="256" y="384" type="curve"/>
      <point x="192" y="384" type="line"/>
      <point x="192" y="298.667"/>
      <point x="192" y="213.333"/>
      <point x="192" y="128" type="curve"/>
    </contour>
    <contour>
      <point x="256" y="576" type="line"/>
      <point x="213.333" y="576"/>
      <point x="170.667" y="576"/>
      <point x="128" y="576" type="curve"/>
      <point x="128" y="640" type="line"/>
      <point x="192" y="640" type="line"/>
      <point x="192" y="682.667"/>
      <point x="192" y="725.333"/>
      <point x="192" y="768" type="curve"/>
      <point x="384" y="768" type="line"/>
      <point x="384" y="704" type="line"/>
      <point x="320" y="704" type="line"/>
      <point x="320" y="640" type="line"/>
      <point x="256" y="640" type="line"/>
    </contour>
  </outline>
</glyph>
<glyph name="Odieresis" format="2">
  <advance width="448"/>
  <unicode hex="00D6"/>
  <outline>
    <contour>
      <point x="320" y="0" type="line"/>
      <point x="234.667" y="-0"/>
      <point x="149.333" y="0"/>
      <point x="64" y="0" type="curve"/>
      <point x="64" y="64" type="line"/>
      <point x="0" y="64" type="line"/>
      <point x="-0" y="192"/>
      <point x="0" y="320"/>
      <point x="0" y="448" type="curve"/>
      <point x="64" y="448" type="line"/>
      <point x="64" y="512" type="line"/>
      <point x="149.333" y="512"/>
      <point x="234.667" y="512"/>
      <point x="320" y="512" type="curve"/>
      <point x="320" y="448" type="line"/>
      <point x="384" y="448" type="line"/>
      <point x="384" y="320"/>
      <point x="384" y="192"/>
      <point x="384" y="64" type="curve"/>
      <point x="320" y="64" type="line"/>
    </contour>
    <contour>
      <point x="256" y="128" type="line"/>
      <point x="256" y="213.333"/>
      <point x="256" y="298.667"/>
      <point x="256" y="384" type="curve"/>
      <point x="192" y="384" type="line"/>
      <point x="192" y="298.667"/>
      <point x="192" y="213.333"/>
      <point x="192" y="128" type="curve"/>
    </contour>
    <contour>
      <point x="384" y="576" type="curve"/>
      <point x="341.333" y="576"/>
      <point x="298.667" y="576"/>
      <point x="256" y="576" type="curve"/>
      <point x="256" y="618.667"/>
      <point x="256" y="661.333"/>
      <point x="256" y="704" type="curve"/>
      <point x="298.667" y="704"/>
      <point x="341.333" y="704"/>
      <point x="384" y="704" type="curve"/>
      <point x="384" y="661.333"/>
      <point x="384" y="618.667"/>
    </contour>
    <contour>
      <point x="192" y="576" type="curve"/>
      <point x="149.333" y="576"/>
      <point x="106.667" y="576"/>
      <point x="64" y="576" type="curve"/>
      <point x="64" y="618.667"/>
      <point x="64" y="661.333"/>
      <point x="64" y="704" type="curve"/>
      <point x="106.667" y="704"/>
      <point x="149.333" y="704"/>
      <point x="192" y="704" type="curve"/>
      <point x="192" y="661.333"/>
      <point x="192" y="618.667"/>
    </contour>
  </outline>
</glyph>
<glyph name="germandbls" format="2">
  <advance width="448"/>
  <unicode hex="00DF"/>
  <outline>
    <contour>
      <point x="320" y="0" type="line"/>
      <point x="277.333" y="-0"/>
      <point x="234.667" y="0"/>
      <point x="192" y="0" type="curve"/>
      <point x="192" y="42.6667"/>
      <point x="192" y="85.3333"/>
      <point x="192" y="128" type="curve"/>
      <point x="256" y="128" type="line"/>
      <point x="256" y="192" type="line"/>
      <point x="192" y="192" type="line"/>
      <point x="192" y="234.667"/>
      <point x="192" y="277.333"/>
      <point x="192" y="320" type="curve"/>
      <point x="256" y="320" type="line"/>
      <point x="256" y="384" type="line"/>
      <point x="213.333" y="384"/>
      <point x="170.667" y="384"/>
      <point x="128" y="384" type="curve"/>
      <point x="128" y="256"/>
      <point x="128" y="128"/>
      <point x="128" y="0" type="curve"/>
      <point x="85.3333" y="-0"/>
      <point x="42.6667" y="0"/>
      <point x="0" y="0" type="curve"/>
      <point x="0" y="448" type="line"/>
      <point x="64" y="448" type="line"/>
      <point x="64" y="512" type="line"/>
      <point x="149.333" y="512"/>
      <point x="234.667" y="512"/>
      <point x="320" y="512" type="curve"/>
      <point x="320" y="448" type="line"/>
      <point x="384" y="448" type="line"/>
      <point x="384" y="405.333"/>
      <point x="384" y="362.667"/>
      <point x="384" y="320" type="curve"/>
      <point x="320" y="320" type="line"/>
      <point x="320" y="277.333"/>
      <point x="320" y="234.667"/>
      <point x="320" y="192" type="curve"/>
      <point x="384" y="192" type="line"/>
      <point x="384" y="149.333"/>
      <point x="384" y="106.667"/>
      <point x="384" y="64" type="curve"/>
      <point x="320" y="64" type="line"/>
    </contour>
  </outline>
</glyph>
<glyph name="adieresis" format="2">
  <advance width="512"/>
  <unicode hex="00E4"/>
  <outline>
    <contour>
      <point x="448" y="0" type="curve"/>
      <point x="128" y="0" type="line"/>
      <point x="128" y="64" type="line"/>
      <point x="64" y="64" type="line"/>
      <point x="64" y="106.667"/>
      <point x="64" y="149.333"/>
      <point x="64" y="192" type="curve"/>
      <point x="128" y="192" type="line"/>
      <point x="128" y="256" type="line"/>
      <point x="170.667" y="256"/>
      <point x="213.333" y="256"/>
      <point x="256" y="256" type="curve"/>
      <point x="256" y="320" type="line"/>
      <point x="213.333" y="320"/>
      <point x="170.667" y="320"/>
      <point x="128" y="320" type="curve"/>
      <point x="128" y="384" type="line"/>
      <point x="448" y="384" type="line"/>
      <point x="448" y="256"/>
      <point x="448" y="128"/>
    </contour>
    <contour>
      <point x="256" y="64" type="line"/>
      <point x="256" y="106.667"/>
      <point x="256" y="149.333"/>
      <point x="256" y="192" type="curve"/>
      <point x="192" y="192" type="line"/>
      <point x="192" y="149.333"/>
      <point x="192" y="106.667"/>
      <point x="192" y="64" type="curve"/>
    </contour>
    <contour>
      <point x="448" y="448" type="curve"/>
      <point x="405.333" y="448"/>
      <point x="362.667" y="448"/>
      <point x="320" y="448" type="curve"/>
      <point x="320" y="490.667"/>
      <point x="320" y="533.333"/>
      <point x="320" y="576" type="curve"/>
      <point x="362.667" y="576"/>
      <point x="405.333" y="576"/>
      <point x="448" y="576" type="curve"/>
      <point x="448" y="533.333"/>
      <point x="448" y="490.667"/>
    </contour>
    <contour>
      <point x="256" y="448" type="curve"/>
      <point x="213.333" y="448"/>
      <point x="170.667" y="448"/>
      <point x="128" y="448" type="curve"/>
      <point x="128" y="490.667"/>
      <point x="128" y="533.333"/>
      <point x="128" y="576" type="curve"/>
      <point x="170.667" y="576"/>
      <point x="213.333" y="576"/>
      <point x="256" y="576" type="curve"/>
      <point x="256" y="533.333"/>
      <point x="256" y="490.667"/>
    </contour>
  </outline>
</glyph>
<glyph name="ae" format="2">
  <advance width="640"/>
  <unicode hex="00E6"/>
  <outline>
    <contour>
      <point x="384" y="64" type="curve"/>
      <point x="576" y="64" type="line"/>
      <point x="576" y="0" type="line"/>
      <point x="128" y="0" type="line"/>
      <point x="128" y="64" type="line"/>
      <point x="64" y="64" type="line"/>
      <point x="64" y="106.667"/>
      <point x="64" y="149.333"/>
      <point x="64" y="192" type="curve"/>
      <point x="128" y="192" type="line"/>
      <point x="128" y="256" type="line"/>
      <point x="170.667" y="256"/>
      <point x="213.333" y="256"/>
      <point x="256" y="256" type="curve"/>
      <point x="256" y="320" type="line"/>
      <point x="213.333" y="320"/>
      <point x="170.667" y="320"/>
      <point x="128" y="320" type="curve"/>
      <point x="128" y="384" type="line"/>
      <point x="256" y="384"/>
      <point x="384" y="384"/>
      <point x="512" y="384" type="curve"/>
      <point x="512" y="320" type="line"/>
      <point x="576" y="320" type="line"/>
      <point x="576" y="277.333"/>
      <point x="576" y="234.667"/>
      <point x="576" y="192" type="curve"/>
      <point x="384" y="192" type="line"/>
      <point x="384" y="149.333"/>
      <point x="384" y="106.667"/>
    </contour>
    <contour>
      <point x="256" y="64" type="line"/>
      <point x="256" y="106.667"/>
      <point x="256" y="149.333"/>
      <point x="256" y="192" type="curve"/>
      <point x="192" y="192" type="line"/>
      <point x="192" y="149.333"/>
      <point x="192" y="106.667"/>
      <point x="192" y="64" type="curve"/>
    </contour>
    <contour>
      <point x="448" y="256" type="line"/>
      <point x="448" y="320" type="line"/>
      <point x="384" y="320" type="line"/>
      <point x="384" y="256" type="line"/>
    </contour>
  </outline>
</glyph>
<glyph name="egrave" format="2">
  <advance width="448"/>
  <unicode hex="00E8"/>
  <outline>
    <contour>
      <point x="192" y="64" type="curve"/>
      <point x="384" y="64" type="line"/>
      <point x="384" y="0" type="line"/>
      <point x="64" y="0" type="line"/>
      <point x="64" y="64" type="line"/>
      <point x="0" y="64" type="line"/>
      <point x="-0" y="149.333"/>
      <point x="0" y="234.667"/>
      <point x="0" y="320" type="curve"/>
      <point x="64" y="320" type="line"/>
      <point x="64" y="384" type="line"/>
      <point x="149.333" y="384"/>
      <point x="234.667" y="384"/>
      <point x="320" y="384" type="curve"/>
      <point x="320" y="320" type="line"/>
      <point x="384" y="320" type="line"/>
      <point x="384" y="277.333"/>
      <point x="384" y="234.667"/>
      <point x="384" y="192" type="curve"/>
      <point x="192" y="192" type="line"/>
      <point x="192" y="149.333"/>
      <point x="192" y="106.667"/>
    </contour>
    <contour>
      <point x="256" y="256" type="line"/>
      <point x="256" y="320" type="line"/>
      <point x="192" y="320" type="line"/>
      <point x="192" y="256" type="line"/>
    </contour>
    <contour>
      <point x="320" y="448" type="line"/>
      <point x="277.333" y="448"/>
      <point x="234.667" y="448"/>
      <point x="192" y="448" type="curve"/>
      <point x="192" y="512" type="line"/>
      <point x="128" y="512" type="line"/>
      <point x="128" y="576" type="line"/>
      <point x="64" y="576" type="line"/>
      <point x="64" y="640" type="line"/>
      <point x="256" y="640" type="line"/>
      <point x="256" y="597.333"/>
      <point x="256" y="554.667"/>
      <point x="256" y="512" type="curve"/>
      <point x="320" y="512" type="line"/>
    </contour>
  </outline>
</glyph>
<glyph name="igrave" format="2">
  <advance width="320"/>
  <unicode hex="00EC"/>
  <outline>
    <contour>
      <point x="256" y="0" type="line"/>
      <point x="64" y="0" type="line"/>
      <point x="64" y="64" type="line"/>
      <point x="0" y="64" type="line"/>
      <point x="0" y="256" type="line"/>
      <point x="192" y="256" type="line"/>
      <point x="192" y="64" type="line"/>
      <point x="256" y="64" type="line"/>
    </contour>
    <contour>
      <point x="192" y="320" type="line"/>
      <point x="149.333" y="320"/>
      <point x="106.667" y="320"/>
      <point x="64" y="320" type="curve"/>
      <point x="64" y="384" type="line"/>
      <point x="0" y="384" type="line"/>
      <point x="0" y="448" type="line"/>
      <point x="-64" y="448" type="line"/>
      <point x="-64" y="512" type="line"/>
      <point x="128" y="512" type="line"/>
      <point x="128" y="469.333"/>
      <point x="128" y="426.667"/>
      <point x="128" y="384" type="curve"/>
      <point x="192" y="384" type="line"/>
    </contour>
  </outline>
</glyph>
<glyph name="idieresis" format="2">
  <advance width="320"/>
  <unicode hex="00EF"/>
  <outline>
    <contour>
      <point x="256" y="0" type="line"/>
      <point x="64" y="0" type="line"/>
      <point x="64" y="64" type="line"/>
      <point x="0" y="64" type="line"/>
      <point x="0" y="256" type="line"/>
      <point x="192" y="256" type="line"/>
      <point x="192" y="64" type="line"/>
      <point x="256" y="64" type="line"/>
    </contour>
    <contour>
      <point x="256" y="320" type="curve"/>
      <point x="213.333" y="320"/>
      <point x="170.667" y="320"/>
      <point x="128" y="320" type="curve"/>
      <point x="128" y="362.667"/>
      <point x="128" y="405.333"/>
      <point x="128" y="448" type="curve"/>
      <point x="170.667" y="448"/>
      <point x="213.333" y="448"/>
      <point x="256" y="448" type="curve"/>
      <point x="256" y="405.333"/>
      <point x="256" y="362.667"/>
    </contour>
    <contour>
      <point x="64" y="320" type="curve"/>
      <point x="21.3333" y="320"/>
      <point x="-21.3333" y="320"/>
      <point x="-64" y="320" type="curve"/>
      <point x="-64" y="362.667"/>
      <point x="-64" y="405.333"/>
      <point x="-64" y="448" type="curve"/>
      <point x="-21.3333" y="448"/>
      <point x="21.3333" y="448"/>
      <point x="64" y="448" type="curve"/>
      <point x="64" y="405.333"/>
      <point x="64" y="362.667"/>
    </contour>
  </outline>
</glyph>
<glyph name="ocircumflex" format="2">
  <advance width="448"/>
  <unicode hex="00F4"/>
  <outline>
    <contour>
      <point x="320" y="0" type="line"/>
      <point x="234.667" y="-0"/>
      <point x="149.333" y="0"/>
      <point x="64" y="0" type="curve"/>
      <point x="64" y="64" type="line"/>
      <point x="0" y="64" type="line"/>
      <point x="-0" y="149.333"/>
      <point x="0" y="234.667"/>
      <point x="0" y="320" type="curve"/>
      <point x="64" y="320" type="line"/>
      <point x="64" y="384" type="line"/>
      <point x="149.333" y="384"/>
      <point x="234.667" y="384"/>
      <point x="320" y="384" type="curve"/>
      <point x="320" y="320" type="line"/>
      <point x="384" y="320" type="line"/>
      <point x="384" y="234.667"/>
      <point x="384" y="149.333"/>
      <point x="384" y="64" type="curve"/>
      <point x="320" y="64" type="line"/>
    </contour>
    <contour>
      <point x="256" y="64" type="line"/>
      <point x="256" y="149.333"/>
      <point x="256" y="234.667"/>
      <point x="256" y="320" type="curve"/>
      <point x="192" y="320" type="line"/>
      <point x="192" y="234.667"/>
      <point x="192" y="149.333"/>
      <point x="192" y="64" type="curve"/>
    </contour>
    <contour>
      <point x="384" y="448" type="line"/>
      <point x="341.333" y="448"/>
      <point x="298.667" y="448"/>
      <point x="256" y="448" type="curve"/>
      <point x="256" y="512" type="line"/>
      <point x="192" y="512" type="line"/>
      <point x="192" y="448" type="line"/>
      <point x="149.333" y="448"/>
      <point x="106.667" y="448"/>
      <point x="64" y="448" type="curve"/>
      <point x="64" y="512" type="line"/>
      <point x="128" y="512" type="line"/>
      <point x="128" y="576" type="line"/>
      <point x="192" y="576" type="line"/>
      <point x="192" y="640" type="line"/>
      <point x="256" y="640" type="line"/>
      <point x="256" y="576" type="line"/>
      <point x="320" y="576" type="line"/>
      <point x="320" y="512" type="line"/>
      <point x="384" y="512" type="line"/>
    </contour>
  </outline>
</glyph>
<glyph name="ugrave" format="2">
  <advance width="448"/>
  <unicode hex="00F9"/>
  <outline>
    <contour>
      <point x="384" y="0" type="curve"/>
      <point x="64" y="0" type="line"/>
      <point x="64" y="64" type="line"/>
      <point x="0" y="64" type="line"/>
      <point x="0" y="384" type="line"/>
      <point x="192" y="384" type="line"/>
      <point x="192" y="64" type="line"/>
      <point x="256" y="64" type="line"/>
      <point x="256" y="384" type="line"/>
      <point x="298.667" y="384"/>
      <point x="341.333" y="384"/>
      <point x="384" y="384" type="curve"/>
      <point x="384" y="256"/>
      <point x="384" y="128"/>
    </contour>
    <contour>
      <point x="320" y="448" type="line"/>
      <point x="277.333" y="448"/>
      <point x="234.667" y="448"/>
      <point x="192" y="448" type="curve"/>
      <point x="192" y="512" type="line"/>
      <point x="128" y="512" type="line"/>
      <point x="128" y="576" type="line"/>
      <point x="64" y="576" type="line"/>
      <point x="64" y="640" type="line"/>
      <point x="256" y="640" type="line"/>
      <point x="256" y="597.333"/>
      <point x="256" y="554.667"/>
      <point x="256" y="512" type="curve"/>
      <point x="320" y="512" type="line"/>
    </contour>
  </outline>
</glyph>
<glyph name="ucircumflex" format="2">
  <advance width="448"/>
  <unicode hex="00FB"/>
  <outline>
    <contour>
      <point x="384" y="0" type="curve"/>
      <point x="64" y="0" type="line"/>
      <point x="64" y="64" type="line"/>
      <point x="0" y="64" type="line"/>
      <point x="0" y="384" type="line"/>
      <point x="192" y="384" type="line"/>
      <point x="192" y="64" type="line"/>
      <point x="256" y="64" type="line"/>
      <point x="256" y="384" type="line"/>
      <point x="298.667" y="384"/>
      <point x="341.333" y="384"/>
      <point x="384" y="384" type="curve"/>
      <point x="384" y="256"/>
      <point x="384" y="128"/>
    </contour>
    <contour>
      <point x="384" y="448" type="line"/>
      <point x="341.333" y="448"/>
      <point x="298.667" y="448"/>
      <point x="256" y="448" type="curve"/>
      <point x="256" y="512" type="line"/>
      <point x="192" y="512" type="line"/>
      <point x="192" y="448" type="line"/>
      <point x="149.333" y="448"/>
      <point x="106.667" y="448"/>
      <point x="64" y="448" type="curve"/>
      <point x="64" y="512" type="line"/>
      <point x="128" y="512" type="line"/>
      <point x="128" y="576" type="line"/>
      <point x="192" y="576" type="line"/>
      <point x="192" y="640" type="line"/>
      <point x="256" y="640" type="line"/>
      <point x="256" y="576" type="line"/>
      <point x="320" y="576" type="line"/>
      <point x="320" y="512" type="line"/>
      <point x="384" y="512" type="line"/>
    </contour>
  </outline>
</glyph>
<glyph name="udieresis" format="2">
  <advance width="448"/>
  <unicode hex="00FC"/>
  <outline>
    <contour>
      <point x="384" y="0" type="curve"/>
      <point x="64" y="0" type="line"/>
      <point x="64" y="64" type="line"/>
      <point x="0" y="64" type="line"/>
      <point x="0" y="384" type="line"/>
      <point x="192" y="384" type="line"/>
      <point x="192" y="64" type="line"/>
      <point x="256" y="64" type="line"/>
      <point x="256" y="384" type="line"/>
      <point x="298.667" y="384"/>
      <point x="341.333" y="384"/>
      <point x="384" y="384" type="curve"/>
      <point x="384" y="256"/>
      <point x="384" y="128"/>
    </contour>
    <contour>
      <point x="384" y="448" type="curve"/>
      <point x="341.333" y="448"/>
      <point x="298.667" y="448"/>
      <point x="256" y="448" type="curve"/>
      <point x="256" y="490.667"/>
      <point x="256" y="533.333"/>
      <point x="256" y="576" type="curve"/>
      <point x="298.667" y="576"/>
      <point x="341.333" y="576"/>
      <point x="384" y="576" type="curve"/>
      <point x="384" y="533.333"/>
      <point x="384" y="490.667"/>
    </contour>
    <contour>
      <point x="192" y="448" type="curve"/>
      <point x="149.333" y="448"/>
      <point x="106.667" y="448"/>
      <point x="64" y="448" type="curve"/>
      <point x="64" y="490.667"/>
      <point x="64" y="533.333"/>
      <point x="64" y="576" type="curve"/>
      <point x="106.667" y="576"/>
      <point x="149.333" y="576"/>
      <point x="192" y="576" type="curve"/>
      <point x="192" y="533.333"/>
      <point x="192" y="490.667"/>
    </contour>
  </outline>
</glyph>
<glyph name="ydieresis" format="2">
  <advance width="448"/>
  <unicode hex="00FF"/>
  <outline>
    <contour>
      <point x="320" y="0" type="line"/>
      <point x="0" y="0" type="line"/>
      <point x="0" y="64" type="line"/>
      <point x="85.3333" y="64"/>
      <point x="170.667" y="64"/>
      <point x="256" y="64" type="curve"/>
      <point x="256" y="128" type="line"/>
      <point x="64" y="128" type="line"/>
      <point x="64" y="192" type="line"/>
      <point x="0" y="192" type="line"/>
      <point x="0" y="384" type="line"/>
      <point x="192" y="384" type="line"/>
      <point x="192" y="192" type="line"/>
      <point x="256" y="192" type="line"/>
      <point x="256" y="384" type="line"/>
      <point x="298.667" y="384"/>
      <point x="341.333" y="384"/>
      <point x="384" y="384" type="curve"/>
      <point x="384" y="64" type="line"/>
      <point x="320" y="64" type="line"/>
    </contour>
    <contour>
      <point x="384" y="448" type="curve"/>
      <point x="341.333" y="448"/>
      <point x="298.667" y="448"/>
      <point x="256" y="448" type="curve"/>
      <point x="256" y="490.667"/>
      <point x="256" y="533.333"/>
      <point x="256" y="576" type="curve"/>
      <point x="298.667" y="576"/>
      <point x="341.333" y="576"/>
      <point x="384" y="576" type="curve"/>
      <point x="384" y="533.333"/>
      <point x="384" y="490.667"/>
    </contour>
    <contour>
      <point x="192" y="448" type="curve"/>
      <point x="149.333" y="448"/>
      <point x="106.667" y="448"/>
      <point x="64" y="448" type="curve"/>
      <point x="64" y="490.667"/>
      <point x="64" y="533.333"/>
      <point x="64" y="576" type="curve"/>
      <point x="106.667" y="576"/>
      <point x="149.333" y="576"/>
      <point x="192" y="576" type="curve"/>
      <point x="192" y="533.333"/>
      <point x="192" y="490.667"/>
    </contour>
  </outline>
</glyph>
<glyph name="Abreve" format="2">
  <advance width="512"/>
  <unicode hex="0102"/>
  <outline>
    <contour>
      <point x="448" y="0" type="curve"/>
      <point x="405.333" y="-0"/>
      <point x="362.667" y="0"/>
      <point x="320" y="0" type="curve"/>
      <point x="320" y="42.6667"/>
      <point x="320" y="85.3333"/>
      <point x="320" y="128" type="curve"/>
      <point x="128" y="128" type="line"/>
      <point x="128" y="85.3333"/>
      <point x="128" y="42.6667"/>
      <point x="128" y="0" type="curve"/>
      <point x="85.3333" y="-0"/>
      <point x="42.6667" y="0"/>
      <point x="0" y="0" type="curve"/>
      <point x="-0" y="85.3333"/>
      <point x="0" y="170.667"/>
      <point x="0" y="256" type="curve"/>
      <point x="64" y="256" type="line"/>
      <point x="64" y="298.667"/>
      <point x="64" y="341.333"/>
      <point x="64" y="384" type="curve"/>
      <point x="128" y="384" type="line"/>
      <point x="128" y="426.667"/>
      <point x="128" y="469.333"/>
      <point x="128" y="512" type="curve"/>
      <point x="320" y="512" type="line"/>
      <point x="320" y="469.333"/>
      <point x="320" y="426.667"/>
      <point x="320" y="384" type="curve"/>
      <point x="384" y="384" type="line"/>
      <point x="384" y="341.333"/>
      <point x="384" y="298.667"/>
      <point x="384" y="256" type="curve"/>
      <point x="448" y="256" type="line"/>
      <point x="448" y="170.667"/>
      <point x="448" y="85.3333"/>
    </contour>
    <contour>
      <point x="256" y="256" type="line"/>
      <point x="256" y="298.667"/>
      <point x="256" y="341.333"/>
      <point x="256" y="384" type="curve"/>
      <point x="192" y="384" type="line"/>
      <point x="192" y="341.333"/>
      <point x="192" y="298.667"/>
      <point x="192" y="256" type="curve"/>
    </contour>
    <contour>
      <point x="320" y="576" type="line"/>
      <point x="128" y="576" type="line"/>
      <point x="128" y="640" type="line"/>
      <point x="64" y="640" type="line"/>
      <point x="64" y="682.667"/>
      <point x="64" y="725.333"/>
      <point x="64" y="768" type="curve"/>
      <point x="106.667" y="768"/>
      <point x="149.333" y="768"/>
      <point x="192" y="768" type="curve"/>
      <point x="192" y="704" type="line"/>
      <point x="256" y="704" type="line"/>
      <point x="256" y="768" type="line"/>
      <point x="298.667" y="768"/>
      <point x="341.333" y="768"/>
      <point x="384" y="768" type="curve"/>
      <point x="384" y="725.333"/>
      <point x="384" y="682.667"/>
      <point x="384" y="640" type="curve"/>
      <point x="320" y="640" type="line"/>
    </contour>
  </outline>
</glyph>
<glyph name="abreve" format="2">
  <advance width="512"/>
  <unicode hex="0103"/>
  <outline>
    <contour>
      <point x="448" y="0" type="curve"/>
      <point x="128" y="0" type="line"/>
      <point x="128" y="64" type="line"/>
      <point x="64" y="64" type="line"/>
      <point x="64" y="106.667"/>
      <point x="64" y="149.333"/>
      <point x="64" y="192" type="curve"/>
      <point x="128" y="192" type="line"/>
      <point x="128" y="256" type="line"/>
      <point x="170.667" y="256"/>
      <point x="213.333" y="256"/>
      <point x="256" y="256" type="curve"/>
      <point x="256" y="320" type="line"/>
      <point x="213.333" y="320"/>
      <point x="170.667" y="320"/>
      <point x="128" y="320" type="curve"/>
      <point x="128" y="384" type="line"/>
      <point x="448" y="384" type="line"/>
      <point x="448" y="256"/>
      <point x="448" y="128"/>
    </contour>
    <contour>
      <point x="256" y="64" type="line"/>
      <point x="256" y="106.667"/>
      <point x="256" y="149.333"/>
      <point x="256" y="192" type="curve"/>
      <point x="192" y="192" type="line"/>
      <point x="192" y="149.333"/>
      <point x="192" y="106.667"/>
      <point x="192" y="64" type="curve"/>
    </contour>
    <contour>
      <point x="384" y="448" type="line"/>
      <point x="192" y="448" type="line"/>
      <point x="192" y="512" type="line"/>
      <point x="128" y="512" type="line"/>
      <point x="128" y="554.667"/>
      <point x="128" y="597.333"/>
      <point x="128" y="640" type="curve"/>
      <point x="170.667" y="640"/>
      <point x="213.333" y="640"/>
      <point x="256" y="640" type="curve"/>
      <point x="256" y="576" type="line"/>
      <point x="320" y="576" type="line"/>
      <point x="320" y="640" type="line"/>
      <point x="362.667" y="640"/>
      <point x="405.333" y="640"/>
      <point x="448" y="640" type="curve"/>
      <point x="448" y="597.333"/>
      <point x="448" y="554.667"/>
      <point x="448" y="512" type="curve"/>
      <point x="384" y="512" type="line"/>
    </contour>
  </outline>
</glyph>
<glyph name="Aogonek" format="2">
  <advance width="512"/>
  <unicode hex="0104"/>
  <outline>
    <contour>
      <point x="320" y="-128" type="line"/>
      <point x="362.667" y="-128"/>
      <point x="405.333" y="-128"/>
      <point x="448" y="-128" type="curve"/>
      <point x="448" y="-192" type="line"/>
      <point x="256" y="-192" type="line"/>
      <point x="256" y="-149.333"/>
      <point x="256" y="-106.667"/>
      <point x="256" y="-64" type="curve"/>
      <point x="320" y="-64" type="line"/>
    </contour>
    <contour>
      <point x="320" y="-64" type="line"/>
      <point x="320" y="128" type="line"/>
      <point x="128" y="128" type="line"/>
      <point x="128" y="85.3333"/>
      <point x="128" y="42.6667"/>
      <point x="128" y="0" type="curve"/>
      <point x="85.3333" y="-0"/>
      <point x="42.6667" y="0"/>
      <point x="0" y="0" type="curve"/>
      <point x="-0" y="85.3333"/>
      <point x="0" y="170.667"/>
      <point x="0" y="256" type="curve"/>
      <point x="64" y="256" type="line"/>
      <point x="64" y="298.667"/>
      <point x="64" y="341.333"/>
      <point x="64" y="384" type="curve"/>
      <point x="128" y="384" type="line"/>
      <point x="128" y="426.667"/>
      <point x="128" y="469.333"/>
      <point x="128" y="512" type="curve"/>
      <point x="320" y="512" type="line"/>
      <point x="320" y="469.333"/>
      <point x="320" y="426.667"/>
      <point x="320" y="384" type="curve"/>
      <point x="384" y="384" type="line"/>
      <point x="384" y="341.333"/>
      <point x="384" y="298.667"/>
      <point x="384" y="256" type="curve"/>
      <point x="448" y="256" type="line"/>
      <point x="448" y="170.667"/>
      <point x="448" y="85.3333"/>
      <point x="448" y="0" type="curve"/>
      <point x="384" y="0" type="line"/>
      <point x="384" y="-64" type="line"/>
    </contour>
    <contour>
      <point x="256" y="256" type="line"/>
      <point x="256" y="298.667"/>
      <point x="256" y="341.333"/>
      <point x="256" y="384" type="curve"/>
      <point x="192" y="384" type="line"/>
      <point x="192" y="341.333"/>
      <point x="192" y="298.667"/>
      <point x="192" y="256" type="curve"/>
    </contour>
  </outline>
</glyph>
<glyph name="aogonek" format="2">
  <advance width="512"/>
  <unicode hex="0105"/>
  <outline>
    <contour>
      <point x="320" y="-128" type="line"/>
      <point x="362.667" y="-128"/>
      <point x="405.333" y="-128"/>
      <point x="448" y="-128" type="curve"/>
      <point x="448" y="-192" type="line"/>
      <point x="256" y="-192" type="line"/>
      <point x="256" y="-149.333"/>
      <point x="256" y="-106.667"/>
      <point x="256" y="-64" type="curve"/>
      <point x="320" y="-64" type="line"/>
    </contour>
    <contour>
      <point x="320" y="-64" type="line"/>
      <point x="320" y="0" type="line"/>
      <point x="128" y="0" type="line"/>
      <point x="128" y="64" type="line"/>
      <point x="64" y="64" type="line"/>
      <point x="64" y="106.667"/>
      <point x="64" y="149.333"/>
      <point x="64" y="192" type="curve"/>
      <point x="128" y="192" type="line"/>
      <point x="128" y="256" type="line"/>
      <point x="170.667" y="256"/>
      <point x="213.333" y="256"/>
      <point x="256" y="256" type="curve"/>
      <point x="256" y="320" type="line"/>
      <point x="213.333" y="320"/>
      <point x="170.667" y="320"/>
      <point x="128" y="320" type="curve"/>
      <point x="128" y="384" type="line"/>
      <point x="448" y="384" type="line"/>
      <point x="448" y="256"/>
      <point x="448" y="128"/>
      <point x="448" y="0" type="curve"/>
      <point x="384" y="0" type="line"/>
      <point x="384" y="-64" type="line"/>
    </contour>
    <contour>
      <point x="256" y="64" type="line"/>
      <point x="256" y="106.667"/>
      <point x="256" y="149.333"/>
      <point x="256" y="192" type="curve"/>
      <point x="192" y="192" type="line"/>
      <point x="192" y="149.333"/>
      <point x="192" y="106.667"/>
      <point x="192" y="64" type="curve"/>
    </contour>
  </outline>
</glyph>
<glyph name="Cacute" format="2">
  <advance width="448"/>
  <unicode hex="0106"/>
  <outline>
    <contour>
      <point x="320" y="0" type="line"/>
      <point x="234.667" y="-0"/>
      <point x="149.333" y="0"/>
      <point x="64" y="0" type="curve"/>
      <point x="64" y="64" type="line"/>
      <point x="0" y="64" type="line"/>
      <point x="-0" y="192"/>
      <point x="0" y="320"/>
      <point x="0" y="448" type="curve"/>
      <point x="64" y="448" type="line"/>
      <point x="64" y="512" type="line"/>
      <point x="149.333" y="512"/>
      <point x="234.667" y="512"/>
      <point x="320" y="512" type="curve"/>
      <point x="320" y="448" type="line"/>
      <point x="384" y="448" type="line"/>
      <point x="384" y="405.333"/>
      <point x="384" y="362.667"/>
      <point x="384" y="320" type="curve"/>
      <point x="341.333" y="320"/>
      <point x="298.667" y="320"/>
      <point x="256" y="320" type="curve"/>
      <point x="256" y="384" type="line"/>
      <point x="192" y="384" type="line"/>
      <point x="192" y="298.667"/>
      <point x="192" y="213.333"/>
      <point x="192" y="128" type="curve"/>
      <point x="256" y="128" type="line"/>
      <point x="256" y="192" type="line"/>
      <point x="298.667" y="192"/>
      <point x="341.333" y="192"/>
      <point x="384" y="192" type="curve"/>
      <point x="384" y="149.333"/>
      <point x="384" y="106.667"/>
      <point x="384" y="64" type="curve"/>
      <point x="320" y="64" type="line"/>
    </contour>
    <contour>
      <point x="256" y="576" type="line"/>
      <point x="213.333" y="576"/>
      <point x="170.667" y="576"/>
      <point x="128" y="576" type="curve"/>
      <point x="128" y="640" type="line"/>
      <point x="192" y="640" type="line"/>
      <point x="192" y="682.667"/>
      <point x="192" y="725.333"/>
      <point x="192" y="768" type="curve"/>
      <point x="384" y="768" type="line"/>
      <point x="384" y="704" type="line"/>
      <point x="320" y="704" type="line"/>
      <point x="320" y="640" type="line"/>
      <point x="256" y="640" type="line"/>
    </contour>
  </outline>
</glyph>
<glyph name="cacute" format="2">
  <advance width="448"/>
  <unicode hex="0107"/>
  <outline>
    <contour>
      <point x="192" y="64" type="curve"/>
      <point x="384" y="64" type="line"/>
      <point x="384" y="0" type="line"/>
      <point x="64" y="0" type="line"/>
      <point x="64" y="64" type="line"/>
      <point x="0" y="64" type="line"/>
      <point x="-0" y="149.333"/>
      <point x="0" y="234.667"/>
      <point x="0" y="320" type="curve"/>
      <point x="64" y="320" type="line"/>
      <point x="64" y="384" type="line"/>
      <point x="384" y="384" type="line"/>
      <point x="384" y="320" type="line"/>
      <point x="192" y="320" type="line"/>
      <point x="192" y="234.667"/>
      <point x="192" y="149.333"/>
    </contour>
    <contour>
      <point x="256" y="448" type="line"/>
      <point x="213.333" y="448"/>
      <point x="170.667" y="448"/>
      <point x="128" y="448" type="curve"/>
      <point x="128" y="512" type="line"/>
      <point x="192" y="512" type="line"/>
      <point x="192" y="554.667"/>
      <point x="192" y="597.333"/>
      <point x="192" y="640" type="curve"/>
      <point x="384" y="640" type="line"/>
      <point x="384" y="576" type="line"/>
      <point x="320" y="576" type="line"/>
      <point x="320" y="512" type="line"/>
      <point x="256" y="512" type="line"/>
    </contour>
  </outline>
</glyph>
<glyph name="ccircumflex" format="2">
  <advance width="448"/>
  <unicode hex="0109"/>
  <outline>
    <contour>
      <point x="192" y="64" type="curve"/>
      <point x="384" y="64" type="line"/>
      <point x="384" y="0" type="line"/>
      <point x="64" y="0" type="line"/>
      <point x="64" y="64" type="line"/>
      <point x="0" y="64" type="line"/>
      <point x="-0" y="149.333"/>
      <point x="0" y="234.667"/>
      <point x="0" y="320" type="curve"/>
      <point x="64" y="320" type="line"/>
      <point x="64" y="384" type="line"/>
      <point x="384" y="384" type="line"/>
      <point x="384" y="320" type="line"/>
      <point x="192" y="320" type="line"/>
      <point x="192" y="234.667"/>
      <point x="192" y="149.333"/>
    </contour>
  </outline>
</glyph>
<glyph name="Dcaron" format="2">
  <advance width="512"/>
  <unicode hex="010E"/>
  <outline>
    <contour>
      <point x="192" y="576" type="line"/>
      <point x="192" y="640" type="line"/>
      <point x="128" y="640" type="line"/>
      <point x="128" y="704" type="line"/>
      <point x="64" y="704" type="line"/>
      <point x="64" y="768" type="line"/>
      <point x="106.667" y="768"/>
      <point x="149.333" y="768"/>
      <point x="192" y="768" type="curve"/>
      <point x="192" y="704" type="line"/>
      <point x="256" y="704" type="line"/>
      <point x="256" y="768" type="line"/>
      <point x="298.667" y="768"/>
      <point x="341.333" y="768"/>
      <point x="384" y="768" type="curve"/>
      <point x="384" y="704" type="line"/>
      <point x="320" y="704" type="line"/>
      <point x="320" y="640" type="line"/>
      <point x="256" y="640" type="line"/>
      <point x="256" y="576" type="line"/>
    </contour>
    <contour>
      <point x="384" y="0" type="line"/>
      <point x="256" y="-0"/>
      <point x="128" y="0"/>
      <point x="0" y="0" type="curve"/>
      <point x="-0" y="170.667"/>
      <point x="0" y="341.333"/>
      <point x="0" y="512" type="curve"/>
      <point x="128" y="512"/>
      <point x="256" y="512"/>
      <point x="384" y="512" type="curve"/>
      <point x="384" y="448" type="line"/>
      <point x="448" y="448" type="line"/>
      <point x="448" y="320"/>
      <point x="448" y="192"/>
      <point x="448" y="64" type="curve"/>
      <point x="384" y="64" type="line"/>
    </contour>
    <contour>
      <point x="256" y="128" type="line"/>
      <point x="256" y="213.333"/>
      <point x="256" y="298.667"/>
      <point x="256" y="384" type="curve"/>
      <point x="192" y="384" type="line"/>
      <point x="192" y="298.667"/>
      <point x="192" y="213.333"/>
      <point x="192" y="128" type="curve"/>
    </contour>
  </outline>
</glyph>
<glyph name="dcaron" format="2">
  <advance width="640"/>
  <unicode hex="010F"/>
  <outline>
    <contour>
      <point x="448" y="256" type="line"/>
      <point x="448" y="448" type="line"/>
      <point x="490.667" y="448"/>
      <point x="533.333" y="448"/>
      <point x="576" y="448" type="curve"/>
      <point x="576" y="405.333"/>
      <point x="576" y="362.667"/>
      <point x="576" y="320" type="curve"/>
      <point x="512" y="320" type="line"/>
      <point x="512" y="256" type="line"/>
    </contour>
    <contour>
      <point x="384" y="0" type="line"/>
      <point x="64" y="0" type="line"/>
      <point x="64" y="64" type="line"/>
      <point x="0" y="64" type="line"/>
      <point x="0" y="256" type="line"/>
      <point x="64" y="256" type="line"/>
      <point x="64" y="320" type="line"/>
      <point x="106.667" y="320"/>
      <point x="149.333" y="320"/>
      <point x="192" y="320" type="curve"/>
      <point x="192" y="362.667"/>
      <point x="192" y="405.333"/>
      <point x="192" y="448" type="curve"/>
      <point x="384" y="448" type="line"/>
    </contour>
    <contour>
      <point x="192" y="64" type="line"/>
      <point x="192" y="256" type="line"/>
      <point x="128" y="256" type="line"/>
      <point x="128" y="64" type="line"/>
    </contour>
  </outline>
</glyph>
<glyph name="Dcroat" format="2">
  <advance width="576"/>
  <unicode hex="0110"/>
  <outline>
    <contour>
      <point x="448" y="0" type="line"/>
      <point x="0" y="0" type="line"/>
      <point x="0" y="192" type="line"/>
      <point x="-64" y="192" type="line"/>
      <point x="-64" y="320" type="line"/>
      <point x="0" y="320" type="line"/>
      <point x="0" y="512" type="line"/>
      <point x="448" y="512" type="line"/>
      <point x="448" y="448" type="line"/>
      <point x="512" y="448" type="line"/>
      <point x="512" y="64" type="line"/>
      <point x="448" y="64" type="line"/>
    </contour>
    <contour>
      <point x="192" y="128" type="line"/>
      <point x="320" y="128" type="line"/>
      <point x="320" y="384" type="line"/>
      <point x="192" y="384" type="line"/>
      <point x="192" y="320" type="line"/>
      <point x="256" y="320" type="line"/>
      <point x="256" y="192" type="line"/>
      <point x="192" y="192" type="line"/>
    </contour>
  </outline>
</glyph>
<glyph name="dcroat" format="2">
  <advance width="512"/>
  <unicode hex="0111"/>
  <outline>
    <contour>
      <point x="384" y="0" type="curve"/>
      <point x="64" y="0" type="line"/>
      <point x="64" y="64" type="line"/>
      <point x="0" y="64" type="line"/>
      <point x="0" y="256" type="line"/>
      <point x="64" y="256" type="line"/>
      <point x="64" y="320" type="line"/>
      <point x="106.667" y="320"/>
      <point x="149.333" y="320"/>
      <point x="192" y="320" type="curve"/>
      <point x="192" y="384" type="line"/>
      <point x="149.333" y="384"/>
      <point x="106.667" y="384"/>
      <point x="64" y="384" type="curve"/>
      <point x="64" y="448" type="line"/>
      <point x="106.667" y="448"/>
      <point x="149.333" y="448"/>
      <point x="192" y="448" type="curve"/>
      <point x="192" y="512" type="line"/>
      <point x="384" y="512" type="line"/>
      <point x="384" y="448" type="line"/>
      <point x="448" y="448" type="line"/>
      <point x="448" y="384" type="line"/>
      <point x="384" y="384" type="line"/>
      <point x="384" y="256"/>
      <point x="384" y="128"/>
    </contour>
    <contour>
      <point x="192" y="64" type="line"/>
      <point x="192" y="256" type="line"/>
      <point x="128" y="256" type="line"/>
      <point x="128" y="64" type="line"/>
    </contour>
  </outline>
</glyph>
<glyph name="Emacron" format="2">
  <advance width="448"/>
  <unicode hex="0112"/>
  <outline>
    <contour>
      <point x="384" y="0" type="curve"/>
      <point x="256" y="-0"/>
      <point x="128" y="0"/>
      <point x="0" y="0" type="curve"/>
      <point x="-0" y="170.667"/>
      <point x="0" y="341.333"/>
      <point x="0" y="512" type="curve"/>
      <point x="128" y="512"/>
      <point x="256" y="512"/>
      <point x="384" y="512" type="curve"/>
      <point x="384" y="469.333"/>
      <point x="384" y="426.667"/>
      <point x="384" y="384" type="curve"/>
      <point x="192" y="384" type="line"/>
      <point x="192" y="320" type="line"/>
      <point x="256" y="320" type="line"/>
      <point x="256" y="277.333"/>
      <point x="256" y="234.667"/>
      <point x="256" y="192" type="curve"/>
      <point x="192" y="192" type="line"/>
      <point x="192" y="128" type="line"/>
      <point x="384" y="128" type="line"/>
      <point x="384" y="85.3333"/>
      <point x="384" y="42.6667"/>
    </contour>
    <contour>
      <point x="64" y="640" type="line"/>
      <point x="384" y="640" type="line"/>
      <point x="384" y="576" type="line"/>
      <point x="64" y="576" type="line"/>
    </contour>
  </outline>
</glyph>
<glyph name="edotaccent" format="2">
  <advance width="448"/>
  <unicode hex="0117"/>
  <outline>
    <contour>
      <point x="192" y="64" type="curve"/>
      <point x="384" y="64" type="line"/>
      <point x="384" y="0" type="line"/>
      <point x="64" y="0" type="line"/>
      <point x="64" y="64" type="line"/>
      <point x="0" y="64" type="line"/>
      <point x="-0" y="149.333"/>
      <point x="0" y="234.667"/>
      <point x="0" y="320" type="curve"/>
      <point x="64" y="320" type="line"/>
      <point x="64" y="384" type="line"/>
      <point x="149.333" y="384"/>
      <point x="234.667" y="384"/>
      <point x="320" y="384" type="curve"/>
      <point x="320" y="320" type="line"/>
      <point x="384" y="320" type="line"/>
      <point x="384" y="277.333"/>
      <point x="384" y="234.667"/>
      <point x="384" y="192" type="curve"/>
      <point x="192" y="192" type="line"/>
      <point x="192" y="149.333"/>
      <point x="192" y="106.667"/>
    </contour>
    <contour>
      <point x="256" y="256" type="line"/>
      <point x="256" y="320" type="line"/>
      <point x="192" y="320" type="line"/>
      <point x="192" y="256" type="line"/>
    </contour>
    <contour>
      <point x="256" y="448" type="curve"/>
      <point x="213.333" y="448"/>
      <point x="170.667" y="448"/>
      <point x="128" y="448" type="curve"/>
      <point x="128" y="490.667"/>
      <point x="128" y="533.333"/>
      <point x="128" y="576" type="curve"/>
      <point x="170.667" y="576"/>
      <point x="213.333" y="576"/>
      <point x="256" y="576" type="curve"/>
      <point x="256" y="533.333"/>
      <point x="256" y="490.667"/>
    </contour>
  </outline>
</glyph>
<glyph name="Gbreve" format="2">
  <advance width="448"/>
  <unicode hex="011E"/>
  <outline>
    <contour>
      <point x="320" y="0" type="line"/>
      <point x="234.667" y="-0"/>
      <point x="149.333" y="0"/>
      <point x="64" y="0" type="curve"/>
      <point x="64" y="64" type="line"/>
      <point x="0" y="64" type="line"/>
      <point x="-0" y="192"/>
      <point x="0" y="320"/>
      <point x="0" y="448" type="curve"/>
      <point x="64" y="448" type="line"/>
      <point x="64" y="512" type="line"/>
      <point x="149.333" y="512"/>
      <point x="234.667" y="512"/>
      <point x="320" y="512" type="curve"/>
      <point x="320" y="448" type="line"/>
      <point x="384" y="448" type="line"/>
      <point x="384" y="405.333"/>
      <point x="384" y="362.667"/>
      <point x="384" y="320" type="curve"/>
      <point x="341.333" y="320"/>
      <point x="298.667" y="320"/>
      <point x="256" y="320" type="curve"/>
      <point x="256" y="362.667"/>
      <point x="256" y="405.333"/>
      <point x="256" y="448" type="curve"/>
      <point x="192" y="448" type="line"/>
      <point x="192" y="256" type="line"/>
      <point x="384" y="256" type="line"/>
      <point x="384" y="64" type="line"/>
      <point x="320" y="64" type="line"/>
    </contour>
    <contour>
      <point x="256" y="64" type="line"/>
      <point x="256" y="106.667"/>
      <point x="256" y="149.333"/>
      <point x="256" y="192" type="curve"/>
      <point x="192" y="192" type="line"/>
      <point x="192" y="149.333"/>
      <point x="192" y="106.667"/>
      <point x="192" y="64" type="curve"/>
    </contour>
    <contour>
      <point x="320" y="576" type="line"/>
      <point x="128" y="576" type="line"/>
      <point x="128" y="640" type="line"/>
      <point x="64" y="640" type="line"/>
      <point x="64" y="682.667"/>
      <point x="64" y="725.333"/>
      <point x="64" y="768" type="curve"/>
      <point x="106.667" y="768"/>
      <point x="149.333" y="768"/>
      <point x="192" y="768" type="curve"/>
      <point x="192" y="704" type="line"/>
      <point x="256" y="704" type="line"/>
      <point x="256" y="768" type="line"/>
      <point x="298.667" y="768"/>
      <point x="341.333" y="768"/>
      <point x="384" y="768" type="curve"/>
      <point x="384" y="725.333"/>
      <point x="384" y="682.667"/>
      <point x="384" y="640" type="curve"/>
      <point x="320" y="640" type="line"/>
    </contour>
  </outline>
</glyph>
<glyph name="Gdotaccent" format="2">
  <advance width="448"/>
  <unicode hex="0120"/>
  <outline>
    <contour>
      <point x="320" y="0" type="line"/>
      <point x="234.667" y="-0"/>
      <point x="149.333" y="0"/>
      <point x="64" y="0" type="curve"/>
      <point x="64" y="64" type="line"/>
      <point x="0" y="64" type="line"/>
      <point x="-0" y="192"/>
      <point x="0" y="320"/>
      <point x="0" y="448" type="curve"/>
      <point x="64" y="448" type="line"/>
      <point x="64" y="512" type="line"/>
      <point x="149.333" y="512"/>
      <point x="234.667" y="512"/>
      <point x="320" y="512" type="curve"/>
      <point x="320" y="448" type="line"/>
      <point x="384" y="448" type="line"/>
      <point x="384" y="405.333"/>
      <point x="384" y="362.667"/>
      <point x="384" y="320" type="curve"/>
      <point x="341.333" y="320"/>
      <point x="298.667" y="320"/>
      <point x="256" y="320" type="curve"/>
      <point x="256" y="362.667"/>
      <point x="256" y="405.333"/>
      <point x="256" y="448" type="curve"/>
      <point x="192" y="448" type="line"/>
      <point x="192" y="256" type="line"/>
      <point x="384" y="256" type="line"/>
      <point x="384" y="64" type="line"/>
      <point x="320" y="64" type="line"/>
    </contour>
    <contour>
      <point x="256" y="64" type="line"/>
      <point x="256" y="106.667"/>
      <point x="256" y="149.333"/>
      <point x="256" y="192" type="curve"/>
      <point x="192" y="192" type="line"/>
      <point x="192" y="149.333"/>
      <point x="192" y="106.667"/>
      <point x="192" y="64" type="curve"/>
    </contour>
    <contour>
      <point x="256" y="576" type="curve"/>
      <point x="213.333" y="576"/>
      <point x="170.667" y="576"/>
      <point x="128" y="576" type="curve"/>
      <point x="128" y="618.667"/>
      <point x="128" y="661.333"/>
      <point x="128" y="704" type="curve"/>
      <point x="170.667" y="704"/>
      <point x="213.333" y="704"/>
      <point x="256" y="704" type="curve"/>
      <point x="256" y="661.333"/>
      <point x="256" y="618.667"/>
    </contour>
  </outline>
</glyph>
<glyph name="Gcommaaccent" format="2">
  <advance width="448"/>
  <unicode hex="0122"/>
  <outline>
    <contour>
      <point x="128" y="-192" type="line"/>
      <point x="128" y="-149.333"/>
      <point x="128" y="-106.667"/>
      <point x="128" y="-64" type="curve"/>
      <point x="170.667" y="-64"/>
      <point x="213.333" y="-64"/>
      <point x="256" y="-64" type="curve"/>
      <point x="256" y="-128" type="line"/>
      <point x="192" y="-128" type="line"/>
      <point x="192" y="-192" type="line"/>
    </contour>
    <contour>
      <point x="320" y="0" type="line"/>
      <point x="234.667" y="-0"/>
      <point x="149.333" y="0"/>
      <point x="64" y="0" type="curve"/>
      <point x="64" y="64" type="line"/>
      <point x="0" y="64" type="line"/>
      <point x="-0" y="192"/>
      <point x="0" y="320"/>
      <point x="0" y="448" type="curve"/>
      <point x="64" y="448" type="line"/>
      <point x="64" y="512" type="line"/>
      <point x="149.333" y="512"/>
      <point x="234.667" y="512"/>
      <point x="320" y="512" type="curve"/>
      <point x="320" y="448" type="line"/>
      <point x="384" y="448" type="line"/>
      <point x="384" y="405.333"/>
      <point x="384" y="362.667"/>
      <point x="384" y="320" type="curve"/>
      <point x="341.333" y="320"/>
      <point x="298.667" y="320"/>
      <point x="256" y="320" type="curve"/>
      <point x="256" y="362.667"/>
      <point x="256" y="405.333"/>
      <point x="256" y="448" type="curve"/>
      <point x="192" y="448" type="line"/>
      <point x="192" y="256" type="line"/>
      <point x="384" y="256" type="line"/>
      <point x="384" y="64" type="line"/>
      <point x="320" y="64" type="line"/>
    </contour>
    <contour>
      <point x="256" y="64" type="line"/>
      <point x="256" y="106.667"/>
      <point x="256" y="149.333"/>
      <point x="256" y="192" type="curve"/>
      <point x="192" y="192" type="line"/>
      <point x="192" y="149.333"/>
      <point x="192" y="106.667"/>
      <point x="192" y="64" type="curve"/>
    </contour>
  </outline>
</glyph>
<glyph name="gcommaaccent" format="2">
  <advance width="448"/>
  <unicode hex="0123"/>
  <outline>
    <contour>
      <point x="320" y="0" type="line"/>
      <point x="234.667" y="-0"/>
      <point x="149.333" y="0"/>
      <point x="64" y="0" type="curve"/>
      <point x="64" y="64" type="line"/>
      <point x="106.667" y="64"/>
      <point x="149.333" y="64"/>
      <point x="192" y="64" type="curve"/>
      <point x="192" y="128" type="line"/>
      <point x="149.333" y="128"/>
      <point x="106.667" y="128"/>
      <point x="64" y="128" type="curve"/>
      <point x="64" y="192" type="line"/>
      <point x="0" y="192" type="line"/>
      <point x="-0" y="234.667"/>
      <point x="0" y="277.333"/>
      <point x="0" y="320" type="curve"/>
      <point x="64" y="320" type="line"/>
      <point x="64" y="384" type="line"/>
      <point x="384" y="384" type="line"/>
      <point x="384" y="64" type="line"/>
      <point x="320" y="64" type="line"/>
    </contour>
    <contour>
      <point x="192" y="192" type="line"/>
      <point x="192" y="234.667"/>
      <point x="192" y="277.333"/>
      <point x="192" y="320" type="curve"/>
      <point x="128" y="320" type="line"/>
      <point x="128" y="277.333"/>
      <point x="128" y="234.667"/>
      <point x="128" y="192" type="curve"/>
    </contour>
    <contour>
      <point x="256" y="448" type="line"/>
      <point x="213.333" y="448"/>
      <point x="170.667" y="448"/>
      <point x="128" y="448" type="curve"/>
      <point x="128" y="490.667"/>
      <point x="128" y="533.333"/>
      <point x="128" y="576" type="curve"/>
      <point x="192" y="576" type="line"/>
      <point x="192" y="640" type="line"/>
      <point x="256" y="640" type="line"/>
    </contour>
  </outline>
</glyph>
<glyph name="hcircumflex" format="2">
  <advance width="448"/>
  <unicode hex="0125"/>
  <outline>
    <contour>
      <point x="384" y="0" type="curve"/>
      <point x="341.333" y="-0"/>
      <point x="298.667" y="0"/>
      <point x="256" y="0" type="curve"/>
      <point x="256" y="85.3333"/>
      <point x="256" y="170.667"/>
      <point x="256" y="256" type="curve"/>
      <point x="192" y="256" type="line"/>
      <point x="192" y="170.667"/>
      <point x="192" y="85.3333"/>
      <point x="192" y="0" type="curve"/>
      <point x="0" y="0" type="line"/>
      <point x="0" y="448" type="line"/>
      <point x="192" y="448" type="line"/>
      <point x="192" y="405.333"/>
      <point x="192" y="362.667"/>
      <point x="192" y="320" type="curve"/>
      <point x="234.667" y="320"/>
      <point x="277.333" y="320"/>
      <point x="320" y="320" type="curve"/>
      <point x="320" y="256" type="line"/>
      <point x="384" y="256" type="line"/>
      <point x="384" y="170.667"/>
      <point x="384" y="85.3333"/>
    </contour>
    <contour>
      <point x="384" y="512" type="line"/>
      <point x="341.333" y="512"/>
      <point x="298.667" y="512"/>
      <point x="256" y="512" type="curve"/>
      <point x="256" y="576" type="line"/>
      <point x="192" y="576" type="line"/>
      <point x="192" y="512" type="line"/>
      <point x="149.333" y="512"/>
      <point x="106.667" y="512"/>
      <point x="64" y="512" type="curve"/>
      <point x="64" y="576" type="line"/>
      <point x="128" y="576" type="line"/>
      <point x="128" y="640" type="line"/>
      <point x="192" y="640" type="line"/>
      <point x="192" y="704" type="line"/>
      <point x="256" y="704" type="line"/>
      <point x="256" y="640" type="line"/>
      <point x="320" y="640" type="line"/>
      <point x="320" y="576" type="line"/>
      <point x="384" y="576" type="line"/>
    </contour>
  </outline>
</glyph>
<glyph name="Hbar" format="2">
  <advance width="512"/>
  <unicode hex="0126"/>
  <outline>
    <contour>
      <point x="384" y="0" type="curve"/>
      <point x="341.333" y="-0"/>
      <point x="298.667" y="0"/>
      <point x="256" y="0" type="curve"/>
      <point x="256" y="192" type="line"/>
      <point x="192" y="192" type="line"/>
      <point x="192" y="0" type="line"/>
      <point x="0" y="0" type="line"/>
      <point x="-0" y="128"/>
      <point x="0" y="256"/>
      <point x="0" y="384" type="curve"/>
      <point x="-64" y="384" type="line"/>
      <point x="-64" y="448" type="line"/>
      <point x="0" y="448" type="line"/>
      <point x="0" y="512" type="line"/>
      <point x="192" y="512" type="line"/>
      <point x="192" y="448" type="line"/>
      <point x="256" y="448" type="line"/>
      <point x="256" y="512" type="line"/>
      <point x="298.667" y="512"/>
      <point x="341.333" y="512"/>
      <point x="384" y="512" type="curve"/>
      <point x="384" y="448" type="line"/>
      <point x="448" y="448" type="line"/>
      <point x="448" y="384" type="line"/>
      <point x="384" y="384" type="line"/>
      <point x="384" y="256"/>
      <point x="384" y="128"/>
    </contour>
    <contour>
      <point x="256" y="320" type="line"/>
      <point x="256" y="384" type="line"/>
      <point x="192" y="384" type="line"/>
      <point x="192" y="320" type="line"/>
    </contour>
  </outline>
</glyph>
<glyph name="hbar" format="2">
  <advance width="448"/>
  <unicode hex="0127"/>
  <outline>
    <contour>
      <point x="384" y="0" type="curve"/>
      <point x="341.333" y="-0"/>
      <point x="298.667" y="0"/>
      <point x="256" y="0" type="curve"/>
      <point x="256" y="85.3333"/>
      <point x="256" y="170.667"/>
      <point x="256" y="256" type="curve"/>
      <point x="192" y="256" type="line"/>
      <point x="192" y="170.667"/>
      <point x="192" y="85.3333"/>
      <point x="192" y="0" type="curve"/>
      <point x="0" y="0" type="line"/>
      <point x="-0" y="128"/>
      <point x="0" y="256"/>
      <point x="0" y="384" type="curve"/>
      <point x="-64" y="384" type="line"/>
      <point x="-64" y="448" type="line"/>
      <point x="0" y="448" type="line"/>
      <point x="0" y="512" type="line"/>
      <point x="192" y="512" type="line"/>
      <point x="192" y="448" type="line"/>
      <point x="256" y="448" type="line"/>
      <point x="256" y="384" type="line"/>
      <point x="192" y="384" type="line"/>
      <point x="192" y="320" type="line"/>
      <point x="234.667" y="320"/>
      <point x="277.333" y="320"/>
      <point x="320" y="320" type="curve"/>
      <point x="320" y="256" type="line"/>
      <point x="384" y="256" type="line"/>
      <point x="384" y="170.667"/>
      <point x="384" y="85.3333"/>
    </contour>
  </outline>
</glyph>
<glyph name="Imacron" format="2">
  <advance width="320"/>
  <unicode hex="012A"/>
  <outline>
    <contour>
      <point x="192" y="0" type="curve"/>
      <point x="0" y="0" type="line"/>
      <point x="-0" y="170.667"/>
      <point x="0" y="341.333"/>
      <point x="0" y="512" type="curve"/>
      <point x="192" y="512" type="line"/>
      <point x="192" y="341.333"/>
      <point x="192" y="170.667"/>
    </contour>
    <contour>
      <point x="-64" y="640" type="line"/>
      <point x="256" y="640" type="line"/>
      <point x="256" y="576" type="line"/>
      <point x="-64" y="576" type="line"/>
    </contour>
  </outline>
</glyph>
<glyph name="Iogonek" format="2">
  <advance width="320"/>
  <unicode hex="012E"/>
  <outline>
    <contour>
      <point x="128" y="-128" type="line"/>
      <point x="170.667" y="-128"/>
      <point x="213.333" y="-128"/>
      <point x="256" y="-128" type="curve"/>
      <point x="256" y="-192" type="line"/>
      <point x="64" y="-192" type="line"/>
      <point x="64" y="-149.333"/>
      <point x="64" y="-106.667"/>
      <point x="64" y="-64" type="curve"/>
      <point x="128" y="-64" type="line"/>
    </contour>
    <contour>
      <point x="128" y="-64" type="line"/>
      <point x="128" y="0" type="line"/>
      <point x="85.3333" y="-0"/>
      <point x="42.6667" y="0"/>
      <point x="0" y="0" type="curve"/>
      <point x="-0" y="170.667"/>
      <point x="0" y="341.333"/>
      <point x="0" y="512" type="curve"/>
      <point x="192" y="512" type="line"/>
      <point x="192" y="-64" type="line"/>
    </contour>
  </outline>
</glyph>
<glyph name="iogonek" format="2">
  <advance width="384"/>
  <unicode hex="012F"/>
  <outline>
    <contour>
      <point x="192" y="-128" type="line"/>
      <point x="234.667" y="-128"/>
      <point x="277.333" y="-128"/>
      <point x="320" y="-128" type="curve"/>
      <point x="320" y="-192" type="line"/>
      <point x="128" y="-192" type="line"/>
      <point x="128" y="-149.333"/>
      <point x="128" y="-106.667"/>
      <point x="128" y="-64" type="curve"/>
      <point x="192" y="-64" type="line"/>
    </contour>
    <contour>
      <point x="192" y="-64" type="line"/>
      <point x="192" y="0" type="line"/>
      <point x="149.333" y="-0"/>
      <point x="106.667" y="0"/>
      <point x="64" y="0" type="curve"/>
      <point x="64" y="64" type="line"/>
      <point x="0" y="64" type="line"/>
      <point x="0" y="256" type="line"/>
      <point x="192" y="256" type="line"/>
      <point x="192" y="64" type="line"/>
      <point x="256" y="64" type="line"/>
      <point x="256" y="21.3333"/>
      <point x="256" y="-21.3333"/>
      <point x="256" y="-64" type="curve"/>
    </contour>
    <contour>
      <point x="0" y="384" type="line"/>
      <point x="192" y="384" type="line"/>
      <point x="192" y="320" type="line"/>
      <point x="0" y="320" type="line"/>
    </contour>
  </outline>
</glyph>
<glyph name="Idotaccent" format="2">
  <advance width="256"/>
  <unicode hex="0130"/>
  <outline>
    <contour>
      <point x="192" y="0" type="curve"/>
      <point x="0" y="0" type="line"/>
      <point x="-0" y="170.667"/>
      <point x="0" y="341.333"/>
      <point x="0" y="512" type="curve"/>
      <point x="192" y="512" type="line"/>
      <point x="192" y="341.333"/>
      <point x="192" y="170.667"/>
    </contour>
    <contour>
      <point x="192" y="576" type="curve"/>
      <point x="0" y="576" type="line"/>
      <point x="-0" y="618.667"/>
      <point x="0" y="661.333"/>
      <point x="0" y="704" type="curve"/>
      <point x="192" y="704" type="line"/>
      <point x="192" y="661.333"/>
      <point x="192" y="618.667"/>
    </contour>
  </outline>
</glyph>
<glyph name="IJ" format="2">
  <advance width="576"/>
  <unicode hex="0132"/>
  <outline>
    <contour>
      <point x="448" y="0" type="line"/>
      <point x="256" y="0" type="line"/>
      <point x="256" y="64" type="line"/>
      <point x="192" y="64" type="line"/>
      <point x="192" y="106.667"/>
      <point x="192" y="149.333"/>
      <point x="192" y="192" type="curve"/>
      <point x="234.667" y="192"/>
      <point x="277.333" y="192"/>
      <point x="320" y="192" type="curve"/>
      <point x="320" y="149.333"/>
      <point x="320" y="106.667"/>
      <point x="320" y="64" type="curve"/>
      <point x="384" y="64" type="line"/>
      <point x="384" y="512" type="line"/>
      <point x="426.667" y="512"/>
      <point x="469.333" y="512"/>
      <point x="512" y="512" type="curve"/>
      <point x="512" y="64" type="line"/>
      <point x="448" y="64" type="line"/>
    </contour>
    <contour>
      <point x="128" y="0" type="curve"/>
      <point x="85.3333" y="-0"/>
      <point x="42.6667" y="0"/>
      <point x="0" y="0" type="curve"/>
      <point x="-0" y="170.667"/>
      <point x="0" y="341.333"/>
      <point x="0" y="512" type="curve"/>
      <point x="42.6667" y="512"/>
      <point x="85.3333" y="512"/>
      <point x="128" y="512" type="curve"/>
      <point x="128" y="341.333"/>
      <point x="128" y="170.667"/>
    </contour>
  </outline>
</glyph>
<glyph name="ij" format="2">
  <advance width="576"/>
  <unicode hex="0133"/>
  <outline>
    <contour>
      <point x="448" y="0" type="line"/>
      <point x="256" y="0" type="line"/>
      <point x="256" y="64" type="line"/>
      <point x="298.667" y="64"/>
      <point x="341.333" y="64"/>
      <point x="384" y="64" type="curve"/>
      <point x="384" y="256" type="line"/>
      <point x="426.667" y="256"/>
      <point x="469.333" y="256"/>
      <point x="512" y="256" type="curve"/>
      <point x="512" y="64" type="line"/>
      <point x="448" y="64" type="line"/>
    </contour>
    <contour>
      <point x="192" y="0" type="line"/>
      <point x="149.333" y="-0"/>
      <point x="106.667" y="0"/>
      <point x="64" y="0" type="curve"/>
      <point x="64" y="64" type="line"/>
      <point x="0" y="64" type="line"/>
      <point x="0" y="256" type="line"/>
      <point x="42.6667" y="256"/>
      <point x="85.3333" y="256"/>
      <point x="128" y="256" type="curve"/>
      <point x="128" y="64" type="line"/>
      <point x="192" y="64" type="line"/>
    </contour>
    <contour>
      <point x="384" y="384" type="line"/>
      <point x="426.667" y="384"/>
      <point x="469.333" y="384"/>
      <point x="512" y="384" type="curve"/>
      <point x="512" y="320" type="line"/>
      <point x="469.333" y="320"/>
      <point x="426.667" y="320"/>
      <point x="384" y="320" type="curve"/>
    </contour>
    <contour>
      <point x="0" y="384" type="line"/>
      <point x="42.6667" y="384"/>
      <point x="85.3333" y="384"/>
      <point x="128" y="384" type="curve"/>
      <point x="128" y="320" type="line"/>
      <point x="85.3333" y="320"/>
      <point x="42.6667" y="320"/>
      <point x="0" y="320" type="curve"/>
    </contour>
  </outline>
</glyph>
<glyph name="Jcircumflex" format="2">
  <advance width="576"/>
  <unicode hex="0134"/>
  <outline>
    <contour>
      <point x="384" y="0" type="line"/>
      <point x="64" y="0" type="line"/>
      <point x="64" y="64" type="line"/>
      <point x="0" y="64" type="line"/>
      <point x="-0" y="106.667"/>
      <point x="0" y="149.333"/>
      <point x="0" y="192" type="curve"/>
      <point x="192" y="192" type="line"/>
      <point x="192" y="149.333"/>
      <point x="192" y="106.667"/>
      <point x="192" y="64" type="curve"/>
      <point x="256" y="64" type="line"/>
      <point x="256" y="512" type="line"/>
      <point x="448" y="512" type="line"/>
      <point x="448" y="64" type="line"/>
      <point x="384" y="64" type="line"/>
    </contour>
    <contour>
      <point x="512" y="576" type="line"/>
      <point x="469.333" y="576"/>
      <point x="426.667" y="576"/>
      <point x="384" y="576" type="curve"/>
      <point x="384" y="640" type="line"/>
      <point x="320" y="640" type="line"/>
      <point x="320" y="576" type="line"/>
      <point x="277.333" y="576"/>
      <point x="234.667" y="576"/>
      <point x="192" y="576" type="curve"/>
      <point x="192" y="640" type="line"/>
      <point x="256" y="640" type="line"/>
      <point x="256" y="704" type="line"/>
      <point x="320" y="704" type="line"/>
      <point x="320" y="768" type="line"/>
      <point x="384" y="768" type="line"/>
      <point x="384" y="704" type="line"/>
      <point x="448" y="704" type="line"/>
      <point x="448" y="640" type="line"/>
      <point x="512" y="640" type="line"/>
    </contour>
  </outline>
</glyph>
<glyph name="jcircumflex" format="2">
  <advance width="448"/>
  <unicode hex="0135"/>
  <outline>
    <contour>
      <point x="256" y="0" type="line"/>
      <point x="170.667" y="-0"/>
      <point x="85.3333" y="0"/>
      <point x="0" y="0" type="curve"/>
      <point x="0" y="64" type="line"/>
      <point x="42.6667" y="64"/>
      <point x="85.3333" y="64"/>
      <point x="128" y="64" type="curve"/>
      <point x="128" y="256" type="line"/>
      <point x="320" y="256" type="line"/>
      <point x="320" y="64" type="line"/>
      <point x="256" y="64" type="line"/>
    </contour>
    <contour>
      <point x="384" y="320" type="line"/>
      <point x="341.333" y="320"/>
      <point x="298.667" y="320"/>
      <point x="256" y="320" type="curve"/>
      <point x="256" y="384" type="line"/>
      <point x="192" y="384" type="line"/>
      <point x="192" y="320" type="line"/>
      <point x="149.333" y="320"/>
      <point x="106.667" y="320"/>
      <point x="64" y="320" type="curve"/>
      <point x="64" y="384" type="line"/>
      <point x="128" y="384" type="line"/>
      <point x="128" y="448" type="line"/>
      <point x="192" y="448" type="line"/>
      <point x="192" y="512" type="line"/>
      <point x="256" y="512" type="line"/>
      <point x="256" y="448" type="line"/>
      <point x="320" y="448" type="line"/>
      <point x="320" y="384" type="line"/>
      <point x="384" y="384" type="line"/>
    </contour>
  </outline>
</glyph>
<glyph name="kcommaaccent" format="2">
  <advance width="512"/>
  <unicode hex="0137"/>
  <outline>
    <contour>
      <point x="128" y="-192" type="line"/>
      <point x="128" y="-149.333"/>
      <point x="128" y="-106.667"/>
      <point x="128" y="-64" type="curve"/>
      <point x="170.667" y="-64"/>
      <point x="213.333" y="-64"/>
      <point x="256" y="-64" type="curve"/>
      <point x="256" y="-128" type="line"/>
      <point x="192" y="-128" type="line"/>
      <point x="192" y="-192" type="line"/>
    </contour>
    <contour>
      <point x="448" y="0" type="curve"/>
      <point x="405.333" y="-0"/>
      <point x="362.667" y="0"/>
      <point x="320" y="0" type="curve"/>
      <point x="320" y="64" type="line"/>
      <point x="256" y="64" type="line"/>
      <point x="256" y="128" type="line"/>
      <point x="192" y="128" type="line"/>
      <point x="192" y="85.3333"/>
      <point x="192" y="42.6667"/>
      <point x="192" y="0" type="curve"/>
      <point x="0" y="0" type="line"/>
      <point x="0" y="448" type="line"/>
      <point x="192" y="448" type="line"/>
      <point x="192" y="362.667"/>
      <point x="192" y="277.333"/>
      <point x="192" y="192" type="curve"/>
      <point x="256" y="192" type="line"/>
      <point x="256" y="256" type="line"/>
      <point x="320" y="256" type="line"/>
      <point x="320" y="320" type="line"/>
      <point x="362.667" y="320"/>
      <point x="405.333" y="320"/>
      <point x="448" y="320" type="curve"/>
      <point x="448" y="256" type="line"/>
      <point x="384" y="256" type="line"/>
      <point x="384" y="192" type="line"/>
      <point x="320" y="192" type="line"/>
      <point x="320" y="128" type="line"/>
      <point x="362.667" y="128"/>
      <point x="405.333" y="128"/>
      <point x="448" y="128" type="curve"/>
      <point x="448" y="85.3333"/>
      <point x="448" y="42.6667"/>
    </contour>
  </outline>
</glyph>
<glyph name="kgreenlandic" format="2">
  <advance width="512"/>
  <unicode hex="0138"/>
  <outline>
    <contour>
      <point x="448" y="0" type="line"/>
      <point x="320" y="0" type="line"/>
      <point x="320" y="64" type="line"/>
      <point x="256" y="64" type="line"/>
      <point x="256" y="128" type="line"/>
      <point x="192" y="128" type="line"/>
      <point x="192" y="0" type="line"/>
      <point x="0" y="0" type="line"/>
      <point x="0" y="384" type="line"/>
      <point x="192" y="384" type="line"/>
      <point x="192" y="256" type="line"/>
      <point x="256" y="256" type="line"/>
      <point x="256" y="320" type="line"/>
      <point x="320" y="320" type="line"/>
      <point x="320" y="384" type="line"/>
      <point x="448" y="384" type="line"/>
      <point x="448" y="256" type="line"/>
      <point x="384" y="256" type="line"/>
      <point x="384" y="128" type="line"/>
      <point x="448" y="128" type="line"/>
    </contour>
  </outline>
</glyph>
<glyph name="Lacute" format="2">
  <advance width="448"/>
  <unicode hex="0139"/>
  <outline>
    <contour>
      <point x="384" y="0" type="curve"/>
      <point x="256" y="-0"/>
      <point x="128" y="0"/>
      <point x="0" y="0" type="curve"/>
      <point x="-0" y="170.667"/>
      <point x="0" y="341.333"/>
      <point x="0" y="512" type="curve"/>
      <point x="192" y="512" type="line"/>
      <point x="192" y="384"/>
      <point x="192" y="256"/>
      <point x="192" y="128" type="curve"/>
      <point x="384" y="128" type="line"/>
      <point x="384" y="85.3333"/>
      <point x="384" y="42.6667"/>
    </contour>
    <contour>
      <point x="192" y="576" type="line"/>
      <point x="149.333" y="576"/>
      <point x="106.667" y="576"/>
      <point x="64" y="576" type="curve"/>
      <point x="64" y="640" type="line"/>
      <point x="128" y="640" type="line"/>
      <point x="128" y="682.667"/>
      <point x="128" y="725.333"/>
      <point x="128" y="768" type="curve"/>
      <point x="320" y="768" type="line"/>
      <point x="320" y="704" type="line"/>
      <point x="256" y="704" type="line"/>
      <point x="256" y="640" type="line"/>
      <point x="192" y="640" type="line"/>
    </contour>
  </outline>
</glyph>
<glyph name="lacute" format="2">
  <advance width="384"/>
  <unicode hex="013A"/>
  <outline>
    <contour>
      <point x="192" y="64" type="curve"/>
      <point x="234.667" y="64"/>
      <point x="277.333" y="64"/>
      <point x="320" y="64" type="curve"/>
      <point x="320" y="0" type="line"/>
      <point x="234.667" y="-0"/>
      <point x="149.333" y="0"/>
      <point x="64" y="0" type="curve"/>
      <point x="64" y="64" type="line"/>
      <point x="0" y="64" type="line"/>
      <point x="-0" y="192"/>
      <point x="0" y="320"/>
      <point x="0" y="448" type="curve"/>
      <point x="192" y="448" type="line"/>
      <point x="192" y="320"/>
      <point x="192" y="192"/>
    </contour>
    <contour>
      <point x="128" y="512" type="line"/>
      <point x="85.3333" y="512"/>
      <point x="42.6667" y="512"/>
      <point x="0" y="512" type="curve"/>
      <point x="0" y="576" type="line"/>
      <point x="64" y="576" type="line"/>
      <point x="64" y="618.667"/>
      <point x="64" y="661.333"/>
      <point x="64" y="704" type="curve"/>
      <point x="256" y="704" type="line"/>
      <point x="256" y="640" type="line"/>
      <point x="192" y="640" type="line"/>
      <point x="192" y="576" type="line"/>
      <point x="128" y="576" type="line"/>
    </contour>
  </outline>
</glyph>
<glyph name="Lcommaaccent" format="2">
  <advance width="448"/>
  <unicode hex="013B"/>
  <outline>
    <contour>
      <point x="64" y="-192" type="line"/>
      <point x="64" y="-64" type="line"/>
      <point x="192" y="-64" type="line"/>
      <point x="192" y="-128" type="line"/>
      <point x="128" y="-128" type="line"/>
      <point x="128" y="-192" type="line"/>
    </contour>
    <contour>
      <point x="384" y="0" type="line"/>
      <point x="0" y="0" type="line"/>
      <point x="0" y="512" type="line"/>
      <point x="192" y="512" type="line"/>
      <point x="192" y="128" type="line"/>
      <point x="384" y="128" type="line"/>
    </contour>
  </outline>
</glyph>
<glyph name="lcommaaccent" format="2">
  <advance width="384"/>
  <unicode hex="013C"/>
  <outline>
    <contour>
      <point x="64" y="-192" type="line"/>
      <point x="64" y="-149.333"/>
      <point x="64" y="-106.667"/>
      <point x="64" y="-64" type="curve"/>
      <point x="106.667" y="-64"/>
      <point x="149.333" y="-64"/>
      <point x="192" y="-64" type="curve"/>
      <point x="192" y="-128" type="line"/>
      <point x="128" y="-128" type="line"/>
      <point x="128" y="-192" type="line"/>
    </contour>
    <contour>
      <point x="192" y="64" type="curve"/>
      <point x="234.667" y="64"/>
      <point x="277.333" y="64"/>
      <point x="320" y="64" type="curve"/>
      <point x="320" y="0" type="line"/>
      <point x="234.667" y="-0"/>
      <point x="149.333" y="0"/>
      <point x="64" y="0" type="curve"/>
      <point x="64" y="64" type="line"/>
      <point x="0" y="64" type="line"/>
      <point x="-0" y="192"/>
      <point x="0" y="320"/>
      <point x="0" y="448" type="curve"/>
      <point x="192" y="448" type="line"/>
      <point x="192" y="320"/>
      <point x="192" y="192"/>
    </contour>
  </outline>
</glyph>
<glyph name="Lcaron" format="2">
  <advance width="512"/>
  <unicode hex="013D"/>
  <outline>
    <contour>
      <point x="320" y="320" type="line"/>
      <point x="320" y="512" type="line"/>
      <point x="362.667" y="512"/>
      <point x="405.333" y="512"/>
      <point x="448" y="512" type="curve"/>
      <point x="448" y="469.333"/>
      <point x="448" y="426.667"/>
      <point x="448" y="384" type="curve"/>
      <point x="384" y="384" type="line"/>
      <point x="384" y="320" type="line"/>
    </contour>
    <contour>
      <point x="384" y="0" type="curve"/>
      <point x="256" y="-0"/>
      <point x="128" y="0"/>
      <point x="0" y="0" type="curve"/>
      <point x="-0" y="170.667"/>
      <point x="0" y="341.333"/>
      <point x="0" y="512" type="curve"/>
      <point x="192" y="512" type="line"/>
      <point x="192" y="384"/>
      <point x="192" y="256"/>
      <point x="192" y="128" type="curve"/>
      <point x="384" y="128" type="line"/>
      <point x="384" y="85.3333"/>
      <point x="384" y="42.6667"/>
    </contour>
  </outline>
</glyph>
<glyph name="lcaron" format="2">
  <advance width="448"/>
  <unicode hex="013E"/>
  <outline>
    <contour>
      <point x="256" y="256" type="line"/>
      <point x="256" y="448" type="line"/>
      <point x="298.667" y="448"/>
      <point x="341.333" y="448"/>
      <point x="384" y="448" type="curve"/>
      <point x="384" y="405.333"/>
      <point x="384" y="362.667"/>
      <point x="384" y="320" type="curve"/>
      <point x="320" y="320" type="line"/>
      <point x="320" y="256" type="line"/>
    </contour>
    <contour>
      <point x="192" y="64" type="curve"/>
      <point x="234.667" y="64"/>
      <point x="277.333" y="64"/>
      <point x="320" y="64" type="curve"/>
      <point x="320" y="0" type="line"/>
      <point x="234.667" y="-0"/>
      <point x="149.333" y="0"/>
      <point x="64" y="0" type="curve"/>
      <point x="64" y="64" type="line"/>
      <point x="0" y="64" type="line"/>
      <point x="-0" y="192"/>
      <point x="0" y="320"/>
      <point x="0" y="448" type="curve"/>
      <point x="192" y="448" type="line"/>
      <point x="192" y="320"/>
      <point x="192" y="192"/>
    </contour>
  </outline>
</glyph>
<glyph name="Ldot" format="2">
  <advance width="448"/>
  <unicode hex="013F"/>
  <outline>
    <contour>
      <point x="384" y="0" type="curve"/>
      <point x="256" y="-0"/>
      <point x="128" y="0"/>
      <point x="0" y="0" type="curve"/>
      <point x="-0" y="170.667"/>
      <point x="0" y="341.333"/>
      <point x="0" y="512" type="curve"/>
      <point x="192" y="512" type="line"/>
      <point x="192" y="384"/>
      <point x="192" y="256"/>
      <point x="192" y="128" type="curve"/>
      <point x="384" y="128" type="line"/>
      <point x="384" y="85.3333"/>
      <point x="384" y="42.6667"/>
    </contour>
    <contour>
      <point x="384" y="256" type="curve"/>
      <point x="341.333" y="256"/>
      <point x="298.667" y="256"/>
      <point x="256" y="256" type="curve"/>
      <point x="256" y="298.667"/>
      <point x="256" y="341.333"/>
      <point x="256" y="384" type="curve"/>
      <point x="298.667" y="384"/>
      <point x="341.333" y="384"/>
      <point x="384" y="384" type="curve"/>
      <point x="384" y="341.333"/>
      <point x="384" y="298.667"/>
    </contour>
  </outline>
</glyph>
<glyph name="Lslash" format="2">
  <advance width="448"/>
  <unicode hex="0141"/>
  <outline>
    <contour>
      <point x="384" y="0" type="curve"/>
      <point x="256" y="-0"/>
      <point x="128" y="0"/>
      <point x="0" y="0" type="curve"/>
      <point x="-0" y="42.6667"/>
      <point x="0" y="85.3333"/>
      <point x="0" y="128" type="curve"/>
      <point x="-64" y="128" type="line"/>
      <point x="-64" y="170.667"/>
      <point x="-64" y="213.333"/>
      <point x="-64" y="256" type="curve"/>
      <point x="0" y="256" type="line"/>
      <point x="-0" y="341.333"/>
      <point x="0" y="426.667"/>
      <point x="0" y="512" type="curve"/>
      <point x="192" y="512" type="line"/>
      <point x="192" y="469.333"/>
      <point x="192" y="426.667"/>
      <point x="192" y="384" type="curve"/>
      <point x="256" y="384" type="line"/>
      <point x="256" y="341.333"/>
      <point x="256" y="298.667"/>
      <point x="256" y="256" type="curve"/>
      <point x="192" y="256" type="line"/>
      <point x="192" y="213.333"/>
      <point x="192" y="170.667"/>
      <point x="192" y="128" type="curve"/>
      <point x="384" y="128" type="line"/>
      <point x="384" y="85.3333"/>
      <point x="384" y="42.6667"/>
    </contour>
  </outline>
</glyph>
<glyph name="Nacute" format="2">
  <advance width="512"/>
  <unicode hex="0143"/>
  <outline>
    <contour>
      <point x="448" y="0" type="curve"/>
      <point x="405.333" y="-0"/>
      <point x="362.667" y="0"/>
      <point x="320" y="0" type="curve"/>
      <point x="320" y="64" type="line"/>
      <point x="256" y="64" type="line"/>
      <point x="256" y="128" type="line"/>
      <point x="192" y="128" type="line"/>
      <point x="192" y="192" type="line"/>
      <point x="128" y="192" type="line"/>
      <point x="128" y="0" type="line"/>
      <point x="85.3333" y="-0"/>
      <point x="42.6667" y="0"/>
      <point x="0" y="0" type="curve"/>
      <point x="-0" y="170.667"/>
      <point x="0" y="341.333"/>
      <point x="0" y="512" type="curve"/>
      <point x="42.6667" y="512"/>
      <point x="85.3333" y="512"/>
      <point x="128" y="512" type="curve"/>
      <point x="128" y="448" type="line"/>
      <point x="192" y="448" type="line"/>
      <point x="192" y="384" type="line"/>
      <point x="256" y="384" type="line"/>
      <point x="256" y="320" type="line"/>
      <point x="320" y="320" type="line"/>
      <point x="320" y="512" type="line"/>
      <point x="362.667" y="512"/>
      <point x="405.333" y="512"/>
      <point x="448" y="512" type="curve"/>
      <point x="448" y="341.333"/>
      <point x="448" y="170.667"/>
    </contour>
    <contour>
      <point x="192" y="576" type="line"/>
      <point x="149.333" y="576"/>
      <point x="106.667" y="576"/>
      <point x="64" y="576" type="curve"/>
      <point x="64" y="640" type="line"/>
      <point x="128" y="640" type="line"/>
      <point x="128" y="682.667"/>
      <point x="128" y="725.333"/>
      <point x="128" y="768" type="curve"/>
      <point x="320" y="768" type="line"/>
      <point x="320" y="704" type="line"/>
      <point x="256" y="704" type="line"/>
      <point x="256" y="640" type="line"/>
      <point x="192" y="640" type="line"/>
    </contour>
  </outline>
</glyph>
<glyph name="ncommaaccent" format="2">
  <advance width="448"/>
  <unicode hex="0146"/>
  <outline>
    <contour>
      <point x="128" y="-192" type="line"/>
      <point x="128" y="-149.333"/>
      <point x="128" y="-106.667"/>
      <point x="128" y="-64" type="curve"/>
      <point x="170.667" y="-64"/>
      <point x="213.333" y="-64"/>
      <point x="256" y="-64" type="curve"/>
      <point x="256" y="-128" type="line"/>
      <point x="192" y="-128" type="line"/>
      <point x="192" y="-192" type="line"/>
    </contour>
    <contour>
      <point x="384" y="0" type="line"/>
      <point x="341.333" y="-0"/>
      <point x="298.667" y="0"/>
      <point x="256" y="0" type="curve"/>
      <point x="256" y="320" type="line"/>
      <point x="213.333" y="320"/>
      <point x="170.667" y="320"/>
      <point x="128" y="320" type="curve"/>
      <point x="128" y="0" type="line"/>
      <point x="85.3333" y="-0"/>
      <point x="42.6667" y="0"/>
      <point x="0" y="0" type="curve"/>
      <point x="-0" y="128"/>
      <point x="0" y="256"/>
      <point x="0" y="384" type="curve"/>
      <point x="320" y="384" type="line"/>
      <point x="320" y="320" type="line"/>
      <point x="384" y="320" type="line"/>
    </contour>
  </outline>
</glyph>
<glyph name="ncaron" format="2">
  <advance width="448"/>
  <unicode hex="0148"/>
  <outline>
    <contour>
      <point x="192" y="448" type="line"/>
      <point x="192" y="512" type="line"/>
      <point x="128" y="512" type="line"/>
      <point x="128" y="576" type="line"/>
      <point x="64" y="576" type="line"/>
      <point x="64" y="640" type="line"/>
      <point x="106.667" y="640"/>
      <point x="149.333" y="640"/>
      <point x="192" y="640" type="curve"/>
      <point x="192" y="576" type="line"/>
      <point x="256" y="576" type="line"/>
      <point x="256" y="640" type="line"/>
      <point x="298.667" y="640"/>
      <point x="341.333" y="640"/>
      <point x="384" y="640" type="curve"/>
      <point x="384" y="576" type="line"/>
      <point x="320" y="576" type="line"/>
      <point x="320" y="512" type="line"/>
      <point x="256" y="512" type="line"/>
      <point x="256" y="448" type="line"/>
    </contour>
    <contour>
      <point x="384" y="0" type="line"/>
      <point x="341.333" y="-0"/>
      <point x="298.667" y="0"/>
      <point x="256" y="0" type="curve"/>
      <point x="256" y="320" type="line"/>
      <point x="213.333" y="320"/>
      <point x="170.667" y="320"/>
      <point x="128" y="320" type="curve"/>
      <point x="128" y="0" type="line"/>
      <point x="85.3333" y="-0"/>
      <point x="42.6667" y="0"/>
      <point x="0" y="0" type="curve"/>
      <point x="-0" y="128"/>
      <point x="0" y="256"/>
      <point x="0" y="384" type="curve"/>
      <point x="320" y="384" type="line"/>
      <point x="320" y="320" type="line"/>
      <point x="384" y="320" type="line"/>
    </contour>
  </outline>
</glyph>
<glyph name="napostrophe" format="2">
  <advance width="448"/>
  <unicode hex="0149"/>
  <outline>
    <contour>
      <point x="384" y="0" type="line"/>
      <point x="341.333" y="-0"/>
      <point x="298.667" y="0"/>
      <point x="256" y="0" type="curve"/>
      <point x="256" y="320" type="line"/>
      <point x="213.333" y="320"/>
      <point x="170.667" y="320"/>
      <point x="128" y="320" type="curve"/>
      <point x="128" y="0" type="line"/>
      <point x="85.3333" y="-0"/>
      <point x="42.6667" y="0"/>
      <point x="0" y="0" type="curve"/>
      <point x="-0" y="128"/>
      <point x="0" y="256"/>
      <point x="0" y="384" type="curve"/>
      <point x="320" y="384" type="line"/>
      <point x="320" y="320" type="line"/>
      <point x="384" y="320" type="line"/>
    </contour>
    <contour>
      <point x="0" y="384" type="line"/>
      <point x="-64" y="384" type="line"/>
      <point x="-64" y="576" type="line"/>
      <point x="-21.3333" y="576"/>
      <point x="21.3333" y="576"/>
      <point x="64" y="576" type="curve"/>
      <point x="64" y="533.333"/>
      <point x="64" y="490.667"/>
      <point x="64" y="448" type="curve"/>
      <point x="0" y="448" type="line"/>
    </contour>
  </outline>
</glyph>
<glyph name="Eng" format="2">
  <advance width="512"/>
  <unicode hex="014A"/>
  <outline>
    <contour>
      <point x="384" y="0" type="line"/>
      <point x="192" y="0" type="line"/>
      <point x="192" y="42.6667"/>
      <point x="192" y="85.3333"/>
      <point x="192" y="128" type="curve"/>
      <point x="234.667" y="128"/>
      <point x="277.333" y="128"/>
      <point x="320" y="128" type="curve"/>
      <point x="320" y="213.333"/>
      <point x="320" y="298.667"/>
      <point x="320" y="384" type="curve"/>
      <point x="128" y="384" type="line"/>
      <point x="128" y="256"/>
      <point x="128" y="128"/>
      <point x="128" y="0" type="curve"/>
      <point x="85.3333" y="-0"/>
      <point x="42.6667" y="0"/>
      <point x="0" y="0" type="curve"/>
      <point x="-0" y="170.667"/>
      <point x="0" y="341.333"/>
      <point x="0" y="512" type="curve"/>
      <point x="128" y="512"/>
      <point x="256" y="512"/>
      <point x="384" y="512" type="curve"/>
      <point x="384" y="448" type="line"/>
      <point x="448" y="448" type="line"/>
      <point x="448" y="320"/>
      <point x="448" y="192"/>
      <point x="448" y="64" type="curve"/>
      <point x="384" y="64" type="line"/>
    </contour>
  </outline>
</glyph>
<glyph name="OE" format="2">
  <advance width="576"/>
  <unicode hex="0152"/>
  <outline>
    <contour>
      <point x="512" y="0" type="line"/>
      <point x="64" y="0" type="line"/>
      <point x="64" y="64" type="line"/>
      <point x="0" y="64" type="line"/>
      <point x="0" y="448" type="line"/>
      <point x="64" y="448" type="line"/>
      <point x="64" y="512" type="line"/>
      <point x="512" y="512" type="line"/>
      <point x="512" y="384" type="line"/>
      <point x="384" y="384" type="line"/>
      <point x="384" y="320" type="line"/>
      <point x="448" y="320" type="line"/>
      <point x="448" y="192" type="line"/>
      <point x="384" y="192" type="line"/>
      <point x="384" y="128" type="line"/>
      <point x="512" y="128" type="line"/>
    </contour>
    <contour>
      <point x="256" y="128" type="line"/>
      <point x="256" y="384" type="line"/>
      <point x="192" y="384" type="line"/>
      <point x="192" y="128" type="line"/>
    </contour>
  </outline>
</glyph>
<glyph name="oe" format="2">
  <advance width="576"/>
  <unicode hex="0153"/>
  <outline>
    <contour>
      <point x="320" y="64" type="curve"/>
      <point x="512" y="64" type="line"/>
      <point x="512" y="0" type="line"/>
      <point x="64" y="0" type="line"/>
      <point x="64" y="64" type="line"/>
      <point x="0" y="64" type="line"/>
      <point x="-0" y="149.333"/>
      <point x="0" y="234.667"/>
      <point x="0" y="320" type="curve"/>
      <point x="64" y="320" type="line"/>
      <point x="64" y="384" type="line"/>
      <point x="192" y="384"/>
      <point x="320" y="384"/>
      <point x="448" y="384" type="curve"/>
      <point x="448" y="320" type="line"/>
      <point x="512" y="320" type="line"/>
      <point x="512" y="277.333"/>
      <point x="512" y="234.667"/>
      <point x="512" y="192" type="curve"/>
      <point x="320" y="192" type="line"/>
      <point x="320" y="149.333"/>
      <point x="320" y="106.667"/>
    </contour>
    <contour>
      <point x="192" y="64" type="line"/>
      <point x="192" y="149.333"/>
      <point x="192" y="234.667"/>
      <point x="192" y="320" type="curve"/>
      <point x="128" y="320" type="line"/>
      <point x="128" y="234.667"/>
      <point x="128" y="149.333"/>
      <point x="128" y="64" type="curve"/>
    </contour>
    <contour>
      <point x="384" y="256" type="line"/>
      <point x="384" y="320" type="line"/>
      <point x="320" y="320" type="line"/>
      <point x="320" y="256" type="line"/>
    </contour>
  </outline>
</glyph>
<glyph name="Racute" format="2">
  <advance width="448"/>
  <unicode hex="0154"/>
  <outline>
    <contour>
      <point x="384" y="0" type="curve"/>
      <point x="341.333" y="-0"/>
      <point x="298.667" y="0"/>
      <point x="256" y="0" type="curve"/>
      <point x="256" y="42.6667"/>
      <point x="256" y="85.3333"/>
      <point x="256" y="128" type="curve"/>
      <point x="192" y="128" type="line"/>
      <point x="192" y="85.3333"/>
      <point x="192" y="42.6667"/>
      <point x="192" y="0" type="curve"/>
      <point x="0" y="0" type="line"/>
      <point x="-0" y="170.667"/>
      <point x="0" y="341.333"/>
      <point x="0" y="512" type="curve"/>
      <point x="320" y="512" type="line"/>
      <point x="320" y="448" type="line"/>
      <point x="384" y="448" type="line"/>
      <point x="384" y="362.667"/>
      <point x="384" y="277.333"/>
      <point x="384" y="192" type="curve"/>
      <point x="320" y="192" type="line"/>
      <point x="320" y="128" type="line"/>
      <point x="384" y="128" type="line"/>
      <point x="384" y="85.3333"/>
      <point x="384" y="42.6667"/>
    </contour>
    <contour>
      <point x="256" y="256" type="line"/>
      <point x="256" y="298.667"/>
      <point x="256" y="341.333"/>
      <point x="256" y="384" type="curve"/>
      <point x="192" y="384" type="line"/>
      <point x="192" y="341.333"/>
      <point x="192" y="298.667"/>
      <point x="192" y="256" type="curve"/>
    </contour>
    <contour>
      <point x="256" y="576" type="line"/>
      <point x="213.333" y="576"/>
      <point x="170.667" y="576"/>
      <point x="128" y="576" type="curve"/>
      <point x="128" y="640" type="line"/>
      <point x="192" y="640" type="line"/>
      <point x="192" y="682.667"/>
      <point x="192" y="725.333"/>
      <point x="192" y="768" type="curve"/>
      <point x="384" y="768" type="line"/>
      <point x="384" y="704" type="line"/>
      <point x="320" y="704" type="line"/>
      <point x="320" y="640" type="line"/>
      <point x="256" y="640" type="line"/>
    </contour>
  </outline>
</glyph>
<glyph name="Rcommaaccent" format="2">
  <advance width="448"/>
  <unicode hex="0156"/>
  <outline>
    <contour>
      <point x="128" y="-192" type="line"/>
      <point x="128" y="-149.333"/>
      <point x="128" y="-106.667"/>
      <point x="128" y="-64" type="curve"/>
      <point x="170.667" y="-64"/>
      <point x="213.333" y="-64"/>
      <point x="256" y="-64" type="curve"/>
      <point x="256" y="-128" type="line"/>
      <point x="192" y="-128" type="line"/>
      <point x="192" y="-192" type="line"/>
    </contour>
    <contour>
      <point x="384" y="0" type="curve"/>
      <point x="341.333" y="-0"/>
      <point x="298.667" y="0"/>
      <point x="256" y="0" type="curve"/>
      <point x="256" y="42.6667"/>
      <point x="256" y="85.3333"/>
      <point x="256" y="128" type="curve"/>
      <point x="192" y="128" type="line"/>
      <point x="192" y="85.3333"/>
      <point x="192" y="42.6667"/>
      <point x="192" y="0" type="curve"/>
      <point x="0" y="0" type="line"/>
      <point x="-0" y="170.667"/>
      <point x="0" y="341.333"/>
      <point x="0" y="512" type="curve"/>
      <point x="320" y="512" type="line"/>
      <point x="320" y="448" type="line"/>
      <point x="384" y="448" type="line"/>
      <point x="384" y="362.667"/>
      <point x="384" y="277.333"/>
      <point x="384" y="192" type="curve"/>
      <point x="320" y="192" type="line"/>
      <point x="320" y="128" type="line"/>
      <point x="384" y="128" type="line"/>
      <point x="384" y="85.3333"/>
      <point x="384" y="42.6667"/>
    </contour>
    <contour>
      <point x="256" y="256" type="line"/>
      <point x="256" y="298.667"/>
      <point x="256" y="341.333"/>
      <point x="256" y="384" type="curve"/>
      <point x="192" y="384" type="line"/>
      <point x="192" y="341.333"/>
      <point x="192" y="298.667"/>
      <point x="192" y="256" type="curve"/>
    </contour>
  </outline>
</glyph>
<glyph name="rcommaaccent" format="2">
  <advance width="448"/>
  <unicode hex="0157"/>
  <outline>
    <contour>
      <point x="64" y="-192" type="line"/>
      <point x="64" y="-149.333"/>
      <point x="64" y="-106.667"/>
      <point x="64" y="-64" type="curve"/>
      <point x="106.667" y="-64"/>
      <point x="149.333" y="-64"/>
      <point x="192" y="-64" type="curve"/>
      <point x="192" y="-128" type="line"/>
      <point x="128" y="-128" type="line"/>
      <point x="128" y="-192" type="line"/>
    </contour>
    <contour>
      <point x="192" y="0" type="line"/>
      <point x="0" y="0" type="line"/>
      <point x="-0" y="128"/>
      <point x="0" y="256"/>
      <point x="0" y="384" type="curve"/>
      <point x="320" y="384" type="line"/>
      <point x="320" y="320" type="line"/>
      <point x="384" y="320" type="line"/>
      <point x="384" y="256" type="line"/>
      <point x="341.333" y="256"/>
      <point x="298.667" y="256"/>
      <point x="256" y="256" type="curve"/>
      <point x="256" y="320" type="line"/>
      <point x="192" y="320" type="line"/>
    </contour>
  </outline>
</glyph>
<glyph name="rcaron" format="2">
  <advance width="448"/>
  <unicode hex="0159"/>
  <outline>
    <contour>
      <point x="192" y="448" type="line"/>
      <point x="192" y="512" type="line"/>
      <point x="128" y="512" type="line"/>
      <point x="128" y="576" type="line"/>
      <point x="64" y="576" type="line"/>
      <point x="64" y="640" type="line"/>
      <point x="106.667" y="640"/>
      <point x="149.333" y="640"/>
      <point x="192" y="640" type="curve"/>
      <point x="192" y="576" type="line"/>
      <point x="256" y="576" type="line"/>
      <point x="256" y="640" type="line"/>
      <point x="298.667" y="640"/>
      <point x="341.333" y="640"/>
      <point x="384" y="640" type="curve"/>
      <point x="384" y="576" type="line"/>
      <point x="320" y="576" type="line"/>
      <point x="320" y="512" type="line"/>
      <point x="256" y="512" type="line"/>
      <point x="256" y="448" type="line"/>
    </contour>
    <contour>
      <point x="192" y="0" type="line"/>
      <point x="0" y="0" type="line"/>
      <point x="-0" y="128"/>
      <point x="0" y="256"/>
      <point x="0" y="384" type="curve"/>
      <point x="320" y="384" type="line"/>
      <point x="320" y="320" type="line"/>
      <point x="384" y="320" type="line"/>
      <point x="384" y="256" type="line"/>
      <point x="341.333" y="256"/>
      <point x="298.667" y="256"/>
      <point x="256" y="256" type="curve"/>
      <point x="256" y="320" type="line"/>
      <point x="192" y="320" type="line"/>
    </contour>
  </outline>
</glyph>
<glyph name="Scaron" format="2">
  <advance width="512"/>
  <unicode hex="0160"/>
  <outline>
    <contour>
      <point x="192" y="576" type="line"/>
      <point x="192" y="640" type="line"/>
      <point x="128" y="640" type="line"/>
      <point x="128" y="704" type="line"/>
      <point x="64" y="704" type="line"/>
      <point x="64" y="768" type="line"/>
      <point x="106.667" y="768"/>
      <point x="149.333" y="768"/>
      <point x="192" y="768" type="curve"/>
      <point x="192" y="704" type="line"/>
      <point x="256" y="704" type="line"/>
      <point x="256" y="768" type="line"/>
      <point x="298.667" y="768"/>
      <point x="341.333" y="768"/>
      <point x="384" y="768" type="curve"/>
      <point x="384" y="704" type="line"/>
      <point x="320" y="704" type="line"/>
      <point x="320" y="640" type="line"/>
      <point x="256" y="640" type="line"/>
      <point x="256" y="576" type="line"/>
    </contour>
    <contour>
      <point x="384" y="0" type="line"/>
      <point x="256" y="-0"/>
      <point x="128" y="0"/>
      <point x="0" y="0" type="curve"/>
      <point x="-0" y="42.6667"/>
      <point x="0" y="85.3333"/>
      <point x="0" y="128" type="curve"/>
      <point x="85.3333" y="128"/>
      <point x="170.667" y="128"/>
      <point x="256" y="128" type="curve"/>
      <point x="256" y="192" type="line"/>
      <point x="64" y="192" type="line"/>
      <point x="64" y="256" type="line"/>
      <point x="0" y="256" type="line"/>
      <point x="0" y="448" type="line"/>
      <point x="64" y="448" type="line"/>
      <point x="64" y="512" type="line"/>
      <point x="384" y="512" type="line"/>
      <point x="384" y="469.333"/>
      <point x="384" y="426.667"/>
      <point x="384" y="384" type="curve"/>
      <point x="192" y="384" type="line"/>
      <point x="192" y="320" type="line"/>
      <point x="384" y="320" type="line"/>
      <point x="384" y="256" type="line"/>
      <point x="448" y="256" type="line"/>
      <point x="448" y="64" type="line"/>
      <point x="384" y="64" type="line"/>
    </contour>
  </outline>
</glyph>
<glyph name="scaron" format="2">
  <advance width="448"/>
  <unicode hex="0161"/>
  <outline>
    <contour>
      <point x="192" y="448" type="line"/>
      <point x="192" y="512" type="line"/>
      <point x="128" y="512" type="line"/>
      <point x="128" y="576" type="line"/>
      <point x="64" y="576" type="line"/>
      <point x="64" y="640" type="line"/>
      <point x="106.667" y="640"/>
      <point x="149.333" y="640"/>
      <point x="192" y="640" type="curve"/>
      <point x="192" y="576" type="line"/>
      <point x="256" y="576" type="line"/>
      <point x="256" y="640" type="line"/>
      <point x="298.667" y="640"/>
      <point x="341.333" y="640"/>
      <point x="384" y="640" type="curve"/>
      <point x="384" y="576" type="line"/>
      <point x="320" y="576" type="line"/>
      <point x="320" y="512" type="line"/>
      <point x="256" y="512" type="line"/>
      <point x="256" y="448" type="line"/>
    </contour>
    <contour>
      <point x="320" y="0" type="line"/>
      <point x="0" y="0" type="line"/>
      <point x="0" y="64" type="line"/>
      <point x="192" y="64" type="line"/>
      <point x="192" y="128" type="line"/>
      <point x="149.333" y="128"/>
      <point x="106.667" y="128"/>
      <point x="64" y="128" type="curve"/>
      <point x="64" y="192" type="line"/>
      <point x="0" y="192" type="line"/>
      <point x="-0" y="234.667"/>
      <point x="0" y="277.333"/>
      <point x="0" y="320" type="curve"/>
      <point x="64" y="320" type="line"/>
      <point x="64" y="384" type="line"/>
      <point x="149.333" y="384"/>
      <point x="234.667" y="384"/>
      <point x="320" y="384" type="curve"/>
      <point x="320" y="320" type="line"/>
      <point x="277.333" y="320"/>
      <point x="234.667" y="320"/>
      <point x="192" y="320" type="curve"/>
      <point x="192" y="256" type="line"/>
      <point x="234.667" y="256"/>
      <point x="277.333" y="256"/>
      <point x="320" y="256" type="curve"/>
      <point x="320" y="192" type="line"/>
      <point x="384" y="192" type="line"/>
      <point x="384" y="149.333"/>
      <point x="384" y="106.667"/>
      <point x="384" y="64" type="curve"/>
      <point x="320" y="64" type="line"/>
    </contour>
  </outline>
</glyph>
<glyph name="Tcommaaccent" format="2">
  <advance width="512"/>
  <unicode hex="0162"/>
  <outline>
    <contour>
      <point x="384" y="-192" type="curve"/>
      <point x="192" y="-192" type="line"/>
      <point x="192" y="-128" type="line"/>
      <point x="234.667" y="-128"/>
      <point x="277.333" y="-128"/>
      <point x="320" y="-128" type="curve"/>
      <point x="320" y="-64" type="line"/>
      <point x="384" y="-64" type="line"/>
      <point x="384" y="-106.667"/>
      <point x="384" y="-149.333"/>
    </contour>
    <contour>
      <point x="192" y="-128" type="line"/>
      <point x="128" y="-128" type="line"/>
      <point x="128" y="-64" type="line"/>
      <point x="192" y="-64" type="line"/>
    </contour>
    <contour>
      <point x="320" y="-64" type="line"/>
      <point x="256" y="-64" type="line"/>
      <point x="256" y="0" type="line"/>
      <point x="213.333" y="-0"/>
      <point x="170.667" y="0"/>
      <point x="128" y="0" type="curve"/>
      <point x="128" y="128"/>
      <point x="128" y="256"/>
      <point x="128" y="384" type="curve"/>
      <point x="85.3333" y="384"/>
      <point x="42.6667" y="384"/>
      <point x="0" y="384" type="curve"/>
      <point x="-0" y="426.667"/>
      <point x="0" y="469.333"/>
      <point x="0" y="512" type="curve"/>
      <point x="448" y="512" type="line"/>
      <point x="448" y="469.333"/>
      <point x="448" y="426.667"/>
      <point x="448" y="384" type="curve"/>
      <point x="405.333" y="384"/>
      <point x="362.667" y="384"/>
      <point x="320" y="384" type="curve"/>
    </contour>
  </outline>
</glyph>
<glyph name="Tcaron" format="2">
  <advance width="512"/>
  <unicode hex="0164"/>
  <outline>
    <contour>
      <point x="192" y="576" type="line"/>
      <point x="192" y="640" type="line"/>
      <point x="128" y="640" type="line"/>
      <point x="128" y="704" type="line"/>
      <point x="64" y="704" type="line"/>
      <point x="64" y="768" type="line"/>
      <point x="106.667" y="768"/>
      <point x="149.333" y="768"/>
      <point x="192" y="768" type="curve"/>
      <point x="192" y="704" type="line"/>
      <point x="256" y="704" type="line"/>
      <point x="256" y="768" type="line"/>
      <point x="298.667" y="768"/>
      <point x="341.333" y="768"/>
      <point x="384" y="768" type="curve"/>
      <point x="384" y="704" type="line"/>
      <point x="320" y="704" type="line"/>
      <point x="320" y="640" type="line"/>
      <point x="256" y="640" type="line"/>
      <point x="256" y="576" type="line"/>
    </contour>
    <contour>
      <point x="320" y="0" type="curve"/>
      <point x="128" y="0" type="line"/>
      <point x="128" y="128"/>
      <point x="128" y="256"/>
      <point x="128" y="384" type="curve"/>
      <point x="85.3333" y="384"/>
      <point x="42.6667" y="384"/>
      <point x="0" y="384" type="curve"/>
      <point x="-0" y="426.667"/>
      <point x="0" y="469.333"/>
      <point x="0" y="512" type="curve"/>
      <point x="448" y="512" type="line"/>
      <point x="448" y="469.333"/>
      <point x="448" y="426.667"/>
      <point x="448" y="384" type="curve"/>
      <point x="405.333" y="384"/>
      <point x="362.667" y="384"/>
      <point x="320" y="384" type="curve"/>
      <point x="320" y="256"/>
      <point x="320" y="128"/>
    </contour>
  </outline>
</glyph>
<glyph name="tcaron" format="2">
  <advance width="512"/>
  <unicode hex="0165"/>
  <outline>
    <contour>
      <point x="320" y="0" type="line"/>
      <point x="128" y="0" type="line"/>
      <point x="128" y="64" type="line"/>
      <point x="64" y="64" type="line"/>
      <point x="64" y="256" type="line"/>
      <point x="0" y="256" type="line"/>
      <point x="0" y="320" type="line"/>
      <point x="64" y="320" type="line"/>
      <point x="64" y="362.667"/>
      <point x="64" y="405.333"/>
      <point x="64" y="448" type="curve"/>
      <point x="256" y="448" type="line"/>
      <point x="256" y="405.333"/>
      <point x="256" y="362.667"/>
      <point x="256" y="320" type="curve"/>
      <point x="320" y="320" type="line"/>
      <point x="320" y="256" type="line"/>
      <point x="256" y="256" type="line"/>
      <point x="256" y="64" type="line"/>
      <point x="320" y="64" type="line"/>
    </contour>
    <contour>
      <point x="320" y="320" type="line"/>
      <point x="320" y="512" type="line"/>
      <point x="362.667" y="512"/>
      <point x="405.333" y="512"/>
      <point x="448" y="512" type="curve"/>
      <point x="448" y="469.333"/>
      <point x="448" y="426.667"/>
      <point x="448" y="384" type="curve"/>
      <point x="384" y="384" type="line"/>
      <point x="384" y="320" type="line"/>
    </contour>
  </outline>
</glyph>
<glyph name="Utilde" format="2">
  <advance width="448"/>
  <unicode hex="0168"/>
  <outline>
    <contour>
      <point x="64" y="576" type="line"/>
      <point x="64" y="618.667"/>
      <point x="64" y="661.333"/>
      <point x="64" y="704" type="curve"/>
      <point x="256" y="704" type="line"/>
      <point x="256" y="640" type="line"/>
      <point x="320" y="640" type="line"/>
      <point x="320" y="704" type="line"/>
      <point x="384" y="704" type="line"/>
      <point x="384" y="661.333"/>
      <point x="384" y="618.667"/>
      <point x="384" y="576" type="curve"/>
      <point x="192" y="576" type="line"/>
      <point x="192" y="640" type="line"/>
      <point x="128" y="640" type="line"/>
      <point x="128" y="576" type="line"/>
    </contour>
    <contour>
      <point x="320" y="0" type="line"/>
      <point x="234.667" y="-0"/>
      <point x="149.333" y="0"/>
      <point x="64" y="0" type="curve"/>
      <point x="64" y="64" type="line"/>
      <point x="0" y="64" type="line"/>
      <point x="0" y="512" type="line"/>
      <point x="192" y="512" type="line"/>
      <point x="192" y="192" type="line"/>
      <point x="256" y="192" type="line"/>
      <point x="256" y="512" type="line"/>
      <point x="298.667" y="512"/>
      <point x="341.333" y="512"/>
      <point x="384" y="512" type="curve"/>
      <point x="384" y="64" type="line"/>
      <point x="320" y="64" type="line"/>
    </contour>
  </outline>
</glyph>
